M48
; DRILL file {KiCad 6.0.2+dfsg-1} date Παρ 20 Μαΐ 2022 09:00:20 μμ EEST
; FORMAT={-:-/ absolute / inch / decimal}
; #@! TF.CreationDate,2022-05-20T21:00:20+03:00
; #@! TF.GenerationSoftware,Kicad,Pcbnew,6.0.2+dfsg-1
; #@! TF.FileFunction,Plated,1,2,PTH
FMAT,2
INCH
; #@! TA.AperFunction,Plated,PTH,ViaDrill
T1C0.0157
; #@! TA.AperFunction,Plated,PTH,ComponentDrill
T2C0.0276
; #@! TA.AperFunction,Plated,PTH,ComponentDrill
T3C0.0315
; #@! TA.AperFunction,Plated,PTH,ComponentDrill
T4C0.0394
; #@! TA.AperFunction,Plated,PTH,ComponentDrill
T5C0.0433
; #@! TA.AperFunction,Plated,PTH,ComponentDrill
T6C0.0512
%
G90
G05
T1
X4.7Y-3.2
X4.7Y-3.95
X5.3Y-2.75
X5.39Y-3.02
X5.55Y-3.12
X5.75Y-2.15
X5.75Y-2.55
X5.75Y-2.95
X5.75Y-3.35
X5.95Y-2.15
X6.05Y-3.7
X6.15Y-2.55
X6.15Y-2.95
X6.15Y-3.35
X6.3716Y-2.3284
X6.4Y-3.9
X6.45Y-3.7
X6.55Y-2.95
X6.55Y-3.35
X6.65Y-2.55
X6.85Y-2.15
X6.85Y-2.55
X6.85Y-2.75
X6.9Y-3.11
X6.9034Y-2.6406
X6.91Y-2.31
X6.94Y-2.64
X7.025Y-2.781
X7.05Y-3.7
X7.11Y-3.0
X7.18Y-2.99
X7.3Y-2.16
X7.41Y-2.99
X7.43Y-3.35
X7.502Y-2.166
X7.605Y-2.35
X7.65Y-2.15
X7.65Y-3.35
X7.72Y-2.48
X7.837Y-2.263
X7.85Y-2.36
X7.85Y-2.49
X7.85Y-2.65
X7.94Y-3.02
X7.95Y-2.0
X7.95Y-2.1
X7.98Y-2.19
X7.98Y-2.32
X8.01Y-2.8
X8.015Y-2.485
X8.02Y-2.35
X8.02Y-2.67
X8.045Y-2.98
X8.05Y-3.35
X8.06Y-1.97
X8.06Y-2.26
X8.075Y-2.305
X8.11Y-2.5
X8.11Y-2.65
X8.17Y-2.97
X8.17Y-3.07
X8.1815Y-2.8185
X8.19Y-1.97
X8.19Y-2.32
X8.2Y-2.48
X8.22Y-2.36
X8.35Y-3.35
X8.36Y-2.34
X8.36Y-2.82
T2
X5.3746Y-2.4806
X5.3746Y-2.5306
X5.3746Y-2.5806
X5.3746Y-2.6306
X5.3746Y-2.6806
X5.4246Y-2.4806
X5.4246Y-2.5306
X5.4246Y-2.5806
X5.4246Y-2.6306
X5.4246Y-2.6806
T3
X4.8143Y-2.03
X5.0143Y-2.03
X5.1593Y-2.05
X5.3593Y-2.05
X7.8Y-2.8817
X7.9Y-2.8817
X8.0Y-2.8817
X8.1Y-2.8817
X8.1266Y-2.05
X8.3234Y-2.05
T4
X4.6766Y-2.16
X4.6766Y-2.84
X4.8734Y-2.16
X4.8734Y-2.84
X5.0266Y-2.18
X5.2234Y-2.18
X5.725Y-3.9
X5.825Y-3.9
X5.925Y-3.9
X6.025Y-3.9
X6.125Y-3.9
X6.1254Y-2.2
X6.2254Y-2.2
X6.3254Y-2.2
X6.4254Y-2.2
X6.525Y-3.9
X6.625Y-3.9
X6.725Y-3.9
X6.825Y-3.9
X6.925Y-3.9
X7.3Y-2.9504
X7.3Y-3.2496
T5
X4.68Y-2.31
X4.68Y-2.71
X4.87Y-2.31
X4.87Y-2.71
X5.06Y-2.31
X5.06Y-2.71
X7.222Y-3.6614
X7.222Y-3.8386
X7.478Y-3.6614
X7.478Y-3.8386
T6
X4.75Y-1.75
X4.95Y-1.75
X8.05Y-1.75
X8.25Y-1.75
T4
G00X4.8482Y-3.5
M15
G01X4.9506Y-3.5
M16
G05
G00X4.8561Y-3.748
M15
G01X4.9427Y-3.748
M16
G05
G00X5.0884Y-3.5709
M15
G01X5.0884Y-3.6575
M16
G05
T0
M30
