%TF.GenerationSoftware,KiCad,Pcbnew,6.0.4-6f826c9f35~116~ubuntu20.04.1*%
%TF.CreationDate,2022-04-27T17:59:11+03:00*%
%TF.ProjectId,iot_geiger,696f745f-6765-4696-9765-722e6b696361,rev?*%
%TF.SameCoordinates,Original*%
%TF.FileFunction,Soldermask,Top*%
%TF.FilePolarity,Negative*%
%FSLAX46Y46*%
G04 Gerber Fmt 4.6, Leading zero omitted, Abs format (unit mm)*
G04 Created by KiCad (PCBNEW 6.0.4-6f826c9f35~116~ubuntu20.04.1) date 2022-04-27 17:59:11*
%MOMM*%
%LPD*%
G01*
G04 APERTURE LIST*
G04 Aperture macros list*
%AMRoundRect*
0 Rectangle with rounded corners*
0 $1 Rounding radius*
0 $2 $3 $4 $5 $6 $7 $8 $9 X,Y pos of 4 corners*
0 Add a 4 corners polygon primitive as box body*
4,1,4,$2,$3,$4,$5,$6,$7,$8,$9,$2,$3,0*
0 Add four circle primitives for the rounded corners*
1,1,$1+$1,$2,$3*
1,1,$1+$1,$4,$5*
1,1,$1+$1,$6,$7*
1,1,$1+$1,$8,$9*
0 Add four rect primitives between the rounded corners*
20,1,$1+$1,$2,$3,$4,$5,0*
20,1,$1+$1,$4,$5,$6,$7,0*
20,1,$1+$1,$6,$7,$8,$9,0*
20,1,$1+$1,$8,$9,$2,$3,0*%
%AMFreePoly0*
4,1,43,1.580355,1.210355,1.595000,1.175000,1.595000,0.775000,1.580355,0.739645,1.545000,0.725000,0.975000,0.725000,0.975000,0.575000,1.545000,0.575000,1.580355,0.560355,1.595000,0.525000,1.595000,0.125000,1.580355,0.089645,1.545000,0.075000,0.975000,0.075000,0.975000,-0.075000,1.545000,-0.075000,1.580355,-0.089645,1.595000,-0.125000,1.595000,-0.525000,1.580355,-0.560355,
1.545000,-0.575000,0.975000,-0.575000,0.975000,-0.725000,1.545000,-0.725000,1.580355,-0.739645,1.595000,-0.775000,1.595000,-1.175000,1.580355,-1.210355,1.545000,-1.225000,0.925000,-1.225000,0.889645,-1.210355,0.875000,-1.175000,-0.925000,-1.175000,-0.960355,-1.160355,-0.975000,-1.125000,-0.975000,1.125000,-0.960355,1.160355,-0.925000,1.175000,0.875000,1.175000,0.889645,1.210355,
0.925000,1.225000,1.545000,1.225000,1.580355,1.210355,1.580355,1.210355,$1*%
G04 Aperture macros list end*
%ADD10C,2.000000*%
%ADD11RoundRect,0.050000X0.415000X0.200000X-0.415000X0.200000X-0.415000X-0.200000X0.415000X-0.200000X0*%
%ADD12FreePoly0,180.000000*%
%ADD13RoundRect,0.237500X0.237500X-0.250000X0.237500X0.250000X-0.237500X0.250000X-0.237500X-0.250000X0*%
%ADD14RoundRect,0.237500X-0.237500X0.250000X-0.237500X-0.250000X0.237500X-0.250000X0.237500X0.250000X0*%
%ADD15C,1.600000*%
%ADD16R,1.700000X1.700000*%
%ADD17O,1.700000X1.700000*%
%ADD18C,2.500000*%
%ADD19RoundRect,0.225000X0.250000X-0.225000X0.250000X0.225000X-0.250000X0.225000X-0.250000X-0.225000X0*%
%ADD20RoundRect,0.237500X0.237500X-0.287500X0.237500X0.287500X-0.237500X0.287500X-0.237500X-0.287500X0*%
%ADD21RoundRect,0.237500X-0.250000X-0.237500X0.250000X-0.237500X0.250000X0.237500X-0.250000X0.237500X0*%
%ADD22R,0.700000X1.150000*%
%ADD23R,1.150000X0.700000*%
%ADD24R,0.700000X0.700000*%
%ADD25R,2.000000X2.000000*%
%ADD26RoundRect,0.225000X-0.250000X0.225000X-0.250000X-0.225000X0.250000X-0.225000X0.250000X0.225000X0*%
%ADD27RoundRect,0.237500X0.237500X-0.300000X0.237500X0.300000X-0.237500X0.300000X-0.237500X-0.300000X0*%
%ADD28O,1.600000X1.600000*%
%ADD29RoundRect,0.225000X-0.225000X-0.250000X0.225000X-0.250000X0.225000X0.250000X-0.225000X0.250000X0*%
%ADD30R,5.400000X2.900000*%
%ADD31R,2.000000X1.500000*%
%ADD32R,2.000000X3.800000*%
%ADD33R,2.800000X2.800000*%
%ADD34O,2.800000X2.800000*%
%ADD35RoundRect,0.237500X0.250000X0.237500X-0.250000X0.237500X-0.250000X-0.237500X0.250000X-0.237500X0*%
%ADD36R,4.600000X2.000000*%
%ADD37O,4.200000X2.000000*%
%ADD38O,2.000000X4.200000*%
%ADD39RoundRect,0.250000X-0.475000X0.337500X-0.475000X-0.337500X0.475000X-0.337500X0.475000X0.337500X0*%
%ADD40RoundRect,0.225000X0.225000X0.250000X-0.225000X0.250000X-0.225000X-0.250000X0.225000X-0.250000X0*%
%ADD41RoundRect,0.237500X-0.237500X0.300000X-0.237500X-0.300000X0.237500X-0.300000X0.237500X0.300000X0*%
%ADD42RoundRect,0.150000X-0.587500X-0.150000X0.587500X-0.150000X0.587500X0.150000X-0.587500X0.150000X0*%
%ADD43R,1.350000X1.350000*%
%ADD44C,1.350000*%
%ADD45O,3.250000X6.000000*%
%ADD46R,1.000000X1.000000*%
%ADD47O,1.000000X1.000000*%
G04 APERTURE END LIST*
D10*
X132675000Y-55372000D03*
X127675000Y-55372000D03*
D11*
X135901500Y-83652000D03*
X135901500Y-83002000D03*
X135901500Y-82352000D03*
X135901500Y-81702000D03*
D12*
X133961500Y-82677000D03*
D13*
X178562000Y-73810500D03*
X178562000Y-71985500D03*
D14*
X197358000Y-67413500D03*
X197358000Y-69238500D03*
D15*
X211415000Y-52070000D03*
X206415000Y-52070000D03*
D16*
X155585000Y-55880000D03*
D17*
X158125000Y-55880000D03*
X160665000Y-55880000D03*
X163205000Y-55880000D03*
D18*
X163830000Y-44450000D03*
D10*
X118785000Y-54864000D03*
X123785000Y-54864000D03*
X123785000Y-72136000D03*
X118785000Y-72136000D03*
X189940000Y-93000000D03*
X183440000Y-93000000D03*
X189940000Y-97500000D03*
X183440000Y-97500000D03*
D19*
X204368400Y-56248600D03*
X204368400Y-54698600D03*
D20*
X180340000Y-71741000D03*
X180340000Y-69991000D03*
D18*
X210820000Y-99060000D03*
D21*
X198071100Y-54914800D03*
X199896100Y-54914800D03*
D14*
X185420000Y-69699500D03*
X185420000Y-71524500D03*
D18*
X176530000Y-44450000D03*
D22*
X200810000Y-69530000D03*
X201810000Y-69530000D03*
X202810000Y-69530000D03*
X203810000Y-69530000D03*
X204810000Y-69530000D03*
X205810000Y-69530000D03*
X206810000Y-69530000D03*
X207810000Y-69530000D03*
X208810000Y-69530000D03*
X209810000Y-69530000D03*
D23*
X209735000Y-67405000D03*
X209735000Y-66405000D03*
X209735000Y-65405000D03*
X209735000Y-64405000D03*
X209735000Y-63405000D03*
D22*
X209810000Y-61280000D03*
X208810000Y-61280000D03*
X207810000Y-61280000D03*
X206810000Y-61280000D03*
X205810000Y-61280000D03*
X204810000Y-61280000D03*
X203810000Y-61280000D03*
X202810000Y-61280000D03*
X201810000Y-61280000D03*
X200810000Y-61280000D03*
D23*
X200885000Y-63405000D03*
X200885000Y-64405000D03*
X200885000Y-65405000D03*
X200885000Y-66405000D03*
X200885000Y-67405000D03*
D24*
X202260000Y-68155000D03*
X202260000Y-67055000D03*
X202260000Y-65955000D03*
X202260000Y-64855000D03*
X202260000Y-63755000D03*
X202260000Y-62655000D03*
X203590000Y-65980000D03*
X203590000Y-64830000D03*
X204740000Y-67130000D03*
X204740000Y-65980000D03*
X204740000Y-64830000D03*
X204740000Y-63680000D03*
X205890000Y-65980000D03*
X205890000Y-64830000D03*
X207040000Y-67130000D03*
X207040000Y-65980000D03*
X207040000Y-64830000D03*
X207040000Y-63680000D03*
D25*
X185420000Y-82540000D03*
D10*
X185420000Y-74940000D03*
D26*
X175895000Y-94475000D03*
X175895000Y-96025000D03*
D27*
X138430000Y-56742500D03*
X138430000Y-55017500D03*
D19*
X140208000Y-63513000D03*
X140208000Y-61963000D03*
D15*
X127362000Y-51562000D03*
D28*
X122282000Y-51562000D03*
D29*
X194805000Y-56515000D03*
X196355000Y-56515000D03*
D21*
X201017500Y-52070000D03*
X202842500Y-52070000D03*
D30*
X123444000Y-85468000D03*
X123444000Y-75568000D03*
D18*
X189230000Y-44450000D03*
D31*
X181635000Y-62470000D03*
X181635000Y-64770000D03*
D32*
X187935000Y-64770000D03*
D31*
X181635000Y-67070000D03*
D13*
X135890000Y-56792500D03*
X135890000Y-54967500D03*
X192786000Y-82700500D03*
X192786000Y-80875500D03*
D33*
X123825000Y-68834000D03*
D34*
X123825000Y-58674000D03*
D18*
X138430000Y-44450000D03*
D15*
X136125000Y-52070000D03*
D28*
X131045000Y-52070000D03*
D35*
X139596500Y-79502000D03*
X137771500Y-79502000D03*
D36*
X124445000Y-88900000D03*
D37*
X124445000Y-95200000D03*
D38*
X129245000Y-91800000D03*
D33*
X118745000Y-58674000D03*
D34*
X118745000Y-68834000D03*
D21*
X137771500Y-81280000D03*
X139596500Y-81280000D03*
D18*
X151130000Y-44450000D03*
D39*
X185420000Y-56366500D03*
X185420000Y-58441500D03*
D35*
X189647500Y-52705000D03*
X187822500Y-52705000D03*
X160678500Y-53086000D03*
X158853500Y-53086000D03*
D40*
X133617000Y-88392000D03*
X132067000Y-88392000D03*
D41*
X189142500Y-55017500D03*
X189142500Y-56742500D03*
D26*
X155575000Y-94335000D03*
X155575000Y-95885000D03*
D35*
X192822500Y-56515000D03*
X190997500Y-56515000D03*
D42*
X192242500Y-52390000D03*
X192242500Y-54290000D03*
X194117500Y-53340000D03*
D13*
X200660000Y-58697500D03*
X200660000Y-56872500D03*
D16*
X175895000Y-99060000D03*
D17*
X173355000Y-99060000D03*
X170815000Y-99060000D03*
X168275000Y-99060000D03*
X165735000Y-99060000D03*
D33*
X128524000Y-68834000D03*
D34*
X128524000Y-58674000D03*
D21*
X163171500Y-53086000D03*
X164996500Y-53086000D03*
D18*
X138430000Y-99060000D03*
D27*
X178435000Y-68807500D03*
X178435000Y-67082500D03*
D43*
X205740000Y-73195000D03*
D44*
X203200000Y-73195000D03*
X200660000Y-73195000D03*
X198120000Y-73195000D03*
D45*
X120650000Y-44450000D03*
X125730000Y-44450000D03*
X204470000Y-44450000D03*
X209550000Y-44450000D03*
D26*
X178435000Y-62090000D03*
X178435000Y-63640000D03*
D40*
X211074000Y-71882000D03*
X209524000Y-71882000D03*
D16*
X155575000Y-99060000D03*
D17*
X153035000Y-99060000D03*
X150495000Y-99060000D03*
X147955000Y-99060000D03*
X145415000Y-99060000D03*
D13*
X196355000Y-54887500D03*
X196355000Y-53062500D03*
D35*
X139596500Y-83312000D03*
X137771500Y-83312000D03*
D21*
X184507500Y-89916000D03*
X186332500Y-89916000D03*
D46*
X136515000Y-62230000D03*
D47*
X137785000Y-62230000D03*
X136515000Y-63500000D03*
X137785000Y-63500000D03*
X136515000Y-64770000D03*
X137785000Y-64770000D03*
X136515000Y-66040000D03*
X137785000Y-66040000D03*
X136515000Y-67310000D03*
X137785000Y-67310000D03*
G36*
X191712121Y-57932002D02*
G01*
X191758614Y-57985658D01*
X191770000Y-58038000D01*
X191770000Y-72264000D01*
X191749998Y-72332121D01*
X191696342Y-72378614D01*
X191644000Y-72390000D01*
X187324000Y-72390000D01*
X187255879Y-72369998D01*
X187209386Y-72316342D01*
X187198000Y-72264000D01*
X187198000Y-67436000D01*
X187218002Y-67367879D01*
X187271658Y-67321386D01*
X187324000Y-67310000D01*
X189465885Y-67310000D01*
X189481124Y-67305525D01*
X189482329Y-67304135D01*
X189484000Y-67296452D01*
X189484000Y-62248115D01*
X189479525Y-62232876D01*
X189478135Y-62231671D01*
X189470452Y-62230000D01*
X187324000Y-62230000D01*
X187255879Y-62209998D01*
X187209386Y-62156342D01*
X187198000Y-62104000D01*
X187198000Y-58038000D01*
X187218002Y-57969879D01*
X187271658Y-57923386D01*
X187324000Y-57912000D01*
X191644000Y-57912000D01*
X191712121Y-57932002D01*
G37*
M02*
