M48
; DRILL file {KiCad 6.0.4-6f826c9f35~116~ubuntu20.04.1} date Τετ 27 Απρ 2022 05:59:13 μμ EEST
; FORMAT={-:-/ absolute / metric / decimal}
; #@! TF.CreationDate,2022-04-27T17:59:13+03:00
; #@! TF.GenerationSoftware,Kicad,Pcbnew,6.0.4-6f826c9f35~116~ubuntu20.04.1
; #@! TF.FileFunction,Plated,1,2,PTH
FMAT,2
METRIC
; #@! TA.AperFunction,Plated,PTH,ViaDrill
T1C0.400
; #@! TA.AperFunction,Plated,PTH,ComponentDrill
T2C0.700
; #@! TA.AperFunction,Plated,PTH,ComponentDrill
T3C0.800
; #@! TA.AperFunction,Plated,PTH,ComponentDrill
T4C1.000
; #@! TA.AperFunction,Plated,PTH,ComponentDrill
T5C1.100
; #@! TA.AperFunction,Plated,PTH,ComponentDrill
T6C1.300
; #@! TA.AperFunction,Plated,PTH,ComponentDrill
T7C1.400
%
G90
G05
T1
X119.38Y-81.28
X119.38Y-100.33
X134.62Y-69.85
X134.62Y-76.708
X140.97Y-79.248
X146.05Y-54.61
X146.05Y-64.77
X146.05Y-74.93
X146.05Y-85.09
X151.13Y-54.61
X153.67Y-93.98
X156.21Y-64.77
X156.21Y-74.93
X156.21Y-85.09
X161.84Y-59.14
X162.56Y-99.06
X163.83Y-93.98
X166.37Y-74.93
X166.37Y-85.09
X168.91Y-64.77
X173.99Y-54.61
X173.99Y-64.77
X173.99Y-69.85
X175.26Y-78.994
X175.348Y-67.07
X175.514Y-58.674
X176.276Y-67.056
X178.435Y-70.637
X179.07Y-93.98
X180.594Y-76.2
X182.372Y-75.946
X185.42Y-54.864
X188.214Y-75.946
X188.722Y-85.09
X190.55Y-55.017
X193.167Y-59.69
X194.31Y-54.61
X194.31Y-85.09
X196.088Y-62.992
X199.06Y-57.48
X199.39Y-59.944
X199.39Y-63.246
X199.39Y-67.31
X201.676Y-76.708
X201.93Y-50.8
X201.93Y-53.34
X202.692Y-55.626
X202.692Y-58.928
X203.454Y-71.12
X203.581Y-63.119
X203.708Y-59.69
X203.708Y-67.818
X204.343Y-75.692
X204.47Y-85.09
X204.724Y-50.038
X204.724Y-57.404
X205.105Y-58.547
X205.994Y-63.5
X205.994Y-67.31
X207.518Y-75.946
X207.81Y-71.59
X208.026Y-50.038
X208.026Y-58.928
X208.28Y-62.992
X208.788Y-59.944
X212.09Y-85.09
X212.344Y-59.436
X212.344Y-71.628
T2
X136.515Y-62.23
X136.515Y-63.5
X136.515Y-64.77
X136.515Y-66.04
X136.515Y-67.31
X137.785Y-62.23
X137.785Y-63.5
X137.785Y-64.77
X137.785Y-66.04
X137.785Y-67.31
T3
X122.282Y-51.562
X127.362Y-51.562
X131.045Y-52.07
X136.125Y-52.07
X198.12Y-73.195
X200.66Y-73.195
X203.2Y-73.195
X205.74Y-73.195
X206.415Y-52.07
X211.415Y-52.07
T4
X118.785Y-54.864
X118.785Y-72.136
X123.785Y-54.864
X123.785Y-72.136
X127.675Y-55.372
X132.675Y-55.372
X145.415Y-99.06
X147.955Y-99.06
X150.495Y-99.06
X153.035Y-99.06
X155.575Y-99.06
X155.585Y-55.88
X158.125Y-55.88
X160.665Y-55.88
X163.205Y-55.88
X165.735Y-99.06
X168.275Y-99.06
X170.815Y-99.06
X173.355Y-99.06
X175.895Y-99.06
X185.42Y-74.94
X185.42Y-82.54
T5
X183.44Y-93.0
X183.44Y-97.5
X189.94Y-93.0
X189.94Y-97.5
T6
X120.65Y-44.45
X125.73Y-44.45
X204.47Y-44.45
X209.55Y-44.45
T7
X118.745Y-58.674
X118.745Y-68.834
X123.825Y-58.674
X123.825Y-68.834
X128.524Y-58.674
X128.524Y-68.834
T4
X123.145Y-88.9G85X125.745Y-88.9
G05
X123.345Y-95.2G85X125.545Y-95.2
G05
X129.245Y-90.7G85X129.245Y-92.9
G05
T0
M30
