%TF.GenerationSoftware,KiCad,Pcbnew,6.0.2+dfsg-1*%
%TF.CreationDate,2022-05-20T21:00:12+03:00*%
%TF.ProjectId,iot_geiger,696f745f-6765-4696-9765-722e6b696361,rev?*%
%TF.SameCoordinates,Original*%
%TF.FileFunction,Copper,L1,Top*%
%TF.FilePolarity,Positive*%
%FSLAX46Y46*%
G04 Gerber Fmt 4.6, Leading zero omitted, Abs format (unit mm)*
G04 Created by KiCad (PCBNEW 6.0.2+dfsg-1) date 2022-05-20 21:00:12*
%MOMM*%
%LPD*%
G01*
G04 APERTURE LIST*
G04 Aperture macros list*
%AMRoundRect*
0 Rectangle with rounded corners*
0 $1 Rounding radius*
0 $2 $3 $4 $5 $6 $7 $8 $9 X,Y pos of 4 corners*
0 Add a 4 corners polygon primitive as box body*
4,1,4,$2,$3,$4,$5,$6,$7,$8,$9,$2,$3,0*
0 Add four circle primitives for the rounded corners*
1,1,$1+$1,$2,$3*
1,1,$1+$1,$4,$5*
1,1,$1+$1,$6,$7*
1,1,$1+$1,$8,$9*
0 Add four rect primitives between the rounded corners*
20,1,$1+$1,$2,$3,$4,$5,0*
20,1,$1+$1,$4,$5,$6,$7,0*
20,1,$1+$1,$6,$7,$8,$9,0*
20,1,$1+$1,$8,$9,$2,$3,0*%
G04 Aperture macros list end*
%ADD10C,0.300000*%
%TA.AperFunction,NonConductor*%
%ADD11C,0.300000*%
%TD*%
%TA.AperFunction,EtchedComponent*%
%ADD12C,0.381000*%
%TD*%
%TA.AperFunction,SMDPad,CuDef*%
%ADD13RoundRect,0.237500X-0.250000X-0.237500X0.250000X-0.237500X0.250000X0.237500X-0.250000X0.237500X0*%
%TD*%
%TA.AperFunction,ComponentPad*%
%ADD14R,2.200000X2.200000*%
%TD*%
%TA.AperFunction,ComponentPad*%
%ADD15O,2.200000X2.200000*%
%TD*%
%TA.AperFunction,SMDPad,CuDef*%
%ADD16RoundRect,0.150000X0.587500X0.150000X-0.587500X0.150000X-0.587500X-0.150000X0.587500X-0.150000X0*%
%TD*%
%TA.AperFunction,ComponentPad*%
%ADD17C,2.000000*%
%TD*%
%TA.AperFunction,SMDPad,CuDef*%
%ADD18RoundRect,0.237500X0.237500X-0.250000X0.237500X0.250000X-0.237500X0.250000X-0.237500X-0.250000X0*%
%TD*%
%TA.AperFunction,SMDPad,CuDef*%
%ADD19RoundRect,0.237500X-0.237500X0.250000X-0.237500X-0.250000X0.237500X-0.250000X0.237500X0.250000X0*%
%TD*%
%TA.AperFunction,ComponentPad*%
%ADD20C,1.600000*%
%TD*%
%TA.AperFunction,ComponentPad*%
%ADD21R,1.700000X1.700000*%
%TD*%
%TA.AperFunction,ComponentPad*%
%ADD22O,1.700000X1.700000*%
%TD*%
%TA.AperFunction,SMDPad,CuDef*%
%ADD23RoundRect,0.225000X0.250000X-0.225000X0.250000X0.225000X-0.250000X0.225000X-0.250000X-0.225000X0*%
%TD*%
%TA.AperFunction,SMDPad,CuDef*%
%ADD24RoundRect,0.237500X0.237500X-0.287500X0.237500X0.287500X-0.237500X0.287500X-0.237500X-0.287500X0*%
%TD*%
%TA.AperFunction,SMDPad,CuDef*%
%ADD25R,0.700000X1.150000*%
%TD*%
%TA.AperFunction,SMDPad,CuDef*%
%ADD26R,1.150000X0.700000*%
%TD*%
%TA.AperFunction,SMDPad,CuDef*%
%ADD27R,0.700000X0.700000*%
%TD*%
%TA.AperFunction,ComponentPad*%
%ADD28R,2.000000X2.000000*%
%TD*%
%TA.AperFunction,SMDPad,CuDef*%
%ADD29RoundRect,0.225000X-0.250000X0.225000X-0.250000X-0.225000X0.250000X-0.225000X0.250000X0.225000X0*%
%TD*%
%TA.AperFunction,SMDPad,CuDef*%
%ADD30RoundRect,0.237500X0.237500X-0.300000X0.237500X0.300000X-0.237500X0.300000X-0.237500X-0.300000X0*%
%TD*%
%TA.AperFunction,ComponentPad*%
%ADD31O,1.600000X1.600000*%
%TD*%
%TA.AperFunction,SMDPad,CuDef*%
%ADD32RoundRect,0.225000X-0.225000X-0.250000X0.225000X-0.250000X0.225000X0.250000X-0.225000X0.250000X0*%
%TD*%
%TA.AperFunction,SMDPad,CuDef*%
%ADD33R,5.400000X2.900000*%
%TD*%
%TA.AperFunction,SMDPad,CuDef*%
%ADD34R,2.000000X1.500000*%
%TD*%
%TA.AperFunction,SMDPad,CuDef*%
%ADD35R,2.000000X3.800000*%
%TD*%
%TA.AperFunction,SMDPad,CuDef*%
%ADD36RoundRect,0.237500X0.250000X0.237500X-0.250000X0.237500X-0.250000X-0.237500X0.250000X-0.237500X0*%
%TD*%
%TA.AperFunction,ComponentPad*%
%ADD37R,4.600000X2.000000*%
%TD*%
%TA.AperFunction,ComponentPad*%
%ADD38O,4.200000X2.000000*%
%TD*%
%TA.AperFunction,ComponentPad*%
%ADD39O,2.000000X4.200000*%
%TD*%
%TA.AperFunction,SMDPad,CuDef*%
%ADD40RoundRect,0.250000X-0.475000X0.337500X-0.475000X-0.337500X0.475000X-0.337500X0.475000X0.337500X0*%
%TD*%
%TA.AperFunction,SMDPad,CuDef*%
%ADD41RoundRect,0.225000X0.225000X0.250000X-0.225000X0.250000X-0.225000X-0.250000X0.225000X-0.250000X0*%
%TD*%
%TA.AperFunction,SMDPad,CuDef*%
%ADD42RoundRect,0.237500X-0.237500X0.300000X-0.237500X-0.300000X0.237500X-0.300000X0.237500X0.300000X0*%
%TD*%
%TA.AperFunction,SMDPad,CuDef*%
%ADD43RoundRect,0.150000X-0.587500X-0.150000X0.587500X-0.150000X0.587500X0.150000X-0.587500X0.150000X0*%
%TD*%
%TA.AperFunction,ComponentPad*%
%ADD44R,1.350000X1.350000*%
%TD*%
%TA.AperFunction,ComponentPad*%
%ADD45C,1.350000*%
%TD*%
%TA.AperFunction,ComponentPad*%
%ADD46O,3.250000X6.000000*%
%TD*%
%TA.AperFunction,ComponentPad*%
%ADD47R,1.000000X1.000000*%
%TD*%
%TA.AperFunction,ComponentPad*%
%ADD48O,1.000000X1.000000*%
%TD*%
%TA.AperFunction,ViaPad*%
%ADD49C,0.800000*%
%TD*%
%TA.AperFunction,Conductor*%
%ADD50C,0.254000*%
%TD*%
%TA.AperFunction,Conductor*%
%ADD51C,0.762000*%
%TD*%
%TA.AperFunction,Conductor*%
%ADD52C,0.250000*%
%TD*%
G04 APERTURE END LIST*
D10*
D11*
X132565000Y-93912571D02*
X132850714Y-94912571D01*
X133136428Y-94198285D01*
X133422142Y-94912571D01*
X133707857Y-93912571D01*
X134136428Y-93912571D02*
X134422142Y-94912571D01*
X134707857Y-94198285D01*
X134993571Y-94912571D01*
X135279285Y-93912571D01*
X135707857Y-93912571D02*
X135993571Y-94912571D01*
X136279285Y-94198285D01*
X136565000Y-94912571D01*
X136850714Y-93912571D01*
X137422142Y-94769714D02*
X137493571Y-94841142D01*
X137422142Y-94912571D01*
X137350714Y-94841142D01*
X137422142Y-94769714D01*
X137422142Y-94912571D01*
X138136428Y-94912571D02*
X138136428Y-93912571D01*
X138136428Y-93412571D02*
X138065000Y-93484000D01*
X138136428Y-93555428D01*
X138207857Y-93484000D01*
X138136428Y-93412571D01*
X138136428Y-93555428D01*
X139065000Y-94912571D02*
X138922142Y-94841142D01*
X138850714Y-94769714D01*
X138779285Y-94626857D01*
X138779285Y-94198285D01*
X138850714Y-94055428D01*
X138922142Y-93984000D01*
X139065000Y-93912571D01*
X139279285Y-93912571D01*
X139422142Y-93984000D01*
X139493571Y-94055428D01*
X139565000Y-94198285D01*
X139565000Y-94626857D01*
X139493571Y-94769714D01*
X139422142Y-94841142D01*
X139279285Y-94912571D01*
X139065000Y-94912571D01*
X140207857Y-94912571D02*
X140207857Y-93412571D01*
X140350714Y-94341142D02*
X140779285Y-94912571D01*
X140779285Y-93912571D02*
X140207857Y-94484000D01*
X141636428Y-94912571D02*
X141493571Y-94841142D01*
X141422142Y-94769714D01*
X141350714Y-94626857D01*
X141350714Y-94198285D01*
X141422142Y-94055428D01*
X141493571Y-93984000D01*
X141636428Y-93912571D01*
X141850714Y-93912571D01*
X141993571Y-93984000D01*
X142065000Y-94055428D01*
X142136428Y-94198285D01*
X142136428Y-94626857D01*
X142065000Y-94769714D01*
X141993571Y-94841142D01*
X141850714Y-94912571D01*
X141636428Y-94912571D01*
X142779285Y-94769714D02*
X142850714Y-94841142D01*
X142779285Y-94912571D01*
X142707857Y-94841142D01*
X142779285Y-94769714D01*
X142779285Y-94912571D01*
X144065000Y-94841142D02*
X143922142Y-94912571D01*
X143636428Y-94912571D01*
X143493571Y-94841142D01*
X143422142Y-94698285D01*
X143422142Y-94126857D01*
X143493571Y-93984000D01*
X143636428Y-93912571D01*
X143922142Y-93912571D01*
X144065000Y-93984000D01*
X144136428Y-94126857D01*
X144136428Y-94269714D01*
X143422142Y-94412571D01*
X145422142Y-93912571D02*
X145422142Y-94912571D01*
X144779285Y-93912571D02*
X144779285Y-94698285D01*
X144850714Y-94841142D01*
X144993571Y-94912571D01*
X145207857Y-94912571D01*
X145350714Y-94841142D01*
X145422142Y-94769714D01*
D12*
X133350000Y-41234360D02*
X138049000Y-48219360D01*
X128651000Y-48219360D02*
X133350000Y-41234360D01*
X132450840Y-45626020D02*
X133649720Y-44825920D01*
X138049000Y-48219360D02*
X128651000Y-48219360D01*
X133250940Y-42626280D02*
X132450840Y-45626020D01*
X133649720Y-44825920D02*
X132852160Y-47625000D01*
X132450840Y-45626020D02*
X133751320Y-42824400D01*
X132852160Y-47625000D02*
X133451600Y-46926500D01*
X134051040Y-44526200D02*
X133451600Y-44924980D01*
X132852160Y-47625000D02*
X132750560Y-46725840D01*
X132852160Y-47625000D02*
X134051040Y-44526200D01*
D13*
X209145500Y-73660000D03*
X210970500Y-73660000D03*
D14*
X128524000Y-58674000D03*
D15*
X128524000Y-68834000D03*
D14*
X118872000Y-68834000D03*
D15*
X118872000Y-58674000D03*
D14*
X123698000Y-58674000D03*
D15*
X123698000Y-68834000D03*
D16*
X135557500Y-81468000D03*
X135557500Y-79568000D03*
X133682500Y-80518000D03*
D17*
X132675000Y-55372000D03*
X127675000Y-55372000D03*
D18*
X178562000Y-73810500D03*
X178562000Y-71985500D03*
D19*
X197358000Y-67413500D03*
X197358000Y-69238500D03*
D20*
X211415000Y-52070000D03*
X206415000Y-52070000D03*
D21*
X155585000Y-55880000D03*
D22*
X158125000Y-55880000D03*
X160665000Y-55880000D03*
X163205000Y-55880000D03*
D17*
X118785000Y-54864000D03*
X123785000Y-54864000D03*
X123785000Y-72136000D03*
X118785000Y-72136000D03*
X189940000Y-93000000D03*
X183440000Y-93000000D03*
X189940000Y-97500000D03*
X183440000Y-97500000D03*
D23*
X204368400Y-56248600D03*
X204368400Y-54698600D03*
D24*
X180340000Y-71741000D03*
X180340000Y-69991000D03*
D13*
X198071100Y-54914800D03*
X199896100Y-54914800D03*
D19*
X185420000Y-69699500D03*
X185420000Y-71524500D03*
D25*
X200810000Y-69530000D03*
X201810000Y-69530000D03*
X202810000Y-69530000D03*
X203810000Y-69530000D03*
X204810000Y-69530000D03*
X205810000Y-69530000D03*
X206810000Y-69530000D03*
X207810000Y-69530000D03*
X208810000Y-69530000D03*
X209810000Y-69530000D03*
D26*
X209735000Y-67405000D03*
X209735000Y-66405000D03*
X209735000Y-65405000D03*
X209735000Y-64405000D03*
X209735000Y-63405000D03*
D25*
X209810000Y-61280000D03*
X208810000Y-61280000D03*
X207810000Y-61280000D03*
X206810000Y-61280000D03*
X205810000Y-61280000D03*
X204810000Y-61280000D03*
X203810000Y-61280000D03*
X202810000Y-61280000D03*
X201810000Y-61280000D03*
X200810000Y-61280000D03*
D26*
X200885000Y-63405000D03*
X200885000Y-64405000D03*
X200885000Y-65405000D03*
X200885000Y-66405000D03*
X200885000Y-67405000D03*
D27*
X202260000Y-68155000D03*
X202260000Y-67055000D03*
X202260000Y-65955000D03*
X202260000Y-64855000D03*
X202260000Y-63755000D03*
X202260000Y-62655000D03*
X203590000Y-65980000D03*
X203590000Y-64830000D03*
X204740000Y-67130000D03*
X204740000Y-65980000D03*
X204740000Y-64830000D03*
X204740000Y-63680000D03*
X205890000Y-65980000D03*
X205890000Y-64830000D03*
X207040000Y-67130000D03*
X207040000Y-65980000D03*
X207040000Y-64830000D03*
X207040000Y-63680000D03*
D28*
X185420000Y-82540000D03*
D17*
X185420000Y-74940000D03*
D29*
X175895000Y-94475000D03*
X175895000Y-96025000D03*
D30*
X138430000Y-56742500D03*
X138430000Y-55017500D03*
D23*
X140462000Y-64516000D03*
X140462000Y-62966000D03*
D20*
X127362000Y-51562000D03*
D31*
X122282000Y-51562000D03*
D32*
X194805000Y-56515000D03*
X196355000Y-56515000D03*
D13*
X201017500Y-52070000D03*
X202842500Y-52070000D03*
D33*
X123444000Y-85468000D03*
X123444000Y-75568000D03*
D34*
X181635000Y-62470000D03*
X181635000Y-64770000D03*
D35*
X187935000Y-64770000D03*
D34*
X181635000Y-67070000D03*
D18*
X135890000Y-56792500D03*
X135890000Y-54967500D03*
X192786000Y-82700500D03*
X192786000Y-80875500D03*
D20*
X136125000Y-52070000D03*
D31*
X131045000Y-52070000D03*
D36*
X139596500Y-79502000D03*
X137771500Y-79502000D03*
D37*
X124445000Y-88900000D03*
D38*
X124445000Y-95200000D03*
D39*
X129245000Y-91800000D03*
D13*
X137771500Y-81280000D03*
X139596500Y-81280000D03*
D40*
X185420000Y-56366500D03*
X185420000Y-58441500D03*
D36*
X189647500Y-52705000D03*
X187822500Y-52705000D03*
X160678500Y-53086000D03*
X158853500Y-53086000D03*
D41*
X133617000Y-88392000D03*
X132067000Y-88392000D03*
D42*
X189142500Y-55017500D03*
X189142500Y-56742500D03*
D29*
X155575000Y-94335000D03*
X155575000Y-95885000D03*
D36*
X192822500Y-56515000D03*
X190997500Y-56515000D03*
D43*
X192242500Y-52390000D03*
X192242500Y-54290000D03*
X194117500Y-53340000D03*
D18*
X200660000Y-58697500D03*
X200660000Y-56872500D03*
D21*
X175895000Y-99060000D03*
D22*
X173355000Y-99060000D03*
X170815000Y-99060000D03*
X168275000Y-99060000D03*
X165735000Y-99060000D03*
D13*
X163171500Y-53086000D03*
X164996500Y-53086000D03*
D30*
X178435000Y-68807500D03*
X178435000Y-67082500D03*
D44*
X205740000Y-73195000D03*
D45*
X203200000Y-73195000D03*
X200660000Y-73195000D03*
X198120000Y-73195000D03*
D46*
X120650000Y-44450000D03*
X125730000Y-44450000D03*
X204470000Y-44450000D03*
X209550000Y-44450000D03*
D29*
X178435000Y-62090000D03*
X178435000Y-63640000D03*
D41*
X211074000Y-71882000D03*
X209524000Y-71882000D03*
D21*
X155575000Y-99060000D03*
D22*
X153035000Y-99060000D03*
X150495000Y-99060000D03*
X147955000Y-99060000D03*
X145415000Y-99060000D03*
D18*
X196355000Y-54887500D03*
X196355000Y-53062500D03*
D19*
X135636000Y-75795500D03*
X135636000Y-77620500D03*
D13*
X184507500Y-89916000D03*
X186332500Y-89916000D03*
D47*
X136515000Y-63007000D03*
D48*
X137785000Y-63007000D03*
X136515000Y-64277000D03*
X137785000Y-64277000D03*
X136515000Y-65547000D03*
X137785000Y-65547000D03*
X136515000Y-66817000D03*
X137785000Y-66817000D03*
X136515000Y-68087000D03*
X137785000Y-68087000D03*
D49*
X207518000Y-75438000D03*
X207810000Y-71590000D03*
X201676000Y-76708000D03*
X182372000Y-75946000D03*
X204343000Y-75692000D03*
X203708000Y-67818000D03*
X208026000Y-50038000D03*
X166370000Y-85090000D03*
X204724000Y-50038000D03*
X156210000Y-85090000D03*
X207518000Y-77978000D03*
X204470000Y-85090000D03*
X179070000Y-93980000D03*
X201930000Y-50800000D03*
X146050000Y-85090000D03*
X119380000Y-81280000D03*
X166370000Y-74930000D03*
X212344000Y-59436000D03*
X168910000Y-64770000D03*
X119380000Y-100330000D03*
X205994000Y-67310000D03*
X173990000Y-64770000D03*
X156210000Y-64770000D03*
X162560000Y-99060000D03*
X202692000Y-55626000D03*
X201930000Y-53340000D03*
X134620000Y-69850000D03*
X173990000Y-69850000D03*
X140970000Y-79248000D03*
X190549700Y-55017500D03*
X146050000Y-54610000D03*
X194310000Y-85090000D03*
X136906000Y-76708000D03*
X163830000Y-93980000D03*
X175514000Y-58674000D03*
X205994000Y-63500000D03*
X146050000Y-64770000D03*
X194310000Y-54610000D03*
X153670000Y-93980000D03*
X185420000Y-54864000D03*
X199390000Y-67310000D03*
X146050000Y-74930000D03*
X212090000Y-85090000D03*
X196088000Y-62992000D03*
X173990000Y-54610000D03*
X156210000Y-74930000D03*
X199390000Y-63246000D03*
X212344000Y-71628000D03*
X151130000Y-54610000D03*
X188722000Y-85090000D03*
X178435000Y-70637400D03*
X188214000Y-75946000D03*
X203708000Y-59690000D03*
X202692000Y-58928000D03*
X205105000Y-58547000D03*
X204724000Y-57404000D03*
X208026000Y-58928000D03*
X208280000Y-62992000D03*
X208788000Y-59944000D03*
X161839511Y-59140489D03*
X203581000Y-63119000D03*
X199390000Y-59944000D03*
X176276000Y-67056000D03*
X175347600Y-67070000D03*
X199059800Y-57480200D03*
X180594000Y-76200000D03*
X175260000Y-78994000D03*
X193167000Y-59690000D03*
X203454000Y-71120000D03*
D50*
X137785000Y-68087000D02*
X137785000Y-74031000D01*
D51*
X136515000Y-64277000D02*
X140223000Y-64277000D01*
X140223000Y-64277000D02*
X140462000Y-64516000D01*
X140462000Y-62966000D02*
X136556000Y-62966000D01*
X136556000Y-62966000D02*
X136515000Y-63007000D01*
D50*
X210970500Y-73660000D02*
X210970500Y-74271500D01*
X210970500Y-74271500D02*
X209804000Y-75438000D01*
X209804000Y-75438000D02*
X207518000Y-75438000D01*
D51*
X209145500Y-73660000D02*
X208562000Y-73660000D01*
X208562000Y-73660000D02*
X208097000Y-73195000D01*
X123698000Y-68834000D02*
X123698000Y-72049000D01*
X120650000Y-65786000D02*
X127254000Y-65786000D01*
X118872000Y-68834000D02*
X118872000Y-67564000D01*
X118872000Y-67564000D02*
X120650000Y-65786000D01*
X127254000Y-65786000D02*
X128524000Y-67056000D01*
X128524000Y-67056000D02*
X128524000Y-68834000D01*
X118785000Y-72136000D02*
X118785000Y-68921000D01*
X118785000Y-68921000D02*
X118872000Y-68834000D01*
X128524000Y-58674000D02*
X128524000Y-56221000D01*
X128524000Y-56221000D02*
X127675000Y-55372000D01*
X118872000Y-58674000D02*
X118872000Y-54951000D01*
X118872000Y-54951000D02*
X118785000Y-54864000D01*
X118872000Y-58674000D02*
X123825000Y-58674000D01*
X135557500Y-79568000D02*
X135557500Y-77699000D01*
X135557500Y-77699000D02*
X135636000Y-77620500D01*
D50*
X135557500Y-81468000D02*
X137583500Y-81468000D01*
X137583500Y-81468000D02*
X137771500Y-81280000D01*
D51*
X123444000Y-75568000D02*
X128732500Y-75568000D01*
X128732500Y-75568000D02*
X133682500Y-80518000D01*
X160678500Y-53086000D02*
X160678500Y-55866500D01*
D52*
X198882000Y-79502000D02*
X177546000Y-79502000D01*
X201676000Y-76708000D02*
X198882000Y-79502000D01*
D50*
X207810000Y-69530000D02*
X207810000Y-71590000D01*
D52*
X177546000Y-79502000D02*
X160665000Y-62621000D01*
D51*
X160678500Y-55866500D02*
X160665000Y-55880000D01*
D52*
X160665000Y-62621000D02*
X160665000Y-55880000D01*
D51*
X175895000Y-96025000D02*
X175895000Y-99060000D01*
D52*
X179565000Y-64770000D02*
X181635000Y-64770000D01*
D51*
X190982600Y-64795400D02*
X196355000Y-59423000D01*
D50*
X195072000Y-75692000D02*
X195072000Y-71270500D01*
D51*
X158242000Y-53086000D02*
X158125000Y-53203000D01*
D52*
X196355000Y-54887500D02*
X196355000Y-56515000D01*
D51*
X205740000Y-75539600D02*
X205740000Y-73195000D01*
X165100000Y-53086000D02*
X165252400Y-52933600D01*
X201482800Y-82540000D02*
X205740000Y-78282800D01*
X186334400Y-94030800D02*
X186334400Y-88138000D01*
X155575000Y-99060000D02*
X156972000Y-99060000D01*
D50*
X183388000Y-76962000D02*
X193802000Y-76962000D01*
D51*
X182372000Y-69596000D02*
X184632600Y-67335400D01*
X196355000Y-59423000D02*
X196355000Y-54887500D01*
X158125000Y-55880000D02*
X158125000Y-53203000D01*
D52*
X205740000Y-75438000D02*
X205740000Y-73195000D01*
D51*
X185420000Y-87223600D02*
X185420000Y-82540000D01*
X158125000Y-53203000D02*
X158125000Y-52695000D01*
X163880800Y-51562000D02*
X165252400Y-52933600D01*
X160007000Y-96025000D02*
X175895000Y-96025000D01*
D50*
X195072000Y-71270500D02*
X197104000Y-69238500D01*
D51*
X165252400Y-52933600D02*
X175958800Y-63640000D01*
X159258000Y-51562000D02*
X163880800Y-51562000D01*
X205740000Y-73195000D02*
X208097000Y-73195000D01*
X187935000Y-62205000D02*
X185420000Y-59690000D01*
D50*
X197104000Y-69238500D02*
X197358000Y-69238500D01*
D51*
X187935000Y-64770000D02*
X187935000Y-62205000D01*
D50*
X182372000Y-75946000D02*
X183388000Y-76962000D01*
D51*
X205740000Y-78282800D02*
X205740000Y-75539600D01*
X186334400Y-88138000D02*
X185420000Y-87223600D01*
X180848000Y-95250000D02*
X185115200Y-95250000D01*
D52*
X209810000Y-69530000D02*
X209810000Y-71355000D01*
D50*
X193802000Y-76962000D02*
X195072000Y-75692000D01*
D52*
X208810000Y-69530000D02*
X208810000Y-71155000D01*
D51*
X177038000Y-99060000D02*
X180848000Y-95250000D01*
X208097000Y-73195000D02*
X209410000Y-71882000D01*
D52*
X208810000Y-71155000D02*
X209410000Y-71755000D01*
D51*
X182372000Y-75946000D02*
X182372000Y-69596000D01*
X164996500Y-53086000D02*
X165100000Y-53086000D01*
X179590400Y-64795400D02*
X184632600Y-64795400D01*
X196382300Y-54914800D02*
X196355000Y-54887500D01*
X175958800Y-63640000D02*
X178435000Y-63640000D01*
X156972000Y-99060000D02*
X160007000Y-96025000D01*
X158125000Y-52695000D02*
X159258000Y-51562000D01*
X185115200Y-95250000D02*
X186334400Y-94030800D01*
X178435000Y-63640000D02*
X179590400Y-64795400D01*
D52*
X155575000Y-95885000D02*
X155575000Y-99060000D01*
D51*
X185420000Y-82540000D02*
X201482800Y-82540000D01*
D52*
X209810000Y-71355000D02*
X209410000Y-71755000D01*
X178435000Y-63640000D02*
X179565000Y-64770000D01*
D51*
X198071100Y-54914800D02*
X196382300Y-54914800D01*
X185420000Y-59690000D02*
X185420000Y-58441500D01*
X175895000Y-99060000D02*
X177038000Y-99060000D01*
X184632600Y-67335400D02*
X184632600Y-64795400D01*
X184632600Y-64795400D02*
X190982600Y-64795400D01*
X158853500Y-53086000D02*
X158242000Y-53086000D01*
D52*
X200810000Y-70716000D02*
X199390000Y-72136000D01*
D51*
X163171500Y-55846500D02*
X163205000Y-55880000D01*
D52*
X178816000Y-78486000D02*
X163205000Y-62875000D01*
X163205000Y-62875000D02*
X163205000Y-55880000D01*
X196850000Y-78486000D02*
X178816000Y-78486000D01*
X199390000Y-72136000D02*
X199390000Y-75946000D01*
D51*
X163171500Y-53086000D02*
X163171500Y-55846500D01*
D52*
X199390000Y-75946000D02*
X196850000Y-78486000D01*
X200810000Y-69530000D02*
X200810000Y-70716000D01*
D50*
X200787000Y-80875500D02*
X203938500Y-77724000D01*
X203938500Y-76096500D02*
X204343000Y-75692000D01*
X203938500Y-77724000D02*
X203938500Y-76096500D01*
X202945000Y-67055000D02*
X203708000Y-67818000D01*
X192786000Y-80875500D02*
X200787000Y-80875500D01*
X202260000Y-67055000D02*
X202945000Y-67055000D01*
D52*
X200810000Y-61280000D02*
X200810000Y-58847500D01*
X200810000Y-58847500D02*
X200660000Y-58697500D01*
D51*
X133968500Y-56792500D02*
X135890000Y-56792500D01*
D50*
X205890000Y-63604000D02*
X205994000Y-63500000D01*
D52*
X189142500Y-55017500D02*
X190549700Y-55017500D01*
D50*
X199485000Y-67405000D02*
X199390000Y-67310000D01*
D52*
X208391000Y-64405000D02*
X207465000Y-64405000D01*
X209735000Y-64405000D02*
X208391000Y-64405000D01*
X209735000Y-66405000D02*
X208423000Y-66405000D01*
D50*
X205810000Y-67494000D02*
X205994000Y-67310000D01*
D51*
X140716000Y-79502000D02*
X140970000Y-79248000D01*
X175514000Y-59944000D02*
X177660000Y-62090000D01*
D52*
X207040000Y-67130000D02*
X207040000Y-63680000D01*
D51*
X185420000Y-56366500D02*
X185420000Y-54864000D01*
D52*
X201445500Y-56872500D02*
X202692000Y-55626000D01*
D51*
X132675000Y-55372000D02*
X132675000Y-55499000D01*
X178435000Y-62090000D02*
X181255000Y-62090000D01*
D50*
X199549000Y-63405000D02*
X199390000Y-63246000D01*
D51*
X181255000Y-62090000D02*
X181635000Y-62470000D01*
D52*
X207465000Y-64405000D02*
X207040000Y-64830000D01*
D51*
X139596500Y-79502000D02*
X140716000Y-79502000D01*
D52*
X203590000Y-65980000D02*
X207040000Y-65980000D01*
X192822500Y-56515000D02*
X192822500Y-54870000D01*
D50*
X205890000Y-65980000D02*
X205890000Y-67206000D01*
X178435000Y-68807500D02*
X178435000Y-70637400D01*
D52*
X200660000Y-56872500D02*
X202715500Y-56872500D01*
D51*
X132675000Y-55499000D02*
X133968500Y-56792500D01*
D52*
X204740000Y-63680000D02*
X204740000Y-67130000D01*
X203744500Y-56872500D02*
X204368400Y-56248600D01*
X207040000Y-64830000D02*
X203590000Y-64830000D01*
D50*
X200885000Y-67405000D02*
X199485000Y-67405000D01*
D51*
X175514000Y-59944000D02*
X175514000Y-58674000D01*
D50*
X205890000Y-64830000D02*
X205890000Y-63604000D01*
D52*
X191515000Y-55017500D02*
X192242500Y-54290000D01*
D50*
X205890000Y-67206000D02*
X205994000Y-67310000D01*
D52*
X207465000Y-66405000D02*
X207040000Y-65980000D01*
D50*
X200885000Y-63405000D02*
X199549000Y-63405000D01*
X205810000Y-69530000D02*
X205810000Y-67494000D01*
D52*
X190549700Y-55017500D02*
X191515000Y-55017500D01*
X208423000Y-66405000D02*
X207465000Y-66405000D01*
X200660000Y-56872500D02*
X201445500Y-56872500D01*
X192822500Y-56515000D02*
X194805000Y-56515000D01*
X192822500Y-54870000D02*
X192242500Y-54290000D01*
X202715500Y-56872500D02*
X203744500Y-56872500D01*
D51*
X177660000Y-62090000D02*
X178435000Y-62090000D01*
D50*
X193548000Y-75946000D02*
X194310000Y-75184000D01*
D52*
X182388000Y-91948000D02*
X183440000Y-93000000D01*
D50*
X194310000Y-75184000D02*
X194310000Y-68580000D01*
X198485000Y-64405000D02*
X200885000Y-64405000D01*
D52*
X183440000Y-90983500D02*
X184507500Y-89916000D01*
X153162000Y-91948000D02*
X182388000Y-91948000D01*
D50*
X188214000Y-75946000D02*
X193548000Y-75946000D01*
X194310000Y-68580000D02*
X198485000Y-64405000D01*
D52*
X147955000Y-99060000D02*
X147955000Y-97155000D01*
X183440000Y-93000000D02*
X183440000Y-90983500D01*
X147955000Y-97155000D02*
X153162000Y-91948000D01*
D50*
X203810000Y-61280000D02*
X203810000Y-59792000D01*
X203810000Y-59792000D02*
X203708000Y-59690000D01*
X202810000Y-61280000D02*
X202810000Y-60316000D01*
X202692000Y-60198000D02*
X202692000Y-58928000D01*
X202810000Y-60316000D02*
X202692000Y-60198000D01*
D52*
X204810000Y-71034000D02*
X203200000Y-72644000D01*
X203200000Y-72644000D02*
X203200000Y-73195000D01*
X204810000Y-69530000D02*
X204810000Y-71034000D01*
D50*
X204978000Y-58674000D02*
X205105000Y-58547000D01*
X204810000Y-58842000D02*
X204978000Y-58674000D01*
X204810000Y-61280000D02*
X204810000Y-58842000D01*
X205810000Y-61280000D02*
X205810000Y-60128000D01*
X205810000Y-60128000D02*
X205994000Y-59944000D01*
X205994000Y-59944000D02*
X205994000Y-58166000D01*
X205994000Y-58166000D02*
X205232000Y-57404000D01*
X205232000Y-57404000D02*
X204724000Y-57404000D01*
X207810000Y-59144000D02*
X208026000Y-58928000D01*
X207810000Y-61280000D02*
X207810000Y-59144000D01*
X208810000Y-61280000D02*
X208810000Y-62462000D01*
X208810000Y-62462000D02*
X208280000Y-62992000D01*
X209810000Y-59950000D02*
X209550000Y-59690000D01*
X209550000Y-59690000D02*
X209042000Y-59690000D01*
X209810000Y-61280000D02*
X209810000Y-59950000D01*
X209042000Y-59690000D02*
X208788000Y-59944000D01*
D51*
X136125000Y-52070000D02*
X138533500Y-52070000D01*
D52*
X161839511Y-59140489D02*
X161839511Y-62525511D01*
X197866000Y-78994000D02*
X201810000Y-75050000D01*
X161839511Y-62525511D02*
X178308000Y-78994000D01*
D51*
X135890000Y-54967500D02*
X135890000Y-52305000D01*
D52*
X178308000Y-78994000D02*
X197866000Y-78994000D01*
X201810000Y-75050000D02*
X201810000Y-69530000D01*
D51*
X138430000Y-52173500D02*
X138430000Y-55017500D01*
X138533500Y-52070000D02*
X138430000Y-52173500D01*
X135890000Y-52305000D02*
X136125000Y-52070000D01*
D52*
X197866000Y-58420000D02*
X199390000Y-59944000D01*
D50*
X202945000Y-63755000D02*
X203581000Y-63119000D01*
D52*
X197866000Y-56946800D02*
X197866000Y-58420000D01*
X197993000Y-58547000D02*
X198501000Y-59055000D01*
X196355000Y-53062500D02*
X194395000Y-53062500D01*
X199034400Y-55778400D02*
X199034400Y-53949600D01*
X198147300Y-53062500D02*
X196355000Y-53062500D01*
D50*
X202260000Y-63755000D02*
X202945000Y-63755000D01*
D52*
X194395000Y-53062500D02*
X194117500Y-53340000D01*
X198501000Y-59055000D02*
X199390000Y-59944000D01*
X197866000Y-56946800D02*
X199034400Y-55778400D01*
X199034400Y-53949600D02*
X198147300Y-53062500D01*
D51*
X131826000Y-88392000D02*
X128902000Y-85468000D01*
D52*
X176290000Y-67070000D02*
X176276000Y-67056000D01*
D51*
X181635000Y-67070000D02*
X175347600Y-67070000D01*
X128902000Y-85468000D02*
X123444000Y-85468000D01*
D52*
X181635000Y-67070000D02*
X176516000Y-67070000D01*
X176516000Y-67070000D02*
X176290000Y-67070000D01*
D51*
X123444000Y-84960000D02*
X123444000Y-87899000D01*
X132067000Y-88392000D02*
X131826000Y-88392000D01*
X123444000Y-87899000D02*
X124445000Y-88900000D01*
D50*
X202260000Y-62655000D02*
X202101000Y-62655000D01*
D52*
X198374000Y-63500000D02*
X198374000Y-62992000D01*
D50*
X190744000Y-74940000D02*
X193030000Y-74940000D01*
X193548000Y-68326000D02*
X194183000Y-67691000D01*
D52*
X199136000Y-62230000D02*
X199898000Y-62230000D01*
D50*
X193030000Y-74940000D02*
X193548000Y-74422000D01*
D52*
X194183000Y-67691000D02*
X198374000Y-63500000D01*
D50*
X193548000Y-74422000D02*
X193548000Y-68326000D01*
D52*
X198374000Y-62992000D02*
X199136000Y-62230000D01*
X199898000Y-62230000D02*
X200152000Y-62484000D01*
D50*
X202101000Y-62655000D02*
X201930000Y-62484000D01*
D51*
X185420000Y-71524500D02*
X185420000Y-74940000D01*
D52*
X200152000Y-62484000D02*
X200660000Y-62484000D01*
D50*
X201930000Y-62484000D02*
X200660000Y-62484000D01*
X185420000Y-74940000D02*
X190744000Y-74940000D01*
D52*
X205994000Y-71628000D02*
X205232000Y-71628000D01*
X143002000Y-80010000D02*
X141732000Y-81280000D01*
X204470000Y-73787000D02*
X202819000Y-75438000D01*
X205232000Y-71628000D02*
X204470000Y-72390000D01*
X206810000Y-70812000D02*
X205994000Y-71628000D01*
X202819000Y-75438000D02*
X202819000Y-77851000D01*
X206810000Y-69530000D02*
X206810000Y-70812000D01*
X202819000Y-77851000D02*
X200660000Y-80010000D01*
X204470000Y-72390000D02*
X204470000Y-73787000D01*
X141732000Y-81280000D02*
X139596500Y-81280000D01*
X200660000Y-80010000D02*
X143002000Y-80010000D01*
X199364600Y-57785000D02*
X199059800Y-57480200D01*
X201810000Y-58427000D02*
X201168000Y-57785000D01*
X201168000Y-57785000D02*
X199364600Y-57785000D01*
X201810000Y-61280000D02*
X201810000Y-58427000D01*
D50*
X180848000Y-77978000D02*
X194818000Y-77978000D01*
X194818000Y-77978000D02*
X196596000Y-76200000D01*
X199390000Y-69088000D02*
X200152000Y-68326000D01*
X201676000Y-68326000D02*
X201847000Y-68155000D01*
X178562000Y-73810500D02*
X178562000Y-75692000D01*
X178562000Y-75692000D02*
X180848000Y-77978000D01*
X200152000Y-68326000D02*
X201676000Y-68326000D01*
X196596000Y-76200000D02*
X196596000Y-72644000D01*
X201847000Y-68155000D02*
X202260000Y-68155000D01*
X196596000Y-72644000D02*
X199390000Y-69850000D01*
X199390000Y-69850000D02*
X199390000Y-69088000D01*
D51*
X178562000Y-71985500D02*
X180095500Y-71985500D01*
X180095500Y-71985500D02*
X180340000Y-71741000D01*
D52*
X143002000Y-79248000D02*
X175006000Y-79248000D01*
X175006000Y-79248000D02*
X175260000Y-78994000D01*
D50*
X198374000Y-69850000D02*
X195834000Y-72390000D01*
D52*
X137785000Y-74031000D02*
X143002000Y-79248000D01*
D50*
X198374000Y-67024000D02*
X198374000Y-69850000D01*
X194310000Y-77470000D02*
X181864000Y-77470000D01*
X198993000Y-66405000D02*
X198374000Y-67024000D01*
X195834000Y-72390000D02*
X195834000Y-75946000D01*
X181864000Y-77470000D02*
X180594000Y-76200000D01*
X195834000Y-75946000D02*
X194310000Y-77470000D01*
X200885000Y-66405000D02*
X198993000Y-66405000D01*
X197358000Y-67056000D02*
X199009000Y-65405000D01*
X197358000Y-67413500D02*
X197358000Y-67056000D01*
X199009000Y-65405000D02*
X200885000Y-65405000D01*
D52*
X205194511Y-54647489D02*
X201662689Y-54647489D01*
X206810000Y-56262978D02*
X205194511Y-54647489D01*
X201395378Y-54914800D02*
X199896100Y-54914800D01*
X206810000Y-61280000D02*
X206810000Y-56262978D01*
X201662689Y-54647489D02*
X201395378Y-54914800D01*
D51*
X123785000Y-72136000D02*
X123785000Y-75227000D01*
X123785000Y-75227000D02*
X123444000Y-75568000D01*
X123444000Y-75060000D02*
X123828000Y-75060000D01*
X127362000Y-51562000D02*
X127362000Y-55059000D01*
X123785000Y-54864000D02*
X127167000Y-54864000D01*
X127362000Y-55059000D02*
X127675000Y-55372000D01*
X131045000Y-52070000D02*
X127870000Y-52070000D01*
X127167000Y-54864000D02*
X127675000Y-55372000D01*
X127870000Y-52070000D02*
X127362000Y-51562000D01*
X204470000Y-44450000D02*
X209550000Y-44450000D01*
X207605000Y-46395000D02*
X209550000Y-44450000D01*
X206415000Y-46395000D02*
X204470000Y-44450000D01*
X206415000Y-46395000D02*
X207605000Y-46395000D01*
X206415000Y-52070000D02*
X206415000Y-46395000D01*
X202842500Y-52070000D02*
X206415000Y-52070000D01*
D52*
X187822500Y-52705000D02*
X187822500Y-55422500D01*
X190997500Y-56515000D02*
X193167000Y-58684500D01*
X190997500Y-56515000D02*
X189370000Y-56515000D01*
D51*
X198755000Y-50800000D02*
X189230000Y-50800000D01*
D50*
X202810000Y-69530000D02*
X202810000Y-70240000D01*
D51*
X187822500Y-52207500D02*
X187822500Y-52705000D01*
D52*
X187822500Y-55422500D02*
X189142500Y-56742500D01*
D51*
X200025000Y-52070000D02*
X198755000Y-50800000D01*
X200025000Y-52070000D02*
X201017500Y-52070000D01*
X189230000Y-50800000D02*
X187822500Y-52207500D01*
D50*
X202810000Y-70240000D02*
X202810000Y-70476000D01*
D52*
X193167000Y-58684500D02*
X193167000Y-59690000D01*
D50*
X202810000Y-70476000D02*
X203454000Y-71120000D01*
X137771500Y-79502000D02*
X137771500Y-81280000D01*
D52*
X137644500Y-81407000D02*
X137771500Y-81280000D01*
X189962500Y-52390000D02*
X189647500Y-52705000D01*
X192242500Y-52390000D02*
X189962500Y-52390000D01*
D51*
X125730000Y-44450000D02*
X120650000Y-44450000D01*
X122282000Y-46082000D02*
X120650000Y-44450000D01*
X122282000Y-51562000D02*
X122282000Y-48787000D01*
X122282000Y-48787000D02*
X122282000Y-46082000D01*
X122282000Y-48787000D02*
X125730000Y-45339000D01*
X125730000Y-45339000D02*
X125730000Y-44450000D01*
%TA.AperFunction,Conductor*%
G36*
X213302121Y-49550002D02*
G01*
X213348614Y-49603658D01*
X213360000Y-49656000D01*
X213360000Y-60072000D01*
X213339998Y-60140121D01*
X213286342Y-60186614D01*
X213234000Y-60198000D01*
X211074000Y-60198000D01*
X211074000Y-70612000D01*
X213234000Y-70612000D01*
X213302121Y-70632002D01*
X213348614Y-70685658D01*
X213360000Y-70738000D01*
X213360000Y-101474000D01*
X213339998Y-101542121D01*
X213286342Y-101588614D01*
X213234000Y-101600000D01*
X116966000Y-101600000D01*
X116897879Y-101579998D01*
X116851386Y-101526342D01*
X116840000Y-101474000D01*
X116840000Y-99167655D01*
X136669858Y-99167655D01*
X136705104Y-99426638D01*
X136706412Y-99431124D01*
X136706412Y-99431126D01*
X136726098Y-99498664D01*
X136778243Y-99677567D01*
X136887668Y-99914928D01*
X136890231Y-99918837D01*
X137028410Y-100129596D01*
X137028414Y-100129601D01*
X137030976Y-100133509D01*
X137115216Y-100227892D01*
X137160513Y-100278642D01*
X137205018Y-100328506D01*
X137405970Y-100495637D01*
X137409973Y-100498066D01*
X137625422Y-100628804D01*
X137625426Y-100628806D01*
X137629419Y-100631229D01*
X137870455Y-100732303D01*
X138123783Y-100796641D01*
X138128434Y-100797109D01*
X138128438Y-100797110D01*
X138321308Y-100816531D01*
X138340867Y-100818500D01*
X138496354Y-100818500D01*
X138498679Y-100818327D01*
X138498685Y-100818327D01*
X138686000Y-100804407D01*
X138686004Y-100804406D01*
X138690652Y-100804061D01*
X138695200Y-100803032D01*
X138695206Y-100803031D01*
X138881601Y-100760853D01*
X138945577Y-100746377D01*
X138981769Y-100732303D01*
X139184824Y-100653340D01*
X139184827Y-100653339D01*
X139189177Y-100651647D01*
X139416098Y-100521951D01*
X139621357Y-100360138D01*
X139800443Y-100169763D01*
X139949424Y-99955009D01*
X139955105Y-99943489D01*
X140062960Y-99724781D01*
X140062961Y-99724778D01*
X140065025Y-99720593D01*
X140144707Y-99471665D01*
X140186721Y-99213693D01*
X140190142Y-98952345D01*
X140154896Y-98693362D01*
X140140473Y-98643877D01*
X140083068Y-98446932D01*
X140081757Y-98442433D01*
X140069498Y-98415840D01*
X139985030Y-98232617D01*
X139972332Y-98205072D01*
X139903237Y-98099684D01*
X139831590Y-97990404D01*
X139831586Y-97990399D01*
X139829024Y-97986491D01*
X139654982Y-97791494D01*
X139454030Y-97624363D01*
X139373506Y-97575500D01*
X139234578Y-97491196D01*
X139234574Y-97491194D01*
X139230581Y-97488771D01*
X138989545Y-97387697D01*
X138736217Y-97323359D01*
X138731566Y-97322891D01*
X138731562Y-97322890D01*
X138522271Y-97301816D01*
X138519133Y-97301500D01*
X138363646Y-97301500D01*
X138361321Y-97301673D01*
X138361315Y-97301673D01*
X138174000Y-97315593D01*
X138173996Y-97315594D01*
X138169348Y-97315939D01*
X138164800Y-97316968D01*
X138164794Y-97316969D01*
X137978399Y-97359147D01*
X137914423Y-97373623D01*
X137910071Y-97375315D01*
X137910069Y-97375316D01*
X137675176Y-97466660D01*
X137675173Y-97466661D01*
X137670823Y-97468353D01*
X137443902Y-97598049D01*
X137238643Y-97759862D01*
X137059557Y-97950237D01*
X136910576Y-98164991D01*
X136908510Y-98169181D01*
X136908508Y-98169184D01*
X136802006Y-98385150D01*
X136794975Y-98399407D01*
X136793553Y-98403850D01*
X136793552Y-98403852D01*
X136732591Y-98594297D01*
X136715293Y-98648335D01*
X136673279Y-98906307D01*
X136669858Y-99167655D01*
X116840000Y-99167655D01*
X116840000Y-96174500D01*
X131692715Y-96174500D01*
X146437286Y-96174500D01*
X146437286Y-92293500D01*
X131692715Y-92293500D01*
X131692715Y-96174500D01*
X116840000Y-96174500D01*
X116840000Y-86966134D01*
X120235500Y-86966134D01*
X120242255Y-87028316D01*
X120293385Y-87164705D01*
X120380739Y-87281261D01*
X120497295Y-87368615D01*
X120633684Y-87419745D01*
X120695866Y-87426500D01*
X121612468Y-87426500D01*
X121680589Y-87446502D01*
X121727082Y-87500158D01*
X121737186Y-87570432D01*
X121713294Y-87628065D01*
X121694385Y-87653295D01*
X121643255Y-87789684D01*
X121636500Y-87851866D01*
X121636500Y-89948134D01*
X121643255Y-90010316D01*
X121694385Y-90146705D01*
X121781739Y-90263261D01*
X121898295Y-90350615D01*
X122034684Y-90401745D01*
X122096866Y-90408500D01*
X126793134Y-90408500D01*
X126855316Y-90401745D01*
X126991705Y-90350615D01*
X127108261Y-90263261D01*
X127195615Y-90146705D01*
X127246745Y-90010316D01*
X127253500Y-89948134D01*
X127253500Y-87851866D01*
X127246745Y-87789684D01*
X127195615Y-87653295D01*
X127108261Y-87536739D01*
X126991705Y-87449385D01*
X126855316Y-87398255D01*
X126793134Y-87391500D01*
X126676532Y-87391500D01*
X126608411Y-87371498D01*
X126561918Y-87317842D01*
X126551814Y-87247568D01*
X126575706Y-87189935D01*
X126580617Y-87183382D01*
X126594615Y-87164705D01*
X126645745Y-87028316D01*
X126652500Y-86966134D01*
X126652500Y-86483500D01*
X126672502Y-86415379D01*
X126726158Y-86368886D01*
X126778500Y-86357500D01*
X128481367Y-86357500D01*
X128549488Y-86377502D01*
X128570462Y-86394405D01*
X131140509Y-88964451D01*
X131153349Y-88979484D01*
X131161331Y-88990470D01*
X131166233Y-88994883D01*
X131166234Y-88994885D01*
X131211073Y-89035258D01*
X131215857Y-89039799D01*
X131229994Y-89053936D01*
X131229567Y-89054363D01*
X131248859Y-89077463D01*
X131259392Y-89094484D01*
X131259398Y-89094492D01*
X131263248Y-89100713D01*
X131384298Y-89221552D01*
X131529899Y-89311302D01*
X131692243Y-89365149D01*
X131699080Y-89365849D01*
X131699082Y-89365850D01*
X131740401Y-89370083D01*
X131793268Y-89375500D01*
X132340732Y-89375500D01*
X132343978Y-89375163D01*
X132343982Y-89375163D01*
X132378083Y-89371625D01*
X132443019Y-89364887D01*
X132477737Y-89353304D01*
X132598324Y-89313073D01*
X132598326Y-89313072D01*
X132605268Y-89310756D01*
X132750713Y-89220752D01*
X132758455Y-89212997D01*
X132866381Y-89104882D01*
X132871552Y-89099702D01*
X132880473Y-89085230D01*
X132957462Y-88960331D01*
X132957463Y-88960329D01*
X132961302Y-88954101D01*
X133015149Y-88791757D01*
X133025500Y-88690732D01*
X133025500Y-88093268D01*
X133024965Y-88088105D01*
X133021625Y-88055917D01*
X133014887Y-87990981D01*
X132999800Y-87945760D01*
X132963073Y-87835676D01*
X132963072Y-87835674D01*
X132960756Y-87828732D01*
X132953522Y-87817041D01*
X132874606Y-87689515D01*
X132870752Y-87683287D01*
X132749702Y-87562448D01*
X132743471Y-87558607D01*
X132610331Y-87476538D01*
X132610329Y-87476537D01*
X132604101Y-87472698D01*
X132441757Y-87418851D01*
X132434920Y-87418151D01*
X132434918Y-87418150D01*
X132393599Y-87413917D01*
X132340732Y-87408500D01*
X132152632Y-87408500D01*
X132084511Y-87388498D01*
X132063537Y-87371595D01*
X129587489Y-84895546D01*
X129574652Y-84880518D01*
X129566669Y-84869530D01*
X129516937Y-84824751D01*
X129512153Y-84820210D01*
X129498006Y-84806063D01*
X129482446Y-84793463D01*
X129477425Y-84789175D01*
X129432619Y-84748830D01*
X129432615Y-84748827D01*
X129427715Y-84744415D01*
X129422005Y-84741119D01*
X129422002Y-84741116D01*
X129415955Y-84737625D01*
X129399670Y-84726432D01*
X129389125Y-84717893D01*
X129329520Y-84687523D01*
X129323724Y-84684376D01*
X129317975Y-84681057D01*
X129265785Y-84650925D01*
X129252875Y-84646730D01*
X129234616Y-84639167D01*
X129222524Y-84633006D01*
X129157906Y-84615691D01*
X129151582Y-84613818D01*
X129142981Y-84611023D01*
X129087956Y-84593145D01*
X129081389Y-84592455D01*
X129081385Y-84592454D01*
X129075712Y-84591858D01*
X129074470Y-84591728D01*
X129055028Y-84588125D01*
X129041915Y-84584611D01*
X129035318Y-84584265D01*
X129035316Y-84584265D01*
X128975113Y-84581110D01*
X128968539Y-84580593D01*
X128951895Y-84578844D01*
X128951891Y-84578844D01*
X128948620Y-84578500D01*
X128928593Y-84578500D01*
X128921999Y-84578327D01*
X128861782Y-84575171D01*
X128861778Y-84575171D01*
X128855190Y-84574826D01*
X128848675Y-84575858D01*
X128848673Y-84575858D01*
X128841786Y-84576949D01*
X128822075Y-84578500D01*
X126778500Y-84578500D01*
X126710379Y-84558498D01*
X126663886Y-84504842D01*
X126652500Y-84452500D01*
X126652500Y-83969866D01*
X126645745Y-83907684D01*
X126594615Y-83771295D01*
X126507261Y-83654739D01*
X126390705Y-83567385D01*
X126254316Y-83516255D01*
X126192134Y-83509500D01*
X120695866Y-83509500D01*
X120633684Y-83516255D01*
X120497295Y-83567385D01*
X120380739Y-83654739D01*
X120293385Y-83771295D01*
X120242255Y-83907684D01*
X120235500Y-83969866D01*
X120235500Y-86966134D01*
X116840000Y-86966134D01*
X116840000Y-80136000D01*
X116860002Y-80067879D01*
X116913658Y-80021386D01*
X116966000Y-80010000D01*
X131864367Y-80010000D01*
X131932488Y-80030002D01*
X131953462Y-80046905D01*
X132399595Y-80493038D01*
X132433621Y-80555350D01*
X132436500Y-80582133D01*
X132436500Y-80734502D01*
X132439438Y-80771831D01*
X132485855Y-80931601D01*
X132489892Y-80938427D01*
X132566509Y-81067980D01*
X132566511Y-81067983D01*
X132570547Y-81074807D01*
X132688193Y-81192453D01*
X132695017Y-81196489D01*
X132695020Y-81196491D01*
X132802589Y-81260107D01*
X132831399Y-81277145D01*
X132839010Y-81279356D01*
X132839012Y-81279357D01*
X132886988Y-81293295D01*
X132991169Y-81323562D01*
X132997574Y-81324066D01*
X132997579Y-81324067D01*
X133026042Y-81326307D01*
X133026050Y-81326307D01*
X133028498Y-81326500D01*
X133279727Y-81326500D01*
X133336930Y-81340233D01*
X133349234Y-81346502D01*
X133361975Y-81352994D01*
X133368348Y-81354702D01*
X133368349Y-81354702D01*
X133536209Y-81399680D01*
X133536213Y-81399681D01*
X133542585Y-81401388D01*
X133549177Y-81401733D01*
X133549180Y-81401734D01*
X133722718Y-81410829D01*
X133722723Y-81410829D01*
X133729310Y-81411174D01*
X133735825Y-81410142D01*
X133735827Y-81410142D01*
X133907467Y-81382957D01*
X133907469Y-81382957D01*
X133913988Y-81381924D01*
X134036571Y-81334869D01*
X134081724Y-81326500D01*
X134185500Y-81326500D01*
X134253621Y-81346502D01*
X134300114Y-81400158D01*
X134311500Y-81452500D01*
X134311500Y-81684502D01*
X134311693Y-81686950D01*
X134311693Y-81686958D01*
X134313617Y-81711395D01*
X134314438Y-81721831D01*
X134331027Y-81778931D01*
X134355901Y-81864548D01*
X134360855Y-81881601D01*
X134364892Y-81888427D01*
X134441509Y-82017980D01*
X134441511Y-82017983D01*
X134445547Y-82024807D01*
X134563193Y-82142453D01*
X134570017Y-82146489D01*
X134570020Y-82146491D01*
X134657471Y-82198209D01*
X134706399Y-82227145D01*
X134714010Y-82229356D01*
X134714012Y-82229357D01*
X134766231Y-82244528D01*
X134866169Y-82273562D01*
X134872574Y-82274066D01*
X134872579Y-82274067D01*
X134901042Y-82276307D01*
X134901050Y-82276307D01*
X134903498Y-82276500D01*
X136211502Y-82276500D01*
X136213950Y-82276307D01*
X136213958Y-82276307D01*
X136242421Y-82274067D01*
X136242426Y-82274066D01*
X136248831Y-82273562D01*
X136348769Y-82244528D01*
X136400988Y-82229357D01*
X136400990Y-82229356D01*
X136408601Y-82227145D01*
X136457529Y-82198209D01*
X136544980Y-82146491D01*
X136544983Y-82146489D01*
X136551807Y-82142453D01*
X136557416Y-82136844D01*
X136563675Y-82131989D01*
X136565339Y-82134134D01*
X136616167Y-82106379D01*
X136642950Y-82103500D01*
X137014720Y-82103500D01*
X137080836Y-82122240D01*
X137100132Y-82134134D01*
X137204080Y-82198209D01*
X137369191Y-82252974D01*
X137376027Y-82253674D01*
X137376030Y-82253675D01*
X137427526Y-82258951D01*
X137471928Y-82263500D01*
X138071072Y-82263500D01*
X138074318Y-82263163D01*
X138074322Y-82263163D01*
X138168235Y-82253419D01*
X138168239Y-82253418D01*
X138175093Y-82252707D01*
X138181629Y-82250526D01*
X138181631Y-82250526D01*
X138314395Y-82206232D01*
X138340107Y-82197654D01*
X138488031Y-82106116D01*
X138563599Y-82030416D01*
X138594747Y-81999214D01*
X138657030Y-81965135D01*
X138727850Y-81970138D01*
X138772937Y-81999059D01*
X138875812Y-82101754D01*
X138875817Y-82101758D01*
X138880997Y-82106929D01*
X138887227Y-82110769D01*
X138887228Y-82110770D01*
X138925132Y-82134134D01*
X139029080Y-82198209D01*
X139194191Y-82252974D01*
X139201027Y-82253674D01*
X139201030Y-82253675D01*
X139252526Y-82258951D01*
X139296928Y-82263500D01*
X139896072Y-82263500D01*
X139899318Y-82263163D01*
X139899322Y-82263163D01*
X139993235Y-82253419D01*
X139993239Y-82253418D01*
X140000093Y-82252707D01*
X140006629Y-82250526D01*
X140006631Y-82250526D01*
X140139395Y-82206232D01*
X140165107Y-82197654D01*
X140313031Y-82106116D01*
X140388599Y-82030416D01*
X140430758Y-81988184D01*
X140430762Y-81988179D01*
X140435929Y-81983003D01*
X140441857Y-81973386D01*
X140443886Y-81971559D01*
X140444307Y-81971027D01*
X140444398Y-81971099D01*
X140494628Y-81925892D01*
X140549118Y-81913500D01*
X141653233Y-81913500D01*
X141664416Y-81914027D01*
X141671909Y-81915702D01*
X141679835Y-81915453D01*
X141679836Y-81915453D01*
X141739986Y-81913562D01*
X141743945Y-81913500D01*
X141771856Y-81913500D01*
X141775791Y-81913003D01*
X141775856Y-81912995D01*
X141787693Y-81912062D01*
X141819951Y-81911048D01*
X141823970Y-81910922D01*
X141831889Y-81910673D01*
X141851343Y-81905021D01*
X141870700Y-81901013D01*
X141882930Y-81899468D01*
X141882931Y-81899468D01*
X141890797Y-81898474D01*
X141898168Y-81895555D01*
X141898170Y-81895555D01*
X141931912Y-81882196D01*
X141943142Y-81878351D01*
X141977983Y-81868229D01*
X141977984Y-81868229D01*
X141985593Y-81866018D01*
X141992412Y-81861985D01*
X141992417Y-81861983D01*
X142003028Y-81855707D01*
X142020776Y-81847012D01*
X142039617Y-81839552D01*
X142075387Y-81813564D01*
X142085307Y-81807048D01*
X142116535Y-81788580D01*
X142116538Y-81788578D01*
X142123362Y-81784542D01*
X142137683Y-81770221D01*
X142152717Y-81757380D01*
X142162694Y-81750131D01*
X142169107Y-81745472D01*
X142197298Y-81711395D01*
X142205288Y-81702616D01*
X143227499Y-80680405D01*
X143289811Y-80646379D01*
X143316594Y-80643500D01*
X191676500Y-80643500D01*
X191744621Y-80663502D01*
X191791114Y-80717158D01*
X191802500Y-80769500D01*
X191802500Y-81175072D01*
X191813293Y-81279093D01*
X191815474Y-81285629D01*
X191815474Y-81285631D01*
X191829045Y-81326307D01*
X191868346Y-81444107D01*
X191877066Y-81458198D01*
X191895903Y-81526650D01*
X191874741Y-81594420D01*
X191820300Y-81639990D01*
X191769921Y-81650500D01*
X187054500Y-81650500D01*
X186986379Y-81630498D01*
X186939886Y-81576842D01*
X186928500Y-81524500D01*
X186928500Y-81491866D01*
X186921745Y-81429684D01*
X186870615Y-81293295D01*
X186783261Y-81176739D01*
X186666705Y-81089385D01*
X186530316Y-81038255D01*
X186468134Y-81031500D01*
X184371866Y-81031500D01*
X184309684Y-81038255D01*
X184173295Y-81089385D01*
X184056739Y-81176739D01*
X183969385Y-81293295D01*
X183918255Y-81429684D01*
X183911500Y-81491866D01*
X183911500Y-83588134D01*
X183918255Y-83650316D01*
X183969385Y-83786705D01*
X184056739Y-83903261D01*
X184173295Y-83990615D01*
X184309684Y-84041745D01*
X184371866Y-84048500D01*
X184404500Y-84048500D01*
X184472621Y-84068502D01*
X184519114Y-84122158D01*
X184530500Y-84174500D01*
X184530500Y-87143675D01*
X184528949Y-87163385D01*
X184526826Y-87176790D01*
X184527171Y-87183378D01*
X184527171Y-87183382D01*
X184530327Y-87243599D01*
X184530500Y-87250193D01*
X184530500Y-87270220D01*
X184530844Y-87273491D01*
X184530844Y-87273495D01*
X184532593Y-87290139D01*
X184533110Y-87296713D01*
X184536611Y-87363515D01*
X184538320Y-87369892D01*
X184538320Y-87369893D01*
X184540124Y-87376623D01*
X184543728Y-87396070D01*
X184545145Y-87409556D01*
X184557062Y-87446233D01*
X184565818Y-87473182D01*
X184567691Y-87479506D01*
X184585006Y-87544124D01*
X184591167Y-87556216D01*
X184598730Y-87574475D01*
X184602925Y-87587385D01*
X184624091Y-87624045D01*
X184636376Y-87645324D01*
X184639523Y-87651120D01*
X184669893Y-87710725D01*
X184674050Y-87715858D01*
X184678432Y-87721270D01*
X184689625Y-87737555D01*
X184693116Y-87743602D01*
X184693119Y-87743605D01*
X184696415Y-87749315D01*
X184700827Y-87754215D01*
X184700830Y-87754219D01*
X184741175Y-87799025D01*
X184745463Y-87804046D01*
X184758063Y-87819606D01*
X184772210Y-87833753D01*
X184776751Y-87838537D01*
X184788753Y-87851866D01*
X184821530Y-87888269D01*
X184832518Y-87896252D01*
X184847546Y-87909089D01*
X185407995Y-88469538D01*
X185442021Y-88531850D01*
X185444900Y-88558633D01*
X185444900Y-89006765D01*
X185424898Y-89074886D01*
X185371242Y-89121379D01*
X185300968Y-89131483D01*
X185236388Y-89101989D01*
X185229882Y-89095938D01*
X185228183Y-89094242D01*
X185223003Y-89089071D01*
X185216772Y-89085230D01*
X185081150Y-89001631D01*
X185081148Y-89001630D01*
X185074920Y-88997791D01*
X184909809Y-88943026D01*
X184902973Y-88942326D01*
X184902970Y-88942325D01*
X184851474Y-88937049D01*
X184807072Y-88932500D01*
X184207928Y-88932500D01*
X184204682Y-88932837D01*
X184204678Y-88932837D01*
X184110765Y-88942581D01*
X184110761Y-88942582D01*
X184103907Y-88943293D01*
X184097371Y-88945474D01*
X184097369Y-88945474D01*
X184019465Y-88971465D01*
X183938893Y-88998346D01*
X183790969Y-89089884D01*
X183785796Y-89095066D01*
X183673242Y-89207816D01*
X183673238Y-89207821D01*
X183668071Y-89212997D01*
X183664231Y-89219227D01*
X183664230Y-89219228D01*
X183610186Y-89306904D01*
X183576791Y-89361080D01*
X183522026Y-89526191D01*
X183511500Y-89628928D01*
X183511500Y-89963905D01*
X183491498Y-90032026D01*
X183474595Y-90053000D01*
X183047747Y-90479848D01*
X183039461Y-90487388D01*
X183032982Y-90491500D01*
X183027557Y-90497277D01*
X182986357Y-90541151D01*
X182983602Y-90543993D01*
X182963865Y-90563730D01*
X182961385Y-90566927D01*
X182953682Y-90575947D01*
X182923414Y-90608179D01*
X182919595Y-90615125D01*
X182919593Y-90615128D01*
X182913652Y-90625934D01*
X182902801Y-90642453D01*
X182890386Y-90658459D01*
X182887241Y-90665728D01*
X182887238Y-90665732D01*
X182872826Y-90699037D01*
X182867609Y-90709687D01*
X182846305Y-90748440D01*
X182844334Y-90756115D01*
X182844334Y-90756116D01*
X182841267Y-90768062D01*
X182834863Y-90786766D01*
X182826819Y-90805355D01*
X182825580Y-90813178D01*
X182825577Y-90813188D01*
X182819901Y-90849024D01*
X182817495Y-90860644D01*
X182808472Y-90895789D01*
X182806500Y-90903470D01*
X182806500Y-90923724D01*
X182804949Y-90943434D01*
X182801780Y-90963443D01*
X182802526Y-90971335D01*
X182805941Y-91007461D01*
X182806500Y-91019319D01*
X182806500Y-91242599D01*
X182786498Y-91310720D01*
X182732842Y-91357213D01*
X182662568Y-91367317D01*
X182634119Y-91359752D01*
X182630006Y-91358123D01*
X182623060Y-91354305D01*
X182615384Y-91352334D01*
X182615381Y-91352333D01*
X182603438Y-91349267D01*
X182584734Y-91342863D01*
X182573420Y-91337967D01*
X182573419Y-91337967D01*
X182566145Y-91334819D01*
X182558322Y-91333580D01*
X182558312Y-91333577D01*
X182522476Y-91327901D01*
X182510856Y-91325495D01*
X182475711Y-91316472D01*
X182475710Y-91316472D01*
X182468030Y-91314500D01*
X182447776Y-91314500D01*
X182428065Y-91312949D01*
X182415886Y-91311020D01*
X182408057Y-91309780D01*
X182378786Y-91312547D01*
X182364039Y-91313941D01*
X182352181Y-91314500D01*
X153240767Y-91314500D01*
X153229584Y-91313973D01*
X153222091Y-91312298D01*
X153214165Y-91312547D01*
X153214164Y-91312547D01*
X153154014Y-91314438D01*
X153150055Y-91314500D01*
X153122144Y-91314500D01*
X153118210Y-91314997D01*
X153118209Y-91314997D01*
X153118144Y-91315005D01*
X153106307Y-91315938D01*
X153074049Y-91316952D01*
X153070030Y-91317078D01*
X153062111Y-91317327D01*
X153042657Y-91322979D01*
X153023300Y-91326987D01*
X153011070Y-91328532D01*
X153011069Y-91328532D01*
X153003203Y-91329526D01*
X152995832Y-91332445D01*
X152995830Y-91332445D01*
X152962088Y-91345804D01*
X152950858Y-91349649D01*
X152916017Y-91359771D01*
X152916016Y-91359771D01*
X152908407Y-91361982D01*
X152901588Y-91366015D01*
X152901583Y-91366017D01*
X152890972Y-91372293D01*
X152873224Y-91380988D01*
X152854383Y-91388448D01*
X152847967Y-91393110D01*
X152847966Y-91393110D01*
X152818613Y-91414436D01*
X152808693Y-91420952D01*
X152777465Y-91439420D01*
X152777462Y-91439422D01*
X152770638Y-91443458D01*
X152756317Y-91457779D01*
X152741284Y-91470619D01*
X152724893Y-91482528D01*
X152719842Y-91488634D01*
X152696702Y-91516605D01*
X152688712Y-91525384D01*
X147562747Y-96651348D01*
X147554461Y-96658888D01*
X147547982Y-96663000D01*
X147542557Y-96668777D01*
X147501357Y-96712651D01*
X147498602Y-96715493D01*
X147478865Y-96735230D01*
X147476385Y-96738427D01*
X147468682Y-96747447D01*
X147438414Y-96779679D01*
X147434595Y-96786625D01*
X147434593Y-96786628D01*
X147428652Y-96797434D01*
X147417801Y-96813953D01*
X147405386Y-96829959D01*
X147402241Y-96837228D01*
X147402238Y-96837232D01*
X147387826Y-96870537D01*
X147382609Y-96881187D01*
X147361305Y-96919940D01*
X147359334Y-96927615D01*
X147359334Y-96927616D01*
X147356267Y-96939562D01*
X147349863Y-96958266D01*
X147341819Y-96976855D01*
X147340580Y-96984678D01*
X147340577Y-96984688D01*
X147334901Y-97020524D01*
X147332495Y-97032144D01*
X147321500Y-97074970D01*
X147321500Y-97095224D01*
X147319949Y-97114934D01*
X147316780Y-97134943D01*
X147317526Y-97142835D01*
X147320941Y-97178961D01*
X147321500Y-97190819D01*
X147321500Y-97781692D01*
X147301498Y-97849813D01*
X147253683Y-97893453D01*
X147228607Y-97906507D01*
X147224474Y-97909610D01*
X147224471Y-97909612D01*
X147054100Y-98037530D01*
X147049965Y-98040635D01*
X147010525Y-98081907D01*
X146927121Y-98169184D01*
X146895629Y-98202138D01*
X146769743Y-98386680D01*
X146675688Y-98589305D01*
X146615989Y-98804570D01*
X146592251Y-99026695D01*
X146592548Y-99031848D01*
X146592548Y-99031851D01*
X146600646Y-99172289D01*
X146605110Y-99249715D01*
X146606247Y-99254761D01*
X146606248Y-99254767D01*
X146630304Y-99361508D01*
X146654222Y-99467639D01*
X146686723Y-99547680D01*
X146733503Y-99662885D01*
X146738266Y-99674616D01*
X146775685Y-99735678D01*
X146852291Y-99860688D01*
X146854987Y-99865088D01*
X146858367Y-99868990D01*
X146867138Y-99879116D01*
X147001250Y-100033938D01*
X147173126Y-100176632D01*
X147366000Y-100289338D01*
X147574692Y-100369030D01*
X147579760Y-100370061D01*
X147579763Y-100370062D01*
X147687017Y-100391883D01*
X147793597Y-100413567D01*
X147798772Y-100413757D01*
X147798774Y-100413757D01*
X148011673Y-100421564D01*
X148011677Y-100421564D01*
X148016837Y-100421753D01*
X148021957Y-100421097D01*
X148021959Y-100421097D01*
X148233288Y-100394025D01*
X148233289Y-100394025D01*
X148238416Y-100393368D01*
X148243366Y-100391883D01*
X148447429Y-100330661D01*
X148447434Y-100330659D01*
X148452384Y-100329174D01*
X148652994Y-100230896D01*
X148834860Y-100101173D01*
X148993096Y-99943489D01*
X149000768Y-99932813D01*
X149123453Y-99762077D01*
X149124776Y-99763028D01*
X149171645Y-99719857D01*
X149241580Y-99707625D01*
X149307026Y-99735144D01*
X149334875Y-99766994D01*
X149345042Y-99783585D01*
X149394987Y-99865088D01*
X149398367Y-99868990D01*
X149407138Y-99879116D01*
X149541250Y-100033938D01*
X149713126Y-100176632D01*
X149906000Y-100289338D01*
X150114692Y-100369030D01*
X150119760Y-100370061D01*
X150119763Y-100370062D01*
X150227017Y-100391883D01*
X150333597Y-100413567D01*
X150338772Y-100413757D01*
X150338774Y-100413757D01*
X150551673Y-100421564D01*
X150551677Y-100421564D01*
X150556837Y-100421753D01*
X150561957Y-100421097D01*
X150561959Y-100421097D01*
X150773288Y-100394025D01*
X150773289Y-100394025D01*
X150778416Y-100393368D01*
X150783366Y-100391883D01*
X150987429Y-100330661D01*
X150987434Y-100330659D01*
X150992384Y-100329174D01*
X151192994Y-100230896D01*
X151374860Y-100101173D01*
X151533096Y-99943489D01*
X151540768Y-99932813D01*
X151663453Y-99762077D01*
X151664776Y-99763028D01*
X151711645Y-99719857D01*
X151781580Y-99707625D01*
X151847026Y-99735144D01*
X151874875Y-99766994D01*
X151885042Y-99783585D01*
X151934987Y-99865088D01*
X151938367Y-99868990D01*
X151947138Y-99879116D01*
X152081250Y-100033938D01*
X152253126Y-100176632D01*
X152446000Y-100289338D01*
X152654692Y-100369030D01*
X152659760Y-100370061D01*
X152659763Y-100370062D01*
X152767017Y-100391883D01*
X152873597Y-100413567D01*
X152878772Y-100413757D01*
X152878774Y-100413757D01*
X153091673Y-100421564D01*
X153091677Y-100421564D01*
X153096837Y-100421753D01*
X153101957Y-100421097D01*
X153101959Y-100421097D01*
X153313288Y-100394025D01*
X153313289Y-100394025D01*
X153318416Y-100393368D01*
X153323366Y-100391883D01*
X153527429Y-100330661D01*
X153527434Y-100330659D01*
X153532384Y-100329174D01*
X153732994Y-100230896D01*
X153914860Y-100101173D01*
X154023091Y-99993319D01*
X154085462Y-99959404D01*
X154156268Y-99964592D01*
X154213030Y-100007238D01*
X154230012Y-100038341D01*
X154274385Y-100156705D01*
X154361739Y-100273261D01*
X154478295Y-100360615D01*
X154614684Y-100411745D01*
X154676866Y-100418500D01*
X156473134Y-100418500D01*
X156535316Y-100411745D01*
X156671705Y-100360615D01*
X156788261Y-100273261D01*
X156875615Y-100156705D01*
X156919988Y-100038341D01*
X156923270Y-100029586D01*
X156965912Y-99972822D01*
X157028080Y-99948506D01*
X157038535Y-99947407D01*
X157045113Y-99946890D01*
X157105316Y-99943735D01*
X157105318Y-99943735D01*
X157111915Y-99943389D01*
X157125028Y-99939875D01*
X157144470Y-99936272D01*
X157145712Y-99936142D01*
X157151385Y-99935546D01*
X157151389Y-99935545D01*
X157157956Y-99934855D01*
X157221581Y-99914182D01*
X157227906Y-99912309D01*
X157235359Y-99910312D01*
X157292524Y-99894994D01*
X157304616Y-99888833D01*
X157322875Y-99881270D01*
X157335785Y-99877075D01*
X157393724Y-99843624D01*
X157399520Y-99840477D01*
X157459125Y-99810107D01*
X157469670Y-99801568D01*
X157485955Y-99790375D01*
X157492002Y-99786884D01*
X157492005Y-99786881D01*
X157497715Y-99783585D01*
X157502615Y-99779173D01*
X157502619Y-99779170D01*
X157547425Y-99738825D01*
X157552446Y-99734537D01*
X157565441Y-99724014D01*
X157568006Y-99721937D01*
X157582153Y-99707790D01*
X157586937Y-99703249D01*
X157631766Y-99662885D01*
X157631767Y-99662883D01*
X157636669Y-99658470D01*
X157644652Y-99647482D01*
X157657489Y-99632454D01*
X160338538Y-96951405D01*
X160400850Y-96917379D01*
X160427633Y-96914500D01*
X174879500Y-96914500D01*
X174947621Y-96934502D01*
X174994114Y-96988158D01*
X175005500Y-97040500D01*
X175005500Y-97594379D01*
X174985498Y-97662500D01*
X174931842Y-97708993D01*
X174923730Y-97712361D01*
X174846907Y-97741161D01*
X174798295Y-97759385D01*
X174681739Y-97846739D01*
X174594385Y-97963295D01*
X174591233Y-97971703D01*
X174549919Y-98081907D01*
X174507277Y-98138671D01*
X174440716Y-98163371D01*
X174371367Y-98148163D01*
X174338743Y-98122476D01*
X174288151Y-98066875D01*
X174288142Y-98066866D01*
X174284670Y-98063051D01*
X174280619Y-98059852D01*
X174280615Y-98059848D01*
X174113414Y-97927800D01*
X174113410Y-97927798D01*
X174109359Y-97924598D01*
X174104831Y-97922098D01*
X174052945Y-97893456D01*
X173913789Y-97816638D01*
X173908920Y-97814914D01*
X173908916Y-97814912D01*
X173708087Y-97743795D01*
X173708083Y-97743794D01*
X173703212Y-97742069D01*
X173698119Y-97741162D01*
X173698116Y-97741161D01*
X173488373Y-97703800D01*
X173488367Y-97703799D01*
X173483284Y-97702894D01*
X173409452Y-97701992D01*
X173265081Y-97700228D01*
X173265079Y-97700228D01*
X173259911Y-97700165D01*
X173039091Y-97733955D01*
X172826756Y-97803357D01*
X172754836Y-97840796D01*
X172652975Y-97893822D01*
X172628607Y-97906507D01*
X172624474Y-97909610D01*
X172624471Y-97909612D01*
X172454100Y-98037530D01*
X172449965Y-98040635D01*
X172410525Y-98081907D01*
X172327121Y-98169184D01*
X172295629Y-98202138D01*
X172188201Y-98359621D01*
X172133293Y-98404621D01*
X172062768Y-98412792D01*
X171999021Y-98381538D01*
X171978324Y-98357054D01*
X171897822Y-98232617D01*
X171897820Y-98232614D01*
X171895014Y-98228277D01*
X171744670Y-98063051D01*
X171740619Y-98059852D01*
X171740615Y-98059848D01*
X171573414Y-97927800D01*
X171573410Y-97927798D01*
X171569359Y-97924598D01*
X171564831Y-97922098D01*
X171512945Y-97893456D01*
X171373789Y-97816638D01*
X171368920Y-97814914D01*
X171368916Y-97814912D01*
X171168087Y-97743795D01*
X171168083Y-97743794D01*
X171163212Y-97742069D01*
X171158119Y-97741162D01*
X171158116Y-97741161D01*
X170948373Y-97703800D01*
X170948367Y-97703799D01*
X170943284Y-97702894D01*
X170869452Y-97701992D01*
X170725081Y-97700228D01*
X170725079Y-97700228D01*
X170719911Y-97700165D01*
X170499091Y-97733955D01*
X170286756Y-97803357D01*
X170214836Y-97840796D01*
X170112975Y-97893822D01*
X170088607Y-97906507D01*
X170084474Y-97909610D01*
X170084471Y-97909612D01*
X169914100Y-98037530D01*
X169909965Y-98040635D01*
X169870525Y-98081907D01*
X169787121Y-98169184D01*
X169755629Y-98202138D01*
X169648201Y-98359621D01*
X169593293Y-98404621D01*
X169522768Y-98412792D01*
X169459021Y-98381538D01*
X169438324Y-98357054D01*
X169357822Y-98232617D01*
X169357820Y-98232614D01*
X169355014Y-98228277D01*
X169204670Y-98063051D01*
X169200619Y-98059852D01*
X169200615Y-98059848D01*
X169033414Y-97927800D01*
X169033410Y-97927798D01*
X169029359Y-97924598D01*
X169024831Y-97922098D01*
X168972945Y-97893456D01*
X168833789Y-97816638D01*
X168828920Y-97814914D01*
X168828916Y-97814912D01*
X168628087Y-97743795D01*
X168628083Y-97743794D01*
X168623212Y-97742069D01*
X168618119Y-97741162D01*
X168618116Y-97741161D01*
X168408373Y-97703800D01*
X168408367Y-97703799D01*
X168403284Y-97702894D01*
X168329452Y-97701992D01*
X168185081Y-97700228D01*
X168185079Y-97700228D01*
X168179911Y-97700165D01*
X167959091Y-97733955D01*
X167746756Y-97803357D01*
X167674836Y-97840796D01*
X167572975Y-97893822D01*
X167548607Y-97906507D01*
X167544474Y-97909610D01*
X167544471Y-97909612D01*
X167374100Y-98037530D01*
X167369965Y-98040635D01*
X167330525Y-98081907D01*
X167247121Y-98169184D01*
X167215629Y-98202138D01*
X167089743Y-98386680D01*
X166995688Y-98589305D01*
X166935989Y-98804570D01*
X166912251Y-99026695D01*
X166912548Y-99031848D01*
X166912548Y-99031851D01*
X166920646Y-99172289D01*
X166925110Y-99249715D01*
X166926247Y-99254761D01*
X166926248Y-99254767D01*
X166950304Y-99361508D01*
X166974222Y-99467639D01*
X167006723Y-99547680D01*
X167053503Y-99662885D01*
X167058266Y-99674616D01*
X167095685Y-99735678D01*
X167172291Y-99860688D01*
X167174987Y-99865088D01*
X167178367Y-99868990D01*
X167187138Y-99879116D01*
X167321250Y-100033938D01*
X167493126Y-100176632D01*
X167686000Y-100289338D01*
X167894692Y-100369030D01*
X167899760Y-100370061D01*
X167899763Y-100370062D01*
X168007017Y-100391883D01*
X168113597Y-100413567D01*
X168118772Y-100413757D01*
X168118774Y-100413757D01*
X168331673Y-100421564D01*
X168331677Y-100421564D01*
X168336837Y-100421753D01*
X168341957Y-100421097D01*
X168341959Y-100421097D01*
X168553288Y-100394025D01*
X168553289Y-100394025D01*
X168558416Y-100393368D01*
X168563366Y-100391883D01*
X168767429Y-100330661D01*
X168767434Y-100330659D01*
X168772384Y-100329174D01*
X168972994Y-100230896D01*
X169154860Y-100101173D01*
X169313096Y-99943489D01*
X169320768Y-99932813D01*
X169443453Y-99762077D01*
X169444776Y-99763028D01*
X169491645Y-99719857D01*
X169561580Y-99707625D01*
X169627026Y-99735144D01*
X169654875Y-99766994D01*
X169665042Y-99783585D01*
X169714987Y-99865088D01*
X169718367Y-99868990D01*
X169727138Y-99879116D01*
X169861250Y-100033938D01*
X170033126Y-100176632D01*
X170226000Y-100289338D01*
X170434692Y-100369030D01*
X170439760Y-100370061D01*
X170439763Y-100370062D01*
X170547017Y-100391883D01*
X170653597Y-100413567D01*
X170658772Y-100413757D01*
X170658774Y-100413757D01*
X170871673Y-100421564D01*
X170871677Y-100421564D01*
X170876837Y-100421753D01*
X170881957Y-100421097D01*
X170881959Y-100421097D01*
X171093288Y-100394025D01*
X171093289Y-100394025D01*
X171098416Y-100393368D01*
X171103366Y-100391883D01*
X171307429Y-100330661D01*
X171307434Y-100330659D01*
X171312384Y-100329174D01*
X171512994Y-100230896D01*
X171694860Y-100101173D01*
X171853096Y-99943489D01*
X171860768Y-99932813D01*
X171983453Y-99762077D01*
X171984776Y-99763028D01*
X172031645Y-99719857D01*
X172101580Y-99707625D01*
X172167026Y-99735144D01*
X172194875Y-99766994D01*
X172205042Y-99783585D01*
X172254987Y-99865088D01*
X172258367Y-99868990D01*
X172267138Y-99879116D01*
X172401250Y-100033938D01*
X172573126Y-100176632D01*
X172766000Y-100289338D01*
X172974692Y-100369030D01*
X172979760Y-100370061D01*
X172979763Y-100370062D01*
X173087017Y-100391883D01*
X173193597Y-100413567D01*
X173198772Y-100413757D01*
X173198774Y-100413757D01*
X173411673Y-100421564D01*
X173411677Y-100421564D01*
X173416837Y-100421753D01*
X173421957Y-100421097D01*
X173421959Y-100421097D01*
X173633288Y-100394025D01*
X173633289Y-100394025D01*
X173638416Y-100393368D01*
X173643366Y-100391883D01*
X173847429Y-100330661D01*
X173847434Y-100330659D01*
X173852384Y-100329174D01*
X174052994Y-100230896D01*
X174234860Y-100101173D01*
X174343091Y-99993319D01*
X174405462Y-99959404D01*
X174476268Y-99964592D01*
X174533030Y-100007238D01*
X174550012Y-100038341D01*
X174594385Y-100156705D01*
X174681739Y-100273261D01*
X174798295Y-100360615D01*
X174934684Y-100411745D01*
X174996866Y-100418500D01*
X176793134Y-100418500D01*
X176855316Y-100411745D01*
X176991705Y-100360615D01*
X177108261Y-100273261D01*
X177195615Y-100156705D01*
X177246745Y-100020316D01*
X177248099Y-100007852D01*
X177275343Y-99942291D01*
X177333707Y-99901866D01*
X177340741Y-99899759D01*
X177358524Y-99894994D01*
X177370616Y-99888833D01*
X177388875Y-99881270D01*
X177401785Y-99877075D01*
X177459724Y-99843624D01*
X177465520Y-99840477D01*
X177525125Y-99810107D01*
X177535670Y-99801568D01*
X177551955Y-99790375D01*
X177558002Y-99786884D01*
X177558005Y-99786881D01*
X177563715Y-99783585D01*
X177568615Y-99779173D01*
X177568619Y-99779170D01*
X177613425Y-99738825D01*
X177618446Y-99734537D01*
X177631441Y-99724014D01*
X177634006Y-99721937D01*
X177648153Y-99707790D01*
X177652937Y-99703249D01*
X177697766Y-99662885D01*
X177697767Y-99662883D01*
X177702669Y-99658470D01*
X177710652Y-99647482D01*
X177723489Y-99632454D01*
X178188288Y-99167655D01*
X209059858Y-99167655D01*
X209095104Y-99426638D01*
X209096412Y-99431124D01*
X209096412Y-99431126D01*
X209116098Y-99498664D01*
X209168243Y-99677567D01*
X209277668Y-99914928D01*
X209280231Y-99918837D01*
X209418410Y-100129596D01*
X209418414Y-100129601D01*
X209420976Y-100133509D01*
X209505216Y-100227892D01*
X209550513Y-100278642D01*
X209595018Y-100328506D01*
X209795970Y-100495637D01*
X209799973Y-100498066D01*
X210015422Y-100628804D01*
X210015426Y-100628806D01*
X210019419Y-100631229D01*
X210260455Y-100732303D01*
X210513783Y-100796641D01*
X210518434Y-100797109D01*
X210518438Y-100797110D01*
X210711308Y-100816531D01*
X210730867Y-100818500D01*
X210886354Y-100818500D01*
X210888679Y-100818327D01*
X210888685Y-100818327D01*
X211076000Y-100804407D01*
X211076004Y-100804406D01*
X211080652Y-100804061D01*
X211085200Y-100803032D01*
X211085206Y-100803031D01*
X211271601Y-100760853D01*
X211335577Y-100746377D01*
X211371769Y-100732303D01*
X211574824Y-100653340D01*
X211574827Y-100653339D01*
X211579177Y-100651647D01*
X211806098Y-100521951D01*
X212011357Y-100360138D01*
X212190443Y-100169763D01*
X212339424Y-99955009D01*
X212345105Y-99943489D01*
X212452960Y-99724781D01*
X212452961Y-99724778D01*
X212455025Y-99720593D01*
X212534707Y-99471665D01*
X212576721Y-99213693D01*
X212580142Y-98952345D01*
X212544896Y-98693362D01*
X212530473Y-98643877D01*
X212473068Y-98446932D01*
X212471757Y-98442433D01*
X212459498Y-98415840D01*
X212375030Y-98232617D01*
X212362332Y-98205072D01*
X212293237Y-98099684D01*
X212221590Y-97990404D01*
X212221586Y-97990399D01*
X212219024Y-97986491D01*
X212044982Y-97791494D01*
X211844030Y-97624363D01*
X211763506Y-97575500D01*
X211624578Y-97491196D01*
X211624574Y-97491194D01*
X211620581Y-97488771D01*
X211379545Y-97387697D01*
X211126217Y-97323359D01*
X211121566Y-97322891D01*
X211121562Y-97322890D01*
X210912271Y-97301816D01*
X210909133Y-97301500D01*
X210753646Y-97301500D01*
X210751321Y-97301673D01*
X210751315Y-97301673D01*
X210564000Y-97315593D01*
X210563996Y-97315594D01*
X210559348Y-97315939D01*
X210554800Y-97316968D01*
X210554794Y-97316969D01*
X210368399Y-97359147D01*
X210304423Y-97373623D01*
X210300071Y-97375315D01*
X210300069Y-97375316D01*
X210065176Y-97466660D01*
X210065173Y-97466661D01*
X210060823Y-97468353D01*
X209833902Y-97598049D01*
X209628643Y-97759862D01*
X209449557Y-97950237D01*
X209300576Y-98164991D01*
X209298510Y-98169181D01*
X209298508Y-98169184D01*
X209192006Y-98385150D01*
X209184975Y-98399407D01*
X209183553Y-98403850D01*
X209183552Y-98403852D01*
X209122591Y-98594297D01*
X209105293Y-98648335D01*
X209063279Y-98906307D01*
X209059858Y-99167655D01*
X178188288Y-99167655D01*
X181179538Y-96176405D01*
X181241850Y-96142379D01*
X181268633Y-96139500D01*
X185035275Y-96139500D01*
X185054986Y-96141051D01*
X185061873Y-96142142D01*
X185061875Y-96142142D01*
X185068390Y-96143174D01*
X185074978Y-96142829D01*
X185074982Y-96142829D01*
X185135199Y-96139673D01*
X185141793Y-96139500D01*
X185161820Y-96139500D01*
X185165091Y-96139156D01*
X185165095Y-96139156D01*
X185181739Y-96137407D01*
X185188313Y-96136890D01*
X185248516Y-96133735D01*
X185248518Y-96133735D01*
X185255115Y-96133389D01*
X185268228Y-96129875D01*
X185287670Y-96126272D01*
X185288912Y-96126142D01*
X185294585Y-96125546D01*
X185294589Y-96125545D01*
X185301156Y-96124855D01*
X185364781Y-96104182D01*
X185371106Y-96102309D01*
X185378559Y-96100312D01*
X185435724Y-96084994D01*
X185447816Y-96078833D01*
X185466075Y-96071270D01*
X185478985Y-96067075D01*
X185536924Y-96033624D01*
X185542720Y-96030477D01*
X185602325Y-96000107D01*
X185612870Y-95991568D01*
X185629155Y-95980375D01*
X185635202Y-95976884D01*
X185635205Y-95976881D01*
X185640915Y-95973585D01*
X185645815Y-95969173D01*
X185645819Y-95969170D01*
X185690625Y-95928825D01*
X185695646Y-95924537D01*
X185708641Y-95914014D01*
X185711206Y-95911937D01*
X185725353Y-95897790D01*
X185730137Y-95893249D01*
X185774966Y-95852885D01*
X185774967Y-95852883D01*
X185779869Y-95848470D01*
X185787852Y-95837482D01*
X185800689Y-95822454D01*
X186906854Y-94716289D01*
X186921882Y-94703452D01*
X186932870Y-94695469D01*
X186977649Y-94645737D01*
X186982190Y-94640953D01*
X186996337Y-94626806D01*
X187008937Y-94611246D01*
X187013225Y-94606225D01*
X187053570Y-94561419D01*
X187053573Y-94561415D01*
X187057985Y-94556515D01*
X187061281Y-94550805D01*
X187061284Y-94550802D01*
X187064775Y-94544755D01*
X187075968Y-94528470D01*
X187077632Y-94526415D01*
X187084507Y-94517925D01*
X187114884Y-94458307D01*
X187118031Y-94452512D01*
X187125772Y-94439105D01*
X187151475Y-94394585D01*
X187155669Y-94381678D01*
X187163232Y-94363421D01*
X187166395Y-94357213D01*
X187166398Y-94357205D01*
X187169394Y-94351325D01*
X187186710Y-94286699D01*
X187188581Y-94280382D01*
X187207216Y-94223031D01*
X187209255Y-94216756D01*
X187209946Y-94210186D01*
X187210675Y-94203256D01*
X187214276Y-94183823D01*
X187216079Y-94177093D01*
X187217788Y-94170715D01*
X187221289Y-94103920D01*
X187221806Y-94097346D01*
X187223556Y-94080693D01*
X187223900Y-94077420D01*
X187223900Y-94057386D01*
X187224073Y-94050792D01*
X187227229Y-93990582D01*
X187227229Y-93990577D01*
X187227574Y-93983990D01*
X187225451Y-93970585D01*
X187223900Y-93950875D01*
X187223900Y-93000000D01*
X188426835Y-93000000D01*
X188445465Y-93236711D01*
X188500895Y-93467594D01*
X188502788Y-93472165D01*
X188502789Y-93472167D01*
X188588167Y-93678288D01*
X188591760Y-93686963D01*
X188594346Y-93691183D01*
X188713241Y-93885202D01*
X188713245Y-93885208D01*
X188715824Y-93889416D01*
X188870031Y-94069969D01*
X189050584Y-94224176D01*
X189054792Y-94226755D01*
X189054798Y-94226759D01*
X189123948Y-94269134D01*
X189253037Y-94348240D01*
X189257607Y-94350133D01*
X189257611Y-94350135D01*
X189467833Y-94437211D01*
X189472406Y-94439105D01*
X189540184Y-94455377D01*
X189698476Y-94493380D01*
X189698482Y-94493381D01*
X189703289Y-94494535D01*
X189940000Y-94513165D01*
X190176711Y-94494535D01*
X190181518Y-94493381D01*
X190181524Y-94493380D01*
X190339816Y-94455377D01*
X190407594Y-94439105D01*
X190412167Y-94437211D01*
X190622389Y-94350135D01*
X190622393Y-94350133D01*
X190626963Y-94348240D01*
X190756052Y-94269134D01*
X190825202Y-94226759D01*
X190825208Y-94226755D01*
X190829416Y-94224176D01*
X191009969Y-94069969D01*
X191164176Y-93889416D01*
X191166755Y-93885208D01*
X191166759Y-93885202D01*
X191285654Y-93691183D01*
X191288240Y-93686963D01*
X191291834Y-93678288D01*
X191377211Y-93472167D01*
X191377212Y-93472165D01*
X191379105Y-93467594D01*
X191434535Y-93236711D01*
X191453165Y-93000000D01*
X191434535Y-92763289D01*
X191425447Y-92725432D01*
X191395693Y-92601502D01*
X191379105Y-92532406D01*
X191288240Y-92313037D01*
X191276268Y-92293500D01*
X191166759Y-92114798D01*
X191166755Y-92114792D01*
X191164176Y-92110584D01*
X191009969Y-91930031D01*
X190829416Y-91775824D01*
X190825208Y-91773245D01*
X190825202Y-91773241D01*
X190631183Y-91654346D01*
X190626963Y-91651760D01*
X190622393Y-91649867D01*
X190622389Y-91649865D01*
X190412167Y-91562789D01*
X190412165Y-91562788D01*
X190407594Y-91560895D01*
X190327391Y-91541640D01*
X190181524Y-91506620D01*
X190181518Y-91506619D01*
X190176711Y-91505465D01*
X189940000Y-91486835D01*
X189703289Y-91505465D01*
X189698482Y-91506619D01*
X189698476Y-91506620D01*
X189552609Y-91541640D01*
X189472406Y-91560895D01*
X189467835Y-91562788D01*
X189467833Y-91562789D01*
X189257611Y-91649865D01*
X189257607Y-91649867D01*
X189253037Y-91651760D01*
X189248817Y-91654346D01*
X189054798Y-91773241D01*
X189054792Y-91773245D01*
X189050584Y-91775824D01*
X188870031Y-91930031D01*
X188715824Y-92110584D01*
X188713245Y-92114792D01*
X188713241Y-92114798D01*
X188603732Y-92293500D01*
X188591760Y-92313037D01*
X188500895Y-92532406D01*
X188484307Y-92601502D01*
X188454554Y-92725432D01*
X188445465Y-92763289D01*
X188426835Y-93000000D01*
X187223900Y-93000000D01*
X187223900Y-90570405D01*
X187242640Y-90504289D01*
X187259369Y-90477150D01*
X187259370Y-90477148D01*
X187263209Y-90470920D01*
X187317974Y-90305809D01*
X187328500Y-90203072D01*
X187328500Y-89628928D01*
X187317707Y-89524907D01*
X187262654Y-89359893D01*
X187242754Y-89327735D01*
X187223900Y-89261435D01*
X187223900Y-88217925D01*
X187225451Y-88198214D01*
X187226542Y-88191327D01*
X187226542Y-88191325D01*
X187227574Y-88184810D01*
X187224073Y-88118001D01*
X187223900Y-88111407D01*
X187223900Y-88091380D01*
X187221807Y-88071461D01*
X187221290Y-88064887D01*
X187218135Y-88004684D01*
X187218135Y-88004682D01*
X187217789Y-87998085D01*
X187214275Y-87984972D01*
X187210672Y-87965529D01*
X187209946Y-87958615D01*
X187209945Y-87958611D01*
X187209255Y-87952044D01*
X187188582Y-87888418D01*
X187186709Y-87882094D01*
X187175037Y-87838537D01*
X187169394Y-87817476D01*
X187163233Y-87805384D01*
X187155669Y-87787123D01*
X187153516Y-87780497D01*
X187151475Y-87774215D01*
X187118024Y-87716276D01*
X187114877Y-87710480D01*
X187112004Y-87704841D01*
X187084507Y-87650875D01*
X187075968Y-87640330D01*
X187064775Y-87624045D01*
X187061284Y-87617998D01*
X187061281Y-87617995D01*
X187057985Y-87612285D01*
X187053573Y-87607385D01*
X187053570Y-87607381D01*
X187013225Y-87562575D01*
X187008937Y-87557554D01*
X186998414Y-87544559D01*
X186996337Y-87541994D01*
X186982190Y-87527847D01*
X186977649Y-87523063D01*
X186937285Y-87478234D01*
X186937283Y-87478233D01*
X186932870Y-87473331D01*
X186921882Y-87465348D01*
X186906854Y-87452511D01*
X186346405Y-86892062D01*
X186312379Y-86829750D01*
X186309500Y-86802967D01*
X186309500Y-84174500D01*
X186329502Y-84106379D01*
X186383158Y-84059886D01*
X186435500Y-84048500D01*
X186468134Y-84048500D01*
X186530316Y-84041745D01*
X186666705Y-83990615D01*
X186783261Y-83903261D01*
X186870615Y-83786705D01*
X186921745Y-83650316D01*
X186928500Y-83588134D01*
X186928500Y-83555500D01*
X186948502Y-83487379D01*
X187002158Y-83440886D01*
X187054500Y-83429500D01*
X191920248Y-83429500D01*
X191988369Y-83449502D01*
X192009265Y-83466327D01*
X192077812Y-83534754D01*
X192077817Y-83534758D01*
X192082997Y-83539929D01*
X192089227Y-83543769D01*
X192089228Y-83543770D01*
X192166711Y-83591531D01*
X192231080Y-83631209D01*
X192396191Y-83685974D01*
X192403027Y-83686674D01*
X192403030Y-83686675D01*
X192454526Y-83691951D01*
X192498928Y-83696500D01*
X193073072Y-83696500D01*
X193076318Y-83696163D01*
X193076322Y-83696163D01*
X193170235Y-83686419D01*
X193170239Y-83686418D01*
X193177093Y-83685707D01*
X193183629Y-83683526D01*
X193183631Y-83683526D01*
X193316395Y-83639232D01*
X193342107Y-83630654D01*
X193490031Y-83539116D01*
X193495204Y-83533934D01*
X193495209Y-83533930D01*
X193562538Y-83466483D01*
X193624820Y-83432403D01*
X193651711Y-83429500D01*
X201402875Y-83429500D01*
X201422586Y-83431051D01*
X201429473Y-83432142D01*
X201429475Y-83432142D01*
X201435990Y-83433174D01*
X201442578Y-83432829D01*
X201442582Y-83432829D01*
X201502799Y-83429673D01*
X201509393Y-83429500D01*
X201529420Y-83429500D01*
X201532691Y-83429156D01*
X201532695Y-83429156D01*
X201549339Y-83427407D01*
X201555913Y-83426890D01*
X201616116Y-83423735D01*
X201616118Y-83423735D01*
X201622715Y-83423389D01*
X201635828Y-83419875D01*
X201655270Y-83416272D01*
X201656512Y-83416142D01*
X201662185Y-83415546D01*
X201662189Y-83415545D01*
X201668756Y-83414855D01*
X201732381Y-83394182D01*
X201738706Y-83392309D01*
X201746159Y-83390312D01*
X201803324Y-83374994D01*
X201815416Y-83368833D01*
X201833675Y-83361270D01*
X201846585Y-83357075D01*
X201904524Y-83323624D01*
X201910320Y-83320477D01*
X201969925Y-83290107D01*
X201980470Y-83281568D01*
X201996755Y-83270375D01*
X202002802Y-83266884D01*
X202002805Y-83266881D01*
X202008515Y-83263585D01*
X202013415Y-83259173D01*
X202013419Y-83259170D01*
X202058225Y-83218825D01*
X202063246Y-83214537D01*
X202076241Y-83204014D01*
X202078806Y-83201937D01*
X202092953Y-83187790D01*
X202097737Y-83183249D01*
X202142566Y-83142885D01*
X202142567Y-83142883D01*
X202147469Y-83138470D01*
X202155452Y-83127482D01*
X202168289Y-83112454D01*
X206312454Y-78968289D01*
X206327482Y-78955452D01*
X206338470Y-78947469D01*
X206345500Y-78939662D01*
X206383249Y-78897737D01*
X206387790Y-78892953D01*
X206401937Y-78878806D01*
X206414537Y-78863246D01*
X206418825Y-78858225D01*
X206459170Y-78813419D01*
X206459173Y-78813415D01*
X206463585Y-78808515D01*
X206466881Y-78802805D01*
X206466884Y-78802802D01*
X206470375Y-78796755D01*
X206481568Y-78780470D01*
X206485950Y-78775058D01*
X206490107Y-78769925D01*
X206520477Y-78710320D01*
X206523624Y-78704524D01*
X206540159Y-78675884D01*
X206557075Y-78646585D01*
X206561270Y-78633675D01*
X206568833Y-78615416D01*
X206574994Y-78603324D01*
X206592309Y-78538706D01*
X206594182Y-78532382D01*
X206612813Y-78475040D01*
X206614855Y-78468756D01*
X206616272Y-78455270D01*
X206619876Y-78435823D01*
X206621680Y-78429093D01*
X206621680Y-78429092D01*
X206623389Y-78422715D01*
X206626890Y-78355913D01*
X206627407Y-78349339D01*
X206629156Y-78332695D01*
X206629156Y-78332691D01*
X206629500Y-78329420D01*
X206629500Y-78309393D01*
X206629673Y-78302799D01*
X206632829Y-78242582D01*
X206632829Y-78242578D01*
X206633174Y-78235990D01*
X206631051Y-78222585D01*
X206629500Y-78202875D01*
X206629500Y-76137192D01*
X206649502Y-76069071D01*
X206703158Y-76022578D01*
X206773432Y-76012474D01*
X206838012Y-76041968D01*
X206849125Y-76052870D01*
X206906747Y-76116866D01*
X206979922Y-76170031D01*
X207048865Y-76220121D01*
X207061248Y-76229118D01*
X207067276Y-76231802D01*
X207067278Y-76231803D01*
X207229681Y-76304109D01*
X207235712Y-76306794D01*
X207313136Y-76323251D01*
X207416056Y-76345128D01*
X207416061Y-76345128D01*
X207422513Y-76346500D01*
X207613487Y-76346500D01*
X207619939Y-76345128D01*
X207619944Y-76345128D01*
X207722864Y-76323251D01*
X207800288Y-76306794D01*
X207806319Y-76304109D01*
X207968722Y-76231803D01*
X207968724Y-76231802D01*
X207974752Y-76229118D01*
X207987136Y-76220121D01*
X208110505Y-76130487D01*
X208129253Y-76116866D01*
X208133668Y-76111963D01*
X208138580Y-76107540D01*
X208140221Y-76109362D01*
X208191210Y-76077950D01*
X208224399Y-76073500D01*
X209724980Y-76073500D01*
X209736214Y-76074030D01*
X209743719Y-76075708D01*
X209812012Y-76073562D01*
X209815969Y-76073500D01*
X209843983Y-76073500D01*
X209847908Y-76073004D01*
X209847909Y-76073004D01*
X209848004Y-76072992D01*
X209859849Y-76072059D01*
X209889670Y-76071122D01*
X209896282Y-76070914D01*
X209896283Y-76070914D01*
X209904205Y-76070665D01*
X209923749Y-76064987D01*
X209943112Y-76060977D01*
X209955440Y-76059420D01*
X209955442Y-76059420D01*
X209963299Y-76058427D01*
X209970663Y-76055511D01*
X209970668Y-76055510D01*
X210004556Y-76042093D01*
X210015785Y-76038248D01*
X210032465Y-76033402D01*
X210058393Y-76025869D01*
X210065220Y-76021831D01*
X210065223Y-76021830D01*
X210075906Y-76015512D01*
X210093664Y-76006812D01*
X210105215Y-76002239D01*
X210105221Y-76002235D01*
X210112588Y-75999319D01*
X210148491Y-75973234D01*
X210158410Y-75966719D01*
X210189768Y-75948174D01*
X210189772Y-75948171D01*
X210196598Y-75944134D01*
X210210982Y-75929750D01*
X210226016Y-75916909D01*
X210236073Y-75909602D01*
X210242487Y-75904942D01*
X210270778Y-75870744D01*
X210278767Y-75861965D01*
X211363983Y-74776750D01*
X211372309Y-74769174D01*
X211378803Y-74765053D01*
X211425586Y-74715234D01*
X211428340Y-74712393D01*
X211448139Y-74692594D01*
X211450568Y-74689463D01*
X211450572Y-74689458D01*
X211450639Y-74689372D01*
X211458347Y-74680347D01*
X211483291Y-74653785D01*
X211483294Y-74653781D01*
X211488717Y-74648006D01*
X211492536Y-74641060D01*
X211492539Y-74641055D01*
X211498522Y-74630172D01*
X211509374Y-74613649D01*
X211521696Y-74597764D01*
X211554949Y-74567851D01*
X211680803Y-74489970D01*
X211687031Y-74486116D01*
X211698587Y-74474540D01*
X211804758Y-74368184D01*
X211804762Y-74368179D01*
X211809929Y-74363003D01*
X211824362Y-74339588D01*
X211897369Y-74221150D01*
X211897370Y-74221148D01*
X211901209Y-74214920D01*
X211955974Y-74049809D01*
X211966500Y-73947072D01*
X211966500Y-73372928D01*
X211965177Y-73360176D01*
X211956419Y-73275765D01*
X211956418Y-73275761D01*
X211955707Y-73268907D01*
X211947091Y-73243080D01*
X211902972Y-73110841D01*
X211900654Y-73103893D01*
X211809116Y-72955969D01*
X211751100Y-72898054D01*
X211691184Y-72838242D01*
X211691179Y-72838238D01*
X211686003Y-72833071D01*
X211679772Y-72829230D01*
X211544150Y-72745631D01*
X211544148Y-72745630D01*
X211537920Y-72741791D01*
X211372809Y-72687026D01*
X211365973Y-72686326D01*
X211365970Y-72686325D01*
X211314474Y-72681049D01*
X211270072Y-72676500D01*
X210670928Y-72676500D01*
X210667682Y-72676837D01*
X210667678Y-72676837D01*
X210573765Y-72686581D01*
X210573761Y-72686582D01*
X210566907Y-72687293D01*
X210560374Y-72689473D01*
X210560363Y-72689475D01*
X210520399Y-72702809D01*
X210449450Y-72705395D01*
X210388365Y-72669211D01*
X210356540Y-72605747D01*
X210364078Y-72535152D01*
X210373262Y-72517170D01*
X210414462Y-72450331D01*
X210414463Y-72450329D01*
X210418302Y-72444101D01*
X210472149Y-72281757D01*
X210482500Y-72180732D01*
X210482500Y-71583268D01*
X210471887Y-71480981D01*
X210453427Y-71425649D01*
X210447078Y-71382263D01*
X210448219Y-71375057D01*
X210444059Y-71331046D01*
X210443500Y-71319189D01*
X210443500Y-70591066D01*
X210463502Y-70522945D01*
X210493932Y-70490242D01*
X210523261Y-70468261D01*
X210610615Y-70351705D01*
X210661745Y-70215316D01*
X210668500Y-70153134D01*
X210668500Y-68906866D01*
X210661745Y-68844684D01*
X210610615Y-68708295D01*
X210523261Y-68591739D01*
X210406705Y-68504385D01*
X210398300Y-68501234D01*
X210398298Y-68501233D01*
X210395265Y-68500096D01*
X210392931Y-68499221D01*
X210336167Y-68456582D01*
X210311465Y-68390021D01*
X210326671Y-68320672D01*
X210376956Y-68270552D01*
X210408012Y-68258657D01*
X210412468Y-68257598D01*
X210420316Y-68256745D01*
X210427705Y-68253975D01*
X210427709Y-68253974D01*
X210548297Y-68208767D01*
X210556705Y-68205615D01*
X210673261Y-68118261D01*
X210760615Y-68001705D01*
X210811745Y-67865316D01*
X210818500Y-67803134D01*
X210818500Y-67006866D01*
X210811745Y-66944684D01*
X210760615Y-66808295D01*
X210673261Y-66691739D01*
X210556705Y-66604385D01*
X210420316Y-66553255D01*
X210358134Y-66546500D01*
X209111866Y-66546500D01*
X209049684Y-66553255D01*
X208913295Y-66604385D01*
X208796739Y-66691739D01*
X208709385Y-66808295D01*
X208658255Y-66944684D01*
X208651500Y-67006866D01*
X208651500Y-67803134D01*
X208658255Y-67865316D01*
X208709385Y-68001705D01*
X208796739Y-68118261D01*
X208913295Y-68205615D01*
X208921696Y-68208764D01*
X208923918Y-68209981D01*
X208974064Y-68260240D01*
X208989077Y-68329631D01*
X208964191Y-68396123D01*
X208907307Y-68438605D01*
X208863408Y-68446500D01*
X208411866Y-68446500D01*
X208349684Y-68453255D01*
X208342285Y-68456029D01*
X208339146Y-68456775D01*
X208280854Y-68456775D01*
X208277715Y-68456029D01*
X208270316Y-68453255D01*
X208208134Y-68446500D01*
X207411866Y-68446500D01*
X207349684Y-68453255D01*
X207342285Y-68456029D01*
X207339146Y-68456775D01*
X207280854Y-68456775D01*
X207277715Y-68456029D01*
X207270316Y-68453255D01*
X207208134Y-68446500D01*
X206411866Y-68446500D01*
X206349684Y-68453255D01*
X206213295Y-68504385D01*
X206096739Y-68591739D01*
X206009385Y-68708295D01*
X205958255Y-68844684D01*
X205951500Y-68906866D01*
X205951500Y-70153134D01*
X205958255Y-70215316D01*
X206009385Y-70351705D01*
X206066272Y-70427609D01*
X206096739Y-70468261D01*
X206094973Y-70469585D01*
X206123117Y-70521126D01*
X206118052Y-70591941D01*
X206089091Y-70637004D01*
X205768500Y-70957595D01*
X205706188Y-70991621D01*
X205679405Y-70994500D01*
X205569500Y-70994500D01*
X205501379Y-70974498D01*
X205454886Y-70920842D01*
X205443500Y-70868500D01*
X205443500Y-70591066D01*
X205463502Y-70522945D01*
X205493932Y-70490242D01*
X205523261Y-70468261D01*
X205610615Y-70351705D01*
X205661745Y-70215316D01*
X205668500Y-70153134D01*
X205668500Y-68906866D01*
X205661745Y-68844684D01*
X205610615Y-68708295D01*
X205523261Y-68591739D01*
X205406705Y-68504385D01*
X205270316Y-68453255D01*
X205208134Y-68446500D01*
X204612418Y-68446500D01*
X204544297Y-68426498D01*
X204497804Y-68372842D01*
X204487700Y-68302568D01*
X204503297Y-68257503D01*
X204542527Y-68189556D01*
X204601542Y-68007928D01*
X204602383Y-67999933D01*
X204620814Y-67824565D01*
X204621504Y-67818000D01*
X204615406Y-67759977D01*
X204602232Y-67634635D01*
X204602232Y-67634633D01*
X204601542Y-67628072D01*
X204542527Y-67446444D01*
X204447040Y-67281056D01*
X204425919Y-67257598D01*
X204323675Y-67144045D01*
X204323674Y-67144044D01*
X204319253Y-67139134D01*
X204184890Y-67041513D01*
X204170094Y-67030763D01*
X204170093Y-67030762D01*
X204164752Y-67026882D01*
X204158724Y-67024198D01*
X204158722Y-67024197D01*
X203996319Y-66951891D01*
X203996318Y-66951891D01*
X203990288Y-66949206D01*
X203896888Y-66929353D01*
X203809944Y-66910872D01*
X203809939Y-66910872D01*
X203803487Y-66909500D01*
X203750423Y-66909500D01*
X203682302Y-66889498D01*
X203661328Y-66872595D01*
X203450250Y-66661517D01*
X203442674Y-66653191D01*
X203438553Y-66646697D01*
X203388734Y-66599914D01*
X203385893Y-66597160D01*
X203366094Y-66577361D01*
X203362969Y-66574937D01*
X203362960Y-66574929D01*
X203362874Y-66574863D01*
X203353849Y-66567155D01*
X203339047Y-66553255D01*
X203321506Y-66536783D01*
X203303669Y-66526977D01*
X203287153Y-66516127D01*
X203271067Y-66503650D01*
X203230334Y-66486024D01*
X203219686Y-66480807D01*
X203183798Y-66461077D01*
X203133740Y-66410731D01*
X203118500Y-66350663D01*
X203118500Y-65803134D01*
X208651500Y-65803134D01*
X208658255Y-65865316D01*
X208709385Y-66001705D01*
X208796739Y-66118261D01*
X208913295Y-66205615D01*
X209049684Y-66256745D01*
X209111866Y-66263500D01*
X210358134Y-66263500D01*
X210420316Y-66256745D01*
X210556705Y-66205615D01*
X210673261Y-66118261D01*
X210760615Y-66001705D01*
X210811745Y-65865316D01*
X210818500Y-65803134D01*
X210818500Y-65006866D01*
X210811745Y-64944684D01*
X210760615Y-64808295D01*
X210673261Y-64691739D01*
X210556705Y-64604385D01*
X210420316Y-64553255D01*
X210358134Y-64546500D01*
X209111866Y-64546500D01*
X209049684Y-64553255D01*
X208913295Y-64604385D01*
X208796739Y-64691739D01*
X208709385Y-64808295D01*
X208658255Y-64944684D01*
X208651500Y-65006866D01*
X208651500Y-65803134D01*
X203118500Y-65803134D01*
X203118500Y-65556866D01*
X203117266Y-65545506D01*
X203112598Y-65502534D01*
X203112598Y-65502532D01*
X203111745Y-65494684D01*
X203103246Y-65472012D01*
X203094705Y-65449229D01*
X203089522Y-65378422D01*
X203094705Y-65360771D01*
X203108973Y-65322711D01*
X203108973Y-65322709D01*
X203111745Y-65315316D01*
X203118500Y-65253134D01*
X203118500Y-64459558D01*
X203138502Y-64391437D01*
X203193778Y-64344500D01*
X203199393Y-64342869D01*
X203206212Y-64338836D01*
X203206219Y-64338833D01*
X203216906Y-64332512D01*
X203234664Y-64323812D01*
X203246215Y-64319239D01*
X203246221Y-64319235D01*
X203253588Y-64316319D01*
X203270525Y-64304014D01*
X203289488Y-64290236D01*
X203299410Y-64283719D01*
X203330768Y-64265174D01*
X203330772Y-64265171D01*
X203337598Y-64261134D01*
X203351982Y-64246750D01*
X203367016Y-64233909D01*
X203377073Y-64226602D01*
X203383487Y-64221942D01*
X203411778Y-64187744D01*
X203419767Y-64178965D01*
X203534327Y-64064405D01*
X203596639Y-64030379D01*
X203623422Y-64027500D01*
X203676487Y-64027500D01*
X203682939Y-64026128D01*
X203682944Y-64026128D01*
X203777772Y-64005971D01*
X203863288Y-63987794D01*
X203923992Y-63960767D01*
X204031722Y-63912803D01*
X204031724Y-63912802D01*
X204037752Y-63910118D01*
X204052879Y-63899128D01*
X204105640Y-63860794D01*
X204192253Y-63797866D01*
X204224925Y-63761580D01*
X204315621Y-63660852D01*
X204315622Y-63660851D01*
X204320040Y-63655944D01*
X204393364Y-63528944D01*
X204412223Y-63496279D01*
X204412224Y-63496278D01*
X204415527Y-63490556D01*
X204474542Y-63308928D01*
X204478161Y-63274501D01*
X204493814Y-63125565D01*
X204494504Y-63119000D01*
X204486381Y-63041717D01*
X204475232Y-62935635D01*
X204475232Y-62935633D01*
X204474542Y-62929072D01*
X204415527Y-62747444D01*
X204400196Y-62720889D01*
X204355294Y-62643117D01*
X204320040Y-62582056D01*
X204312328Y-62573491D01*
X204281610Y-62509484D01*
X204290373Y-62439030D01*
X204335836Y-62384499D01*
X204403563Y-62363203D01*
X204410207Y-62363320D01*
X204411866Y-62363500D01*
X205208134Y-62363500D01*
X205270316Y-62356745D01*
X205277715Y-62353971D01*
X205280854Y-62353225D01*
X205339146Y-62353225D01*
X205342285Y-62353971D01*
X205349684Y-62356745D01*
X205411866Y-62363500D01*
X206208134Y-62363500D01*
X206270316Y-62356745D01*
X206277715Y-62353971D01*
X206280854Y-62353225D01*
X206339146Y-62353225D01*
X206342285Y-62353971D01*
X206349684Y-62356745D01*
X206411866Y-62363500D01*
X207208134Y-62363500D01*
X207270316Y-62356745D01*
X207277715Y-62353971D01*
X207280854Y-62353225D01*
X207339146Y-62353225D01*
X207342286Y-62353972D01*
X207349684Y-62356745D01*
X207357537Y-62357598D01*
X207357541Y-62357599D01*
X207379974Y-62360035D01*
X207390927Y-62361225D01*
X207456489Y-62388466D01*
X207496916Y-62446829D01*
X207499372Y-62517783D01*
X207486440Y-62549487D01*
X207484705Y-62552493D01*
X207445473Y-62620444D01*
X207386458Y-62802072D01*
X207385768Y-62808633D01*
X207385768Y-62808635D01*
X207368893Y-62969192D01*
X207366496Y-62992000D01*
X207367186Y-62998565D01*
X207380183Y-63122220D01*
X207386458Y-63181928D01*
X207445473Y-63363556D01*
X207540960Y-63528944D01*
X207545378Y-63533851D01*
X207545379Y-63533852D01*
X207655311Y-63655944D01*
X207668747Y-63670866D01*
X207757102Y-63735060D01*
X207804505Y-63769500D01*
X207823248Y-63783118D01*
X207829276Y-63785802D01*
X207829278Y-63785803D01*
X207991681Y-63858109D01*
X207997712Y-63860794D01*
X208091112Y-63880647D01*
X208178056Y-63899128D01*
X208178061Y-63899128D01*
X208184513Y-63900500D01*
X208375487Y-63900500D01*
X208381939Y-63899128D01*
X208381944Y-63899128D01*
X208543500Y-63864788D01*
X208614291Y-63870190D01*
X208670924Y-63913007D01*
X208687679Y-63943805D01*
X208692856Y-63957615D01*
X208709385Y-64001705D01*
X208796739Y-64118261D01*
X208913295Y-64205615D01*
X209049684Y-64256745D01*
X209111866Y-64263500D01*
X210358134Y-64263500D01*
X210420316Y-64256745D01*
X210556705Y-64205615D01*
X210673261Y-64118261D01*
X210760615Y-64001705D01*
X210811745Y-63865316D01*
X210818500Y-63803134D01*
X210818500Y-63006866D01*
X210811745Y-62944684D01*
X210760615Y-62808295D01*
X210673261Y-62691739D01*
X210556705Y-62604385D01*
X210536571Y-62596837D01*
X210427709Y-62556026D01*
X210427705Y-62556025D01*
X210420316Y-62553255D01*
X210412468Y-62552402D01*
X210408012Y-62551343D01*
X210346366Y-62516126D01*
X210313546Y-62453170D01*
X210319972Y-62382465D01*
X210363605Y-62326459D01*
X210392930Y-62310779D01*
X210395265Y-62309904D01*
X210398298Y-62308767D01*
X210398300Y-62308766D01*
X210406705Y-62305615D01*
X210523261Y-62218261D01*
X210610615Y-62101705D01*
X210661745Y-61965316D01*
X210668500Y-61903134D01*
X210668500Y-60656866D01*
X210661745Y-60594684D01*
X210610615Y-60458295D01*
X210523261Y-60341739D01*
X210495933Y-60321258D01*
X210453420Y-60264399D01*
X210445500Y-60220433D01*
X210445500Y-60029032D01*
X210446030Y-60017793D01*
X210447709Y-60010281D01*
X210445975Y-59955094D01*
X210445562Y-59941970D01*
X210445500Y-59938012D01*
X210445500Y-59910017D01*
X210444992Y-59905994D01*
X210444059Y-59894152D01*
X210443810Y-59886206D01*
X210442665Y-59849796D01*
X210436988Y-59830257D01*
X210432979Y-59810896D01*
X210431422Y-59798568D01*
X210431419Y-59798558D01*
X210430427Y-59790701D01*
X210427509Y-59783330D01*
X210414094Y-59749446D01*
X210410249Y-59738219D01*
X210409936Y-59737141D01*
X210397869Y-59695607D01*
X210387510Y-59678091D01*
X210378813Y-59660341D01*
X210371319Y-59641412D01*
X210345238Y-59605514D01*
X210338722Y-59595594D01*
X210320173Y-59564229D01*
X210320171Y-59564226D01*
X210316135Y-59557402D01*
X210301747Y-59543014D01*
X210288906Y-59527980D01*
X210281602Y-59517927D01*
X210276942Y-59511513D01*
X210242750Y-59483227D01*
X210233971Y-59475238D01*
X210055250Y-59296517D01*
X210047674Y-59288191D01*
X210043553Y-59281697D01*
X209993734Y-59234914D01*
X209990893Y-59232160D01*
X209971094Y-59212361D01*
X209967969Y-59209937D01*
X209967960Y-59209929D01*
X209967874Y-59209863D01*
X209958849Y-59202155D01*
X209932285Y-59177210D01*
X209926506Y-59171783D01*
X209908669Y-59161977D01*
X209892153Y-59151127D01*
X209876067Y-59138650D01*
X209835334Y-59121024D01*
X209824686Y-59115807D01*
X209813058Y-59109415D01*
X209785803Y-59094431D01*
X209778128Y-59092460D01*
X209778122Y-59092458D01*
X209766089Y-59089369D01*
X209747387Y-59082966D01*
X209728708Y-59074883D01*
X209694872Y-59069524D01*
X209684873Y-59067940D01*
X209673260Y-59065535D01*
X209630282Y-59054500D01*
X209609935Y-59054500D01*
X209590224Y-59052949D01*
X209577950Y-59051005D01*
X209570121Y-59049765D01*
X209562229Y-59050511D01*
X209525944Y-59053941D01*
X209514086Y-59054500D01*
X209121020Y-59054500D01*
X209109786Y-59053970D01*
X209102281Y-59052292D01*
X209068771Y-59053345D01*
X209000056Y-59035492D01*
X208951901Y-58983323D01*
X208939333Y-58929625D01*
X208939504Y-58928000D01*
X208938716Y-58920504D01*
X208920232Y-58744635D01*
X208920232Y-58744633D01*
X208919542Y-58738072D01*
X208860527Y-58556444D01*
X208855075Y-58547000D01*
X208788048Y-58430907D01*
X208765040Y-58391056D01*
X208715748Y-58336311D01*
X208641675Y-58254045D01*
X208641674Y-58254044D01*
X208637253Y-58249134D01*
X208482752Y-58136882D01*
X208476724Y-58134198D01*
X208476722Y-58134197D01*
X208314319Y-58061891D01*
X208314318Y-58061891D01*
X208308288Y-58059206D01*
X208197410Y-58035638D01*
X208127944Y-58020872D01*
X208127939Y-58020872D01*
X208121487Y-58019500D01*
X207930513Y-58019500D01*
X207924061Y-58020872D01*
X207924056Y-58020872D01*
X207854590Y-58035638D01*
X207743712Y-58059206D01*
X207737685Y-58061889D01*
X207737677Y-58061892D01*
X207620748Y-58113952D01*
X207550381Y-58123386D01*
X207486084Y-58093279D01*
X207448271Y-58033190D01*
X207443500Y-57998845D01*
X207443500Y-56341741D01*
X207444027Y-56330557D01*
X207445701Y-56323069D01*
X207443562Y-56255010D01*
X207443500Y-56251053D01*
X207443500Y-56223122D01*
X207442994Y-56219116D01*
X207442061Y-56207270D01*
X207440922Y-56171015D01*
X207440673Y-56163088D01*
X207435022Y-56143636D01*
X207431014Y-56124284D01*
X207429468Y-56112046D01*
X207429467Y-56112044D01*
X207428474Y-56104181D01*
X207412194Y-56063064D01*
X207408359Y-56051863D01*
X207396018Y-56009384D01*
X207391985Y-56002565D01*
X207391983Y-56002560D01*
X207385707Y-55991949D01*
X207377010Y-55974199D01*
X207369552Y-55955361D01*
X207363180Y-55946590D01*
X207343572Y-55919603D01*
X207337053Y-55909679D01*
X207318578Y-55878438D01*
X207318574Y-55878433D01*
X207314542Y-55871615D01*
X207300218Y-55857291D01*
X207287376Y-55842256D01*
X207282333Y-55835315D01*
X207275472Y-55825871D01*
X207241406Y-55797689D01*
X207232627Y-55789700D01*
X205698163Y-54255236D01*
X205690623Y-54246950D01*
X205686511Y-54240471D01*
X205660545Y-54216087D01*
X205636860Y-54193846D01*
X205634018Y-54191091D01*
X205614281Y-54171354D01*
X205611084Y-54168874D01*
X205602062Y-54161169D01*
X205583531Y-54143767D01*
X205569832Y-54130903D01*
X205562886Y-54127084D01*
X205562883Y-54127082D01*
X205552077Y-54121141D01*
X205535558Y-54110290D01*
X205530549Y-54106405D01*
X205519552Y-54097875D01*
X205512283Y-54094730D01*
X205512279Y-54094727D01*
X205478974Y-54080315D01*
X205468324Y-54075098D01*
X205429571Y-54053794D01*
X205409948Y-54048756D01*
X205391245Y-54042352D01*
X205379931Y-54037456D01*
X205379930Y-54037456D01*
X205372656Y-54034308D01*
X205364833Y-54033069D01*
X205364823Y-54033066D01*
X205328987Y-54027390D01*
X205317367Y-54024984D01*
X205282222Y-54015961D01*
X205282221Y-54015961D01*
X205274541Y-54013989D01*
X205254287Y-54013989D01*
X205234579Y-54012438D01*
X205227557Y-54011326D01*
X205158247Y-53976050D01*
X205157250Y-53975054D01*
X205076102Y-53894048D01*
X205069503Y-53889980D01*
X204936731Y-53808138D01*
X204936729Y-53808137D01*
X204930501Y-53804298D01*
X204768157Y-53750451D01*
X204761320Y-53749751D01*
X204761318Y-53749750D01*
X204706874Y-53744172D01*
X204667132Y-53740100D01*
X204069668Y-53740100D01*
X204066422Y-53740437D01*
X204066418Y-53740437D01*
X204037024Y-53743487D01*
X203967381Y-53750713D01*
X203960840Y-53752895D01*
X203960841Y-53752895D01*
X203812076Y-53802527D01*
X203812074Y-53802528D01*
X203805132Y-53804844D01*
X203798908Y-53808696D01*
X203798907Y-53808696D01*
X203779454Y-53820734D01*
X203659687Y-53894848D01*
X203654514Y-53900030D01*
X203577671Y-53977007D01*
X203515388Y-54011086D01*
X203488498Y-54013989D01*
X201741456Y-54013989D01*
X201730273Y-54013462D01*
X201722780Y-54011787D01*
X201714854Y-54012036D01*
X201714853Y-54012036D01*
X201654690Y-54013927D01*
X201650732Y-54013989D01*
X201622833Y-54013989D01*
X201618843Y-54014493D01*
X201607009Y-54015425D01*
X201562800Y-54016815D01*
X201555186Y-54019027D01*
X201555181Y-54019028D01*
X201543348Y-54022466D01*
X201523985Y-54026477D01*
X201503892Y-54029015D01*
X201496525Y-54031932D01*
X201496520Y-54031933D01*
X201462781Y-54045291D01*
X201451554Y-54049135D01*
X201409096Y-54061471D01*
X201402270Y-54065508D01*
X201391661Y-54071782D01*
X201373913Y-54080477D01*
X201355072Y-54087937D01*
X201348656Y-54092599D01*
X201348655Y-54092599D01*
X201319302Y-54113925D01*
X201309382Y-54120441D01*
X201278154Y-54138909D01*
X201278151Y-54138911D01*
X201271327Y-54142947D01*
X201257003Y-54157271D01*
X201241976Y-54170106D01*
X201225582Y-54182017D01*
X201220529Y-54188125D01*
X201220527Y-54188127D01*
X201197397Y-54216087D01*
X201189407Y-54224867D01*
X201169879Y-54244395D01*
X201107567Y-54278421D01*
X201080784Y-54281300D01*
X200848564Y-54281300D01*
X200780443Y-54261298D01*
X200741421Y-54221604D01*
X200734716Y-54210769D01*
X200719420Y-54195500D01*
X200616784Y-54093042D01*
X200616779Y-54093038D01*
X200611603Y-54087871D01*
X200605372Y-54084030D01*
X200469750Y-54000431D01*
X200469748Y-54000430D01*
X200463520Y-53996591D01*
X200298409Y-53941826D01*
X200291573Y-53941126D01*
X200291570Y-53941125D01*
X200240074Y-53935849D01*
X200195672Y-53931300D01*
X199783381Y-53931300D01*
X199715260Y-53911298D01*
X199668767Y-53857642D01*
X199662386Y-53840458D01*
X199659420Y-53830252D01*
X199655412Y-53810895D01*
X199653867Y-53798664D01*
X199652874Y-53790803D01*
X199649957Y-53783436D01*
X199649956Y-53783431D01*
X199636598Y-53749692D01*
X199632754Y-53738465D01*
X199623845Y-53707803D01*
X199620418Y-53696007D01*
X199610107Y-53678572D01*
X199601412Y-53660824D01*
X199593952Y-53641983D01*
X199567964Y-53606213D01*
X199561448Y-53596293D01*
X199542980Y-53565065D01*
X199542978Y-53565062D01*
X199538942Y-53558238D01*
X199524621Y-53543917D01*
X199511780Y-53528883D01*
X199504531Y-53518906D01*
X199499872Y-53512493D01*
X199493767Y-53507442D01*
X199493762Y-53507437D01*
X199465796Y-53484301D01*
X199457018Y-53476313D01*
X198650952Y-52670247D01*
X198643412Y-52661961D01*
X198639300Y-52655482D01*
X198625427Y-52642454D01*
X198589649Y-52608857D01*
X198586807Y-52606102D01*
X198567070Y-52586365D01*
X198563873Y-52583885D01*
X198554851Y-52576180D01*
X198528400Y-52551341D01*
X198522621Y-52545914D01*
X198515675Y-52542095D01*
X198515672Y-52542093D01*
X198504866Y-52536152D01*
X198488347Y-52525301D01*
X198484773Y-52522529D01*
X198472341Y-52512886D01*
X198465072Y-52509741D01*
X198465068Y-52509738D01*
X198431763Y-52495326D01*
X198421113Y-52490109D01*
X198382360Y-52468805D01*
X198362737Y-52463767D01*
X198344034Y-52457363D01*
X198332720Y-52452467D01*
X198332719Y-52452467D01*
X198325445Y-52449319D01*
X198317622Y-52448080D01*
X198317612Y-52448077D01*
X198281776Y-52442401D01*
X198270156Y-52439995D01*
X198235011Y-52430972D01*
X198235010Y-52430972D01*
X198227330Y-52429000D01*
X198207076Y-52429000D01*
X198187365Y-52427449D01*
X198175186Y-52425520D01*
X198167357Y-52424280D01*
X198138086Y-52427047D01*
X198123339Y-52428441D01*
X198111481Y-52429000D01*
X197302699Y-52429000D01*
X197234578Y-52408998D01*
X197195554Y-52369301D01*
X197195440Y-52369116D01*
X197181116Y-52345969D01*
X197138475Y-52303402D01*
X197063184Y-52228242D01*
X197063179Y-52228238D01*
X197058003Y-52223071D01*
X197051772Y-52219230D01*
X196916150Y-52135631D01*
X196916148Y-52135630D01*
X196909920Y-52131791D01*
X196744809Y-52077026D01*
X196737973Y-52076326D01*
X196737970Y-52076325D01*
X196686474Y-52071049D01*
X196642072Y-52066500D01*
X196067928Y-52066500D01*
X196064682Y-52066837D01*
X196064678Y-52066837D01*
X195970765Y-52076581D01*
X195970761Y-52076582D01*
X195963907Y-52077293D01*
X195957371Y-52079474D01*
X195957369Y-52079474D01*
X195905860Y-52096659D01*
X195798893Y-52132346D01*
X195650969Y-52223884D01*
X195528071Y-52346997D01*
X195524233Y-52353224D01*
X195524231Y-52353226D01*
X195514436Y-52369116D01*
X195461664Y-52416609D01*
X195407176Y-52429000D01*
X194473767Y-52429000D01*
X194462584Y-52428473D01*
X194455091Y-52426798D01*
X194447165Y-52427047D01*
X194447164Y-52427047D01*
X194387014Y-52428938D01*
X194383055Y-52429000D01*
X194355144Y-52429000D01*
X194351210Y-52429497D01*
X194351209Y-52429497D01*
X194351144Y-52429505D01*
X194339307Y-52430438D01*
X194307490Y-52431438D01*
X194303029Y-52431578D01*
X194295110Y-52431827D01*
X194277454Y-52436956D01*
X194275658Y-52437478D01*
X194256306Y-52441486D01*
X194249983Y-52442285D01*
X194236203Y-52444026D01*
X194228834Y-52446943D01*
X194228832Y-52446944D01*
X194195097Y-52460300D01*
X194183869Y-52464145D01*
X194141407Y-52476482D01*
X194134585Y-52480516D01*
X194134579Y-52480519D01*
X194123968Y-52486794D01*
X194106218Y-52495490D01*
X194094756Y-52500028D01*
X194094751Y-52500031D01*
X194087383Y-52502948D01*
X194080971Y-52507607D01*
X194074022Y-52511427D01*
X194073366Y-52510233D01*
X194014339Y-52531294D01*
X194007144Y-52531500D01*
X193614500Y-52531500D01*
X193546379Y-52511498D01*
X193499886Y-52457842D01*
X193488500Y-52405500D01*
X193488500Y-52173498D01*
X193488307Y-52171042D01*
X193486067Y-52142579D01*
X193486066Y-52142574D01*
X193485562Y-52136169D01*
X193452739Y-52023190D01*
X193441357Y-51984012D01*
X193441356Y-51984010D01*
X193439145Y-51976399D01*
X193381921Y-51879639D01*
X193364461Y-51810823D01*
X193386978Y-51743492D01*
X193442322Y-51699023D01*
X193490374Y-51689500D01*
X198334367Y-51689500D01*
X198402488Y-51709502D01*
X198423462Y-51726405D01*
X199339511Y-52642454D01*
X199352348Y-52657482D01*
X199360331Y-52668470D01*
X199365233Y-52672883D01*
X199365234Y-52672885D01*
X199410063Y-52713249D01*
X199414847Y-52717790D01*
X199428994Y-52731937D01*
X199431552Y-52734009D01*
X199431556Y-52734012D01*
X199444561Y-52744543D01*
X199449576Y-52748827D01*
X199486540Y-52782109D01*
X199499285Y-52793585D01*
X199511044Y-52800374D01*
X199527329Y-52811567D01*
X199532740Y-52815948D01*
X199537875Y-52820106D01*
X199543759Y-52823104D01*
X199543762Y-52823106D01*
X199597481Y-52850478D01*
X199603276Y-52853624D01*
X199661215Y-52887075D01*
X199667499Y-52889117D01*
X199667504Y-52889119D01*
X199674121Y-52891269D01*
X199692385Y-52898834D01*
X199694615Y-52899970D01*
X199704475Y-52904994D01*
X199769101Y-52922310D01*
X199775408Y-52924178D01*
X199839044Y-52944855D01*
X199845610Y-52945545D01*
X199845614Y-52945546D01*
X199852544Y-52946275D01*
X199871977Y-52949876D01*
X199876965Y-52951212D01*
X199885085Y-52953388D01*
X199891678Y-52953734D01*
X199891681Y-52953734D01*
X199951880Y-52956889D01*
X199958455Y-52957406D01*
X199978380Y-52959500D01*
X199998414Y-52959500D01*
X200005008Y-52959673D01*
X200065218Y-52962829D01*
X200065223Y-52962829D01*
X200071810Y-52963174D01*
X200078325Y-52962142D01*
X200078327Y-52962142D01*
X200085214Y-52961051D01*
X200104925Y-52959500D01*
X200367792Y-52959500D01*
X200433907Y-52978240D01*
X200450080Y-52988209D01*
X200457031Y-52990515D01*
X200457032Y-52990515D01*
X200474790Y-52996405D01*
X200615191Y-53042974D01*
X200622027Y-53043674D01*
X200622030Y-53043675D01*
X200673526Y-53048951D01*
X200717928Y-53053500D01*
X201317072Y-53053500D01*
X201320318Y-53053163D01*
X201320322Y-53053163D01*
X201414235Y-53043419D01*
X201414239Y-53043418D01*
X201421093Y-53042707D01*
X201427629Y-53040526D01*
X201427631Y-53040526D01*
X201572865Y-52992072D01*
X201586107Y-52987654D01*
X201734031Y-52896116D01*
X201743056Y-52887075D01*
X201840747Y-52789214D01*
X201903030Y-52755135D01*
X201973850Y-52760138D01*
X202018937Y-52789059D01*
X202121812Y-52891754D01*
X202121817Y-52891758D01*
X202126997Y-52896929D01*
X202133227Y-52900769D01*
X202133228Y-52900770D01*
X202260955Y-52979502D01*
X202275080Y-52988209D01*
X202440191Y-53042974D01*
X202447027Y-53043674D01*
X202447030Y-53043675D01*
X202498526Y-53048951D01*
X202542928Y-53053500D01*
X203142072Y-53053500D01*
X203145318Y-53053163D01*
X203145322Y-53053163D01*
X203239235Y-53043419D01*
X203239239Y-53043418D01*
X203246093Y-53042707D01*
X203252629Y-53040526D01*
X203252631Y-53040526D01*
X203397865Y-52992072D01*
X203411107Y-52987654D01*
X203426133Y-52978355D01*
X203492435Y-52959500D01*
X205401812Y-52959500D01*
X205469933Y-52979502D01*
X205490907Y-52996405D01*
X205570700Y-53076198D01*
X205575208Y-53079355D01*
X205575211Y-53079357D01*
X205597279Y-53094809D01*
X205758251Y-53207523D01*
X205763233Y-53209846D01*
X205763238Y-53209849D01*
X205919952Y-53282925D01*
X205965757Y-53304284D01*
X205971065Y-53305706D01*
X205971067Y-53305707D01*
X206181598Y-53362119D01*
X206181600Y-53362119D01*
X206186913Y-53363543D01*
X206415000Y-53383498D01*
X206643087Y-53363543D01*
X206648400Y-53362119D01*
X206648402Y-53362119D01*
X206858933Y-53305707D01*
X206858935Y-53305706D01*
X206864243Y-53304284D01*
X206910048Y-53282925D01*
X207066762Y-53209849D01*
X207066767Y-53209846D01*
X207071749Y-53207523D01*
X207232721Y-53094809D01*
X207254789Y-53079357D01*
X207254792Y-53079355D01*
X207259300Y-53076198D01*
X207421198Y-52914300D01*
X207426518Y-52906703D01*
X207485053Y-52823106D01*
X207552523Y-52726749D01*
X207554846Y-52721767D01*
X207554849Y-52721762D01*
X207646961Y-52524225D01*
X207646961Y-52524224D01*
X207649284Y-52519243D01*
X207650988Y-52512886D01*
X207707119Y-52303402D01*
X207707119Y-52303400D01*
X207708543Y-52298087D01*
X207728498Y-52070000D01*
X207708543Y-51841913D01*
X207707119Y-51836598D01*
X207650707Y-51626067D01*
X207650706Y-51626065D01*
X207649284Y-51620757D01*
X207622462Y-51563237D01*
X207554849Y-51418238D01*
X207554846Y-51418233D01*
X207552523Y-51413251D01*
X207479098Y-51308389D01*
X207424357Y-51230211D01*
X207424355Y-51230208D01*
X207421198Y-51225700D01*
X207341405Y-51145907D01*
X207307379Y-51083595D01*
X207304500Y-51056812D01*
X207304500Y-49656000D01*
X207324502Y-49587879D01*
X207378158Y-49541386D01*
X207430500Y-49530000D01*
X213234000Y-49530000D01*
X213302121Y-49550002D01*
G37*
%TD.AperFunction*%
%TA.AperFunction,Conductor*%
G36*
X181897399Y-92601502D02*
G01*
X181943892Y-92655158D01*
X181953996Y-92725432D01*
X181951797Y-92736914D01*
X181946620Y-92758476D01*
X181946619Y-92758482D01*
X181945465Y-92763289D01*
X181926835Y-93000000D01*
X181945465Y-93236711D01*
X182000895Y-93467594D01*
X182002788Y-93472165D01*
X182002789Y-93472167D01*
X182088167Y-93678288D01*
X182091760Y-93686963D01*
X182094346Y-93691183D01*
X182213241Y-93885202D01*
X182213245Y-93885208D01*
X182215824Y-93889416D01*
X182370031Y-94069969D01*
X182373787Y-94073177D01*
X182373792Y-94073182D01*
X182450491Y-94138689D01*
X182489301Y-94198139D01*
X182489808Y-94269134D01*
X182451851Y-94329133D01*
X182387483Y-94359086D01*
X182368661Y-94360500D01*
X180927925Y-94360500D01*
X180908214Y-94358949D01*
X180901327Y-94357858D01*
X180901325Y-94357858D01*
X180894810Y-94356826D01*
X180888222Y-94357171D01*
X180888218Y-94357171D01*
X180828001Y-94360327D01*
X180821407Y-94360500D01*
X180801380Y-94360500D01*
X180798109Y-94360844D01*
X180798105Y-94360844D01*
X180781461Y-94362593D01*
X180774887Y-94363110D01*
X180714684Y-94366265D01*
X180714682Y-94366265D01*
X180708085Y-94366611D01*
X180694972Y-94370125D01*
X180675530Y-94373728D01*
X180674288Y-94373858D01*
X180668615Y-94374454D01*
X180668611Y-94374455D01*
X180662044Y-94375145D01*
X180621544Y-94388304D01*
X180598418Y-94395818D01*
X180592094Y-94397691D01*
X180527476Y-94415006D01*
X180515384Y-94421167D01*
X180497125Y-94428730D01*
X180484215Y-94432925D01*
X180445327Y-94455377D01*
X180426276Y-94466376D01*
X180420480Y-94469523D01*
X180360875Y-94499893D01*
X180350330Y-94508432D01*
X180334045Y-94519625D01*
X180327998Y-94523116D01*
X180327995Y-94523119D01*
X180322285Y-94526415D01*
X180317385Y-94530827D01*
X180317381Y-94530830D01*
X180272575Y-94571175D01*
X180267554Y-94575463D01*
X180251994Y-94588063D01*
X180237847Y-94602210D01*
X180233063Y-94606751D01*
X180189765Y-94645737D01*
X180183331Y-94651530D01*
X180175348Y-94662518D01*
X180162511Y-94677546D01*
X177113777Y-97726280D01*
X177051465Y-97760306D01*
X176980454Y-97755167D01*
X176903398Y-97726280D01*
X176866270Y-97712361D01*
X176809505Y-97669719D01*
X176784806Y-97603157D01*
X176784500Y-97594379D01*
X176784500Y-96646163D01*
X176803240Y-96580047D01*
X176810462Y-96568331D01*
X176810463Y-96568330D01*
X176814302Y-96562101D01*
X176868149Y-96399757D01*
X176878500Y-96298732D01*
X176878500Y-95751268D01*
X176867887Y-95648981D01*
X176823882Y-95517082D01*
X176816073Y-95493676D01*
X176816072Y-95493674D01*
X176813756Y-95486732D01*
X176723752Y-95341287D01*
X176602702Y-95220448D01*
X176596471Y-95216607D01*
X176463331Y-95134538D01*
X176463329Y-95134537D01*
X176457101Y-95130698D01*
X176294757Y-95076851D01*
X176287920Y-95076151D01*
X176287918Y-95076150D01*
X176246599Y-95071917D01*
X176193732Y-95066500D01*
X175596268Y-95066500D01*
X175593022Y-95066837D01*
X175593018Y-95066837D01*
X175558917Y-95070375D01*
X175493981Y-95077113D01*
X175487437Y-95079296D01*
X175487438Y-95079296D01*
X175338388Y-95129023D01*
X175298512Y-95135500D01*
X160086925Y-95135500D01*
X160067214Y-95133949D01*
X160060327Y-95132858D01*
X160060325Y-95132858D01*
X160053810Y-95131826D01*
X160047223Y-95132171D01*
X160047218Y-95132171D01*
X159987008Y-95135327D01*
X159980414Y-95135500D01*
X159960380Y-95135500D01*
X159957106Y-95135844D01*
X159957107Y-95135844D01*
X159940454Y-95137594D01*
X159933880Y-95138111D01*
X159873681Y-95141266D01*
X159873678Y-95141266D01*
X159867085Y-95141612D01*
X159860706Y-95143321D01*
X159860707Y-95143321D01*
X159853977Y-95145124D01*
X159834544Y-95148725D01*
X159827614Y-95149454D01*
X159827610Y-95149455D01*
X159821044Y-95150145D01*
X159757408Y-95170822D01*
X159751101Y-95172690D01*
X159725430Y-95179568D01*
X159692852Y-95188297D01*
X159692849Y-95188298D01*
X159686475Y-95190006D01*
X159680595Y-95193002D01*
X159680587Y-95193005D01*
X159674379Y-95196168D01*
X159656122Y-95203731D01*
X159643215Y-95207925D01*
X159637494Y-95211228D01*
X159585288Y-95241369D01*
X159579493Y-95244516D01*
X159519875Y-95274893D01*
X159509330Y-95283432D01*
X159493045Y-95294625D01*
X159486998Y-95298116D01*
X159486995Y-95298119D01*
X159481285Y-95301415D01*
X159476385Y-95305827D01*
X159476381Y-95305830D01*
X159431575Y-95346175D01*
X159426554Y-95350463D01*
X159410994Y-95363063D01*
X159396847Y-95377210D01*
X159392063Y-95381751D01*
X159342331Y-95426530D01*
X159334348Y-95437518D01*
X159321511Y-95452546D01*
X156944992Y-97829065D01*
X156882680Y-97863091D01*
X156811865Y-97858026D01*
X156780332Y-97840796D01*
X156678892Y-97764771D01*
X156678890Y-97764770D01*
X156671705Y-97759385D01*
X156535316Y-97708255D01*
X156473134Y-97701500D01*
X156334500Y-97701500D01*
X156266379Y-97681498D01*
X156219886Y-97627842D01*
X156208500Y-97575500D01*
X156208500Y-96805499D01*
X156228502Y-96737378D01*
X156268195Y-96698356D01*
X156277488Y-96692605D01*
X156277493Y-96692601D01*
X156283713Y-96688752D01*
X156404552Y-96567702D01*
X156412287Y-96555153D01*
X156490462Y-96428331D01*
X156490463Y-96428329D01*
X156494302Y-96422101D01*
X156548149Y-96259757D01*
X156558500Y-96158732D01*
X156558500Y-95611268D01*
X156547887Y-95508981D01*
X156518906Y-95422115D01*
X156496073Y-95353676D01*
X156496072Y-95353674D01*
X156493756Y-95346732D01*
X156487186Y-95336114D01*
X156407606Y-95207515D01*
X156403752Y-95201287D01*
X156282702Y-95080448D01*
X156276138Y-95076402D01*
X156143331Y-94994538D01*
X156143329Y-94994537D01*
X156137101Y-94990698D01*
X155974757Y-94936851D01*
X155967920Y-94936151D01*
X155967918Y-94936150D01*
X155926599Y-94931917D01*
X155873732Y-94926500D01*
X155276268Y-94926500D01*
X155273022Y-94926837D01*
X155273018Y-94926837D01*
X155238917Y-94930375D01*
X155173981Y-94937113D01*
X155167440Y-94939295D01*
X155167441Y-94939295D01*
X155018676Y-94988927D01*
X155018674Y-94988928D01*
X155011732Y-94991244D01*
X155005508Y-94995096D01*
X155005507Y-94995096D01*
X154889589Y-95066828D01*
X154866287Y-95081248D01*
X154745448Y-95202298D01*
X154741608Y-95208528D01*
X154741607Y-95208529D01*
X154659774Y-95341287D01*
X154655698Y-95347899D01*
X154601851Y-95510243D01*
X154591500Y-95611268D01*
X154591500Y-96158732D01*
X154591837Y-96161978D01*
X154591837Y-96161982D01*
X154592963Y-96172829D01*
X154602113Y-96261019D01*
X154604295Y-96267559D01*
X154653537Y-96415153D01*
X154656244Y-96423268D01*
X154746248Y-96568713D01*
X154867298Y-96689552D01*
X154873530Y-96693394D01*
X154873532Y-96693395D01*
X154881617Y-96698379D01*
X154929110Y-96751152D01*
X154941500Y-96805638D01*
X154941500Y-97575500D01*
X154921498Y-97643621D01*
X154867842Y-97690114D01*
X154815500Y-97701500D01*
X154676866Y-97701500D01*
X154614684Y-97708255D01*
X154478295Y-97759385D01*
X154361739Y-97846739D01*
X154274385Y-97963295D01*
X154271233Y-97971703D01*
X154229919Y-98081907D01*
X154187277Y-98138671D01*
X154120716Y-98163371D01*
X154051367Y-98148163D01*
X154018743Y-98122476D01*
X153968151Y-98066875D01*
X153968142Y-98066866D01*
X153964670Y-98063051D01*
X153960619Y-98059852D01*
X153960615Y-98059848D01*
X153793414Y-97927800D01*
X153793410Y-97927798D01*
X153789359Y-97924598D01*
X153784831Y-97922098D01*
X153732945Y-97893456D01*
X153593789Y-97816638D01*
X153588920Y-97814914D01*
X153588916Y-97814912D01*
X153388087Y-97743795D01*
X153388083Y-97743794D01*
X153383212Y-97742069D01*
X153378119Y-97741162D01*
X153378116Y-97741161D01*
X153168373Y-97703800D01*
X153168367Y-97703799D01*
X153163284Y-97702894D01*
X153089452Y-97701992D01*
X152945081Y-97700228D01*
X152945079Y-97700228D01*
X152939911Y-97700165D01*
X152719091Y-97733955D01*
X152506756Y-97803357D01*
X152434836Y-97840796D01*
X152332975Y-97893822D01*
X152308607Y-97906507D01*
X152304474Y-97909610D01*
X152304471Y-97909612D01*
X152134100Y-98037530D01*
X152129965Y-98040635D01*
X152090525Y-98081907D01*
X152007121Y-98169184D01*
X151975629Y-98202138D01*
X151868201Y-98359621D01*
X151813293Y-98404621D01*
X151742768Y-98412792D01*
X151679021Y-98381538D01*
X151658324Y-98357054D01*
X151577822Y-98232617D01*
X151577820Y-98232614D01*
X151575014Y-98228277D01*
X151424670Y-98063051D01*
X151420619Y-98059852D01*
X151420615Y-98059848D01*
X151253414Y-97927800D01*
X151253410Y-97927798D01*
X151249359Y-97924598D01*
X151244831Y-97922098D01*
X151192945Y-97893456D01*
X151053789Y-97816638D01*
X151048920Y-97814914D01*
X151048916Y-97814912D01*
X150848087Y-97743795D01*
X150848083Y-97743794D01*
X150843212Y-97742069D01*
X150838119Y-97741162D01*
X150838116Y-97741161D01*
X150628373Y-97703800D01*
X150628367Y-97703799D01*
X150623284Y-97702894D01*
X150549452Y-97701992D01*
X150405081Y-97700228D01*
X150405079Y-97700228D01*
X150399911Y-97700165D01*
X150179091Y-97733955D01*
X149966756Y-97803357D01*
X149894836Y-97840796D01*
X149792975Y-97893822D01*
X149768607Y-97906507D01*
X149764474Y-97909610D01*
X149764471Y-97909612D01*
X149594100Y-98037530D01*
X149589965Y-98040635D01*
X149550525Y-98081907D01*
X149467121Y-98169184D01*
X149435629Y-98202138D01*
X149328201Y-98359621D01*
X149273293Y-98404621D01*
X149202768Y-98412792D01*
X149139021Y-98381538D01*
X149118324Y-98357054D01*
X149037822Y-98232617D01*
X149037820Y-98232614D01*
X149035014Y-98228277D01*
X148884670Y-98063051D01*
X148880619Y-98059852D01*
X148880615Y-98059848D01*
X148713414Y-97927800D01*
X148713410Y-97927798D01*
X148709359Y-97924598D01*
X148704835Y-97922101D01*
X148704831Y-97922098D01*
X148653608Y-97893822D01*
X148603636Y-97843390D01*
X148588500Y-97783513D01*
X148588500Y-97469594D01*
X148608502Y-97401473D01*
X148625405Y-97380499D01*
X153387500Y-92618405D01*
X153449812Y-92584379D01*
X153476595Y-92581500D01*
X181829278Y-92581500D01*
X181897399Y-92601502D01*
G37*
%TD.AperFunction*%
%TA.AperFunction,Conductor*%
G36*
X177546000Y-62624500D02*
G01*
X177525998Y-62692621D01*
X177472342Y-62739114D01*
X177420000Y-62750500D01*
X176379433Y-62750500D01*
X176311312Y-62730498D01*
X176290338Y-62713595D01*
X164566289Y-50989546D01*
X164553452Y-50974518D01*
X164545469Y-50963530D01*
X164514488Y-50935634D01*
X164495737Y-50918751D01*
X164490953Y-50914210D01*
X164476806Y-50900063D01*
X164461246Y-50887463D01*
X164456225Y-50883175D01*
X164411419Y-50842830D01*
X164411415Y-50842827D01*
X164406515Y-50838415D01*
X164400805Y-50835119D01*
X164400802Y-50835116D01*
X164394755Y-50831625D01*
X164378470Y-50820432D01*
X164367925Y-50811893D01*
X164308320Y-50781523D01*
X164302524Y-50778376D01*
X164296775Y-50775057D01*
X164244585Y-50744925D01*
X164231675Y-50740730D01*
X164213416Y-50733167D01*
X164201324Y-50727006D01*
X164136706Y-50709691D01*
X164130382Y-50707818D01*
X164121781Y-50705023D01*
X164066756Y-50687145D01*
X164060189Y-50686455D01*
X164060185Y-50686454D01*
X164054512Y-50685858D01*
X164053270Y-50685728D01*
X164033828Y-50682125D01*
X164020715Y-50678611D01*
X164014118Y-50678265D01*
X164014116Y-50678265D01*
X163953913Y-50675110D01*
X163947339Y-50674593D01*
X163930695Y-50672844D01*
X163930691Y-50672844D01*
X163927420Y-50672500D01*
X163907393Y-50672500D01*
X163900799Y-50672327D01*
X163840582Y-50669171D01*
X163840578Y-50669171D01*
X163833990Y-50668826D01*
X163827475Y-50669858D01*
X163827473Y-50669858D01*
X163820586Y-50670949D01*
X163800875Y-50672500D01*
X159337925Y-50672500D01*
X159318214Y-50670949D01*
X159311327Y-50669858D01*
X159311325Y-50669858D01*
X159304810Y-50668826D01*
X159298222Y-50669171D01*
X159298218Y-50669171D01*
X159238001Y-50672327D01*
X159231407Y-50672500D01*
X159211380Y-50672500D01*
X159208109Y-50672844D01*
X159208105Y-50672844D01*
X159191461Y-50674593D01*
X159184887Y-50675110D01*
X159124684Y-50678265D01*
X159124682Y-50678265D01*
X159118085Y-50678611D01*
X159104972Y-50682125D01*
X159085530Y-50685728D01*
X159084288Y-50685858D01*
X159078615Y-50686454D01*
X159078611Y-50686455D01*
X159072044Y-50687145D01*
X159017019Y-50705023D01*
X159008418Y-50707818D01*
X159002094Y-50709691D01*
X158937476Y-50727006D01*
X158925384Y-50733167D01*
X158907125Y-50740730D01*
X158894215Y-50744925D01*
X158842025Y-50775057D01*
X158836276Y-50778376D01*
X158830480Y-50781523D01*
X158770875Y-50811893D01*
X158760330Y-50820432D01*
X158744045Y-50831625D01*
X158737998Y-50835116D01*
X158737995Y-50835119D01*
X158732285Y-50838415D01*
X158727385Y-50842827D01*
X158727381Y-50842830D01*
X158682575Y-50883175D01*
X158677554Y-50887463D01*
X158661994Y-50900063D01*
X158647847Y-50914210D01*
X158643063Y-50918751D01*
X158624313Y-50935634D01*
X158593331Y-50963530D01*
X158585348Y-50974518D01*
X158572511Y-50989546D01*
X157552546Y-52009511D01*
X157537518Y-52022348D01*
X157526530Y-52030331D01*
X157522117Y-52035233D01*
X157522115Y-52035234D01*
X157481751Y-52080063D01*
X157477210Y-52084847D01*
X157463063Y-52098994D01*
X157460986Y-52101559D01*
X157450463Y-52114554D01*
X157446181Y-52119568D01*
X157432669Y-52134575D01*
X157405830Y-52164381D01*
X157405827Y-52164385D01*
X157401415Y-52169285D01*
X157398119Y-52174995D01*
X157398116Y-52174998D01*
X157394625Y-52181045D01*
X157383432Y-52197330D01*
X157374893Y-52207875D01*
X157364516Y-52228242D01*
X157344523Y-52267480D01*
X157341376Y-52273276D01*
X157338812Y-52277717D01*
X157307925Y-52331215D01*
X157303731Y-52344123D01*
X157296167Y-52362384D01*
X157290006Y-52374476D01*
X157280756Y-52408998D01*
X157272691Y-52439094D01*
X157270818Y-52445418D01*
X157250145Y-52509044D01*
X157249455Y-52515611D01*
X157249454Y-52515615D01*
X157248728Y-52522529D01*
X157245125Y-52541972D01*
X157241611Y-52555085D01*
X157241265Y-52561682D01*
X157241265Y-52561684D01*
X157238110Y-52621887D01*
X157237593Y-52628461D01*
X157235500Y-52648380D01*
X157235500Y-52668407D01*
X157235327Y-52675001D01*
X157232235Y-52734012D01*
X157231826Y-52741810D01*
X157232858Y-52748325D01*
X157232858Y-52748327D01*
X157233949Y-52755214D01*
X157235500Y-52774925D01*
X157235500Y-53176407D01*
X157235327Y-53183001D01*
X157233467Y-53218502D01*
X157231826Y-53249810D01*
X157232858Y-53256325D01*
X157232858Y-53256327D01*
X157233949Y-53263214D01*
X157235500Y-53282925D01*
X157235500Y-54793855D01*
X157215498Y-54861976D01*
X157200596Y-54880903D01*
X157065629Y-55022138D01*
X156939743Y-55206680D01*
X156905250Y-55280989D01*
X156850933Y-55398006D01*
X156845688Y-55409305D01*
X156785989Y-55624570D01*
X156762251Y-55846695D01*
X156762548Y-55851848D01*
X156762548Y-55851851D01*
X156774100Y-56052202D01*
X156775110Y-56069715D01*
X156776247Y-56074761D01*
X156776248Y-56074767D01*
X156791274Y-56141438D01*
X156824222Y-56287639D01*
X156862461Y-56381811D01*
X156892099Y-56454800D01*
X156908266Y-56494616D01*
X156955368Y-56571479D01*
X157022291Y-56680688D01*
X157024987Y-56685088D01*
X157171250Y-56853938D01*
X157343126Y-56996632D01*
X157536000Y-57109338D01*
X157744692Y-57189030D01*
X157749760Y-57190061D01*
X157749763Y-57190062D01*
X157836919Y-57207794D01*
X157963597Y-57233567D01*
X157968772Y-57233757D01*
X157968774Y-57233757D01*
X158181673Y-57241564D01*
X158181677Y-57241564D01*
X158186837Y-57241753D01*
X158191957Y-57241097D01*
X158191959Y-57241097D01*
X158403288Y-57214025D01*
X158403289Y-57214025D01*
X158408416Y-57213368D01*
X158426995Y-57207794D01*
X158617429Y-57150661D01*
X158617434Y-57150659D01*
X158622384Y-57149174D01*
X158822994Y-57050896D01*
X159004860Y-56921173D01*
X159053429Y-56872774D01*
X159115313Y-56811105D01*
X159163096Y-56763489D01*
X159187132Y-56730040D01*
X159293453Y-56582077D01*
X159294776Y-56583028D01*
X159341645Y-56539857D01*
X159411580Y-56527625D01*
X159477026Y-56555144D01*
X159504875Y-56586994D01*
X159564987Y-56685088D01*
X159711250Y-56853938D01*
X159883126Y-56996632D01*
X159955167Y-57038729D01*
X159969070Y-57046853D01*
X160017794Y-57098491D01*
X160031500Y-57155641D01*
X160031500Y-62542233D01*
X160030973Y-62553416D01*
X160029298Y-62560909D01*
X160029547Y-62568835D01*
X160029547Y-62568836D01*
X160031438Y-62628986D01*
X160031500Y-62632945D01*
X160031500Y-62660856D01*
X160031997Y-62664790D01*
X160031997Y-62664791D01*
X160032005Y-62664856D01*
X160032938Y-62676693D01*
X160034327Y-62720889D01*
X160037119Y-62730498D01*
X160039978Y-62740339D01*
X160043987Y-62759700D01*
X160046526Y-62779797D01*
X160049445Y-62787168D01*
X160049445Y-62787170D01*
X160062804Y-62820912D01*
X160066649Y-62832142D01*
X160074023Y-62857524D01*
X160078982Y-62874593D01*
X160083015Y-62881412D01*
X160083017Y-62881417D01*
X160089293Y-62892028D01*
X160097988Y-62909776D01*
X160105448Y-62928617D01*
X160110110Y-62935033D01*
X160110110Y-62935034D01*
X160131436Y-62964387D01*
X160137952Y-62974307D01*
X160155753Y-63004406D01*
X160160458Y-63012362D01*
X160174779Y-63026683D01*
X160187619Y-63041716D01*
X160199528Y-63058107D01*
X160232277Y-63085199D01*
X160233605Y-63086298D01*
X160242384Y-63094288D01*
X175057393Y-77909297D01*
X175091419Y-77971609D01*
X175086354Y-78042424D01*
X175043807Y-78099260D01*
X174994493Y-78121639D01*
X174977712Y-78125206D01*
X174971682Y-78127891D01*
X174971681Y-78127891D01*
X174809278Y-78200197D01*
X174809276Y-78200198D01*
X174803248Y-78202882D01*
X174797907Y-78206762D01*
X174797906Y-78206763D01*
X174783055Y-78217553D01*
X174648747Y-78315134D01*
X174644326Y-78320044D01*
X174644325Y-78320045D01*
X174557823Y-78416116D01*
X174520960Y-78457056D01*
X174473819Y-78538706D01*
X174466432Y-78551501D01*
X174415049Y-78600494D01*
X174357313Y-78614500D01*
X143316594Y-78614500D01*
X143248473Y-78594498D01*
X143227499Y-78577595D01*
X138457405Y-73807500D01*
X138423379Y-73745188D01*
X138420500Y-73718405D01*
X138420500Y-68931807D01*
X138440502Y-68863686D01*
X138468924Y-68832520D01*
X138483847Y-68820861D01*
X138613078Y-68671145D01*
X138710769Y-68499179D01*
X138773197Y-68311513D01*
X138797985Y-68115295D01*
X138798380Y-68087000D01*
X138779080Y-67890167D01*
X138777126Y-67883693D01*
X138738931Y-67757188D01*
X138721916Y-67700831D01*
X138629066Y-67526204D01*
X138625167Y-67521424D01*
X138624715Y-67520743D01*
X138603676Y-67452935D01*
X138620105Y-67388775D01*
X138623943Y-67382020D01*
X138677790Y-67287232D01*
X138707723Y-67234542D01*
X138707725Y-67234537D01*
X138710769Y-67229179D01*
X138773197Y-67041513D01*
X138797985Y-66845295D01*
X138798380Y-66817000D01*
X138779080Y-66620167D01*
X138773364Y-66601233D01*
X138751298Y-66528148D01*
X138721916Y-66430831D01*
X138629066Y-66256204D01*
X138625167Y-66251424D01*
X138624715Y-66250743D01*
X138603676Y-66182935D01*
X138620105Y-66118775D01*
X138629754Y-66101791D01*
X138666844Y-66036500D01*
X138707723Y-65964542D01*
X138707725Y-65964537D01*
X138710769Y-65959179D01*
X138773197Y-65771513D01*
X138797985Y-65575295D01*
X138798380Y-65547000D01*
X138779080Y-65350167D01*
X138721916Y-65160831D01*
X138629066Y-64986204D01*
X138552909Y-64892826D01*
X138507960Y-64837713D01*
X138507957Y-64837710D01*
X138504065Y-64832938D01*
X138497724Y-64827692D01*
X138356425Y-64710799D01*
X138356421Y-64710797D01*
X138351675Y-64706870D01*
X138177701Y-64612802D01*
X137988768Y-64554318D01*
X137982643Y-64553674D01*
X137982642Y-64553674D01*
X137798204Y-64534289D01*
X137798202Y-64534289D01*
X137792075Y-64533645D01*
X137709576Y-64541153D01*
X137601251Y-64551011D01*
X137601248Y-64551012D01*
X137595112Y-64551570D01*
X137589206Y-64553308D01*
X137589202Y-64553309D01*
X137484076Y-64584249D01*
X137405381Y-64607410D01*
X137399923Y-64610263D01*
X137399919Y-64610265D01*
X137313394Y-64655500D01*
X137230110Y-64699040D01*
X137225310Y-64702900D01*
X137220153Y-64706274D01*
X137218769Y-64704158D01*
X137163365Y-64727027D01*
X137093512Y-64714334D01*
X137083898Y-64708709D01*
X137081675Y-64706870D01*
X136907701Y-64612802D01*
X136718768Y-64554318D01*
X136712643Y-64553674D01*
X136712642Y-64553674D01*
X136528204Y-64534289D01*
X136528202Y-64534289D01*
X136522075Y-64533645D01*
X136439576Y-64541153D01*
X136331251Y-64551011D01*
X136331248Y-64551012D01*
X136325112Y-64551570D01*
X136319206Y-64553308D01*
X136319202Y-64553309D01*
X136214076Y-64584249D01*
X136135381Y-64607410D01*
X136129923Y-64610263D01*
X136129919Y-64610265D01*
X136043394Y-64655500D01*
X135960110Y-64699040D01*
X135805975Y-64822968D01*
X135678846Y-64974474D01*
X135675879Y-64979872D01*
X135675875Y-64979877D01*
X135636956Y-65050672D01*
X135583567Y-65147787D01*
X135581706Y-65153654D01*
X135581705Y-65153656D01*
X135570960Y-65187530D01*
X135523765Y-65336306D01*
X135501719Y-65532851D01*
X135502235Y-65538995D01*
X135514487Y-65684900D01*
X135518268Y-65729934D01*
X135519967Y-65735858D01*
X135554836Y-65857460D01*
X135572783Y-65920050D01*
X135575602Y-65925535D01*
X135632631Y-66036500D01*
X135663187Y-66095956D01*
X135667016Y-66100787D01*
X135668839Y-66103088D01*
X135669414Y-66104509D01*
X135670353Y-66105966D01*
X135670076Y-66106144D01*
X135695474Y-66168898D01*
X135682301Y-66238662D01*
X135678846Y-66244474D01*
X135583567Y-66417787D01*
X135581706Y-66423654D01*
X135581705Y-66423656D01*
X135541427Y-66550628D01*
X135523765Y-66606306D01*
X135501719Y-66802851D01*
X135502235Y-66808995D01*
X135513629Y-66944684D01*
X135518268Y-66999934D01*
X135540906Y-67078881D01*
X135570123Y-67180772D01*
X135572783Y-67190050D01*
X135663187Y-67365956D01*
X135667016Y-67370787D01*
X135668839Y-67373088D01*
X135669414Y-67374509D01*
X135670353Y-67375966D01*
X135670076Y-67376144D01*
X135695474Y-67438898D01*
X135682301Y-67508662D01*
X135678846Y-67514474D01*
X135583567Y-67687787D01*
X135581706Y-67693654D01*
X135581705Y-67693656D01*
X135527251Y-67865316D01*
X135523765Y-67876306D01*
X135501719Y-68072851D01*
X135504831Y-68109911D01*
X135517728Y-68263500D01*
X135518268Y-68269934D01*
X135519967Y-68275858D01*
X135570835Y-68453255D01*
X135572783Y-68460050D01*
X135663187Y-68635956D01*
X135786035Y-68790953D01*
X135790728Y-68794947D01*
X135790729Y-68794948D01*
X135880248Y-68871134D01*
X135936650Y-68919136D01*
X136109294Y-69015624D01*
X136297392Y-69076740D01*
X136493777Y-69100158D01*
X136499912Y-69099686D01*
X136499914Y-69099686D01*
X136684830Y-69085457D01*
X136684834Y-69085456D01*
X136690972Y-69084984D01*
X136881463Y-69031798D01*
X136886967Y-69029018D01*
X136886969Y-69029017D01*
X136966690Y-68988747D01*
X137036512Y-68975887D01*
X137102203Y-69002816D01*
X137142906Y-69060987D01*
X137149500Y-69101213D01*
X137149500Y-73970005D01*
X137147259Y-73970005D01*
X137147422Y-73970968D01*
X137149298Y-73970909D01*
X137149438Y-73975363D01*
X137149500Y-73979322D01*
X137149500Y-74070983D01*
X137149996Y-74074909D01*
X137149997Y-74074926D01*
X137152674Y-74096115D01*
X137153606Y-74107945D01*
X137154327Y-74130889D01*
X137156538Y-74138498D01*
X137156660Y-74139269D01*
X137160420Y-74157418D01*
X137164573Y-74190299D01*
X137167490Y-74197667D01*
X137167492Y-74197674D01*
X137188732Y-74251320D01*
X137192576Y-74262547D01*
X137196769Y-74276979D01*
X137196772Y-74276985D01*
X137198982Y-74284593D01*
X137203015Y-74291412D01*
X137203322Y-74292122D01*
X137211482Y-74308777D01*
X137220762Y-74332217D01*
X137220764Y-74332221D01*
X137223681Y-74339588D01*
X137228339Y-74345999D01*
X137228340Y-74346001D01*
X137240584Y-74362853D01*
X137258044Y-74386884D01*
X137262252Y-74392676D01*
X137268770Y-74402599D01*
X137276422Y-74415539D01*
X137276426Y-74415544D01*
X137280458Y-74422362D01*
X137286061Y-74427965D01*
X137286535Y-74428576D01*
X137298577Y-74442674D01*
X137318058Y-74469487D01*
X137324166Y-74474540D01*
X137368627Y-74511321D01*
X137377407Y-74519311D01*
X142398001Y-79539905D01*
X142432027Y-79602217D01*
X142426962Y-79673032D01*
X142398003Y-79718093D01*
X141506498Y-80609597D01*
X141444188Y-80643621D01*
X141417405Y-80646500D01*
X140548964Y-80646500D01*
X140480843Y-80626498D01*
X140441821Y-80586804D01*
X140435116Y-80575969D01*
X140420063Y-80560942D01*
X140317184Y-80458242D01*
X140317179Y-80458238D01*
X140312003Y-80453071D01*
X140305772Y-80449230D01*
X140170150Y-80365631D01*
X140170148Y-80365630D01*
X140163920Y-80361791D01*
X139998809Y-80307026D01*
X139991973Y-80306326D01*
X139991970Y-80306325D01*
X139940474Y-80301049D01*
X139896072Y-80296500D01*
X139296928Y-80296500D01*
X139293682Y-80296837D01*
X139293678Y-80296837D01*
X139199765Y-80306581D01*
X139199761Y-80306582D01*
X139192907Y-80307293D01*
X139186371Y-80309474D01*
X139186369Y-80309474D01*
X139128056Y-80328929D01*
X139027893Y-80362346D01*
X138879969Y-80453884D01*
X138874796Y-80459066D01*
X138773253Y-80560786D01*
X138710970Y-80594865D01*
X138640150Y-80589862D01*
X138595063Y-80560942D01*
X138527040Y-80493038D01*
X138514213Y-80480234D01*
X138480134Y-80417952D01*
X138485137Y-80347132D01*
X138514058Y-80302043D01*
X138519592Y-80296500D01*
X138610929Y-80205003D01*
X138673132Y-80104092D01*
X138698369Y-80063150D01*
X138698370Y-80063148D01*
X138702209Y-80056920D01*
X138756974Y-79891809D01*
X138758515Y-79876774D01*
X138767172Y-79792271D01*
X138767500Y-79789072D01*
X138767500Y-79214928D01*
X138761220Y-79154399D01*
X138757419Y-79117765D01*
X138757418Y-79117761D01*
X138756707Y-79110907D01*
X138725718Y-79018020D01*
X138707849Y-78964462D01*
X138701654Y-78945893D01*
X138610116Y-78797969D01*
X138600306Y-78788176D01*
X138492184Y-78680242D01*
X138492179Y-78680238D01*
X138487003Y-78675071D01*
X138450067Y-78652303D01*
X138345150Y-78587631D01*
X138345148Y-78587630D01*
X138338920Y-78583791D01*
X138173809Y-78529026D01*
X138166973Y-78528326D01*
X138166970Y-78528325D01*
X138115474Y-78523049D01*
X138071072Y-78518500D01*
X137471928Y-78518500D01*
X137468682Y-78518837D01*
X137468678Y-78518837D01*
X137374765Y-78528581D01*
X137374761Y-78528582D01*
X137367907Y-78529293D01*
X137361371Y-78531474D01*
X137361369Y-78531474D01*
X137301341Y-78551501D01*
X137202893Y-78584346D01*
X137054969Y-78675884D01*
X137049796Y-78681066D01*
X136937242Y-78793816D01*
X136937238Y-78793821D01*
X136932071Y-78798997D01*
X136928231Y-78805227D01*
X136928230Y-78805228D01*
X136845364Y-78939662D01*
X136840791Y-78947080D01*
X136840696Y-78947366D01*
X136795689Y-78998488D01*
X136727413Y-79017952D01*
X136659452Y-78997414D01*
X136639311Y-78981051D01*
X136551807Y-78893547D01*
X136508858Y-78868147D01*
X136460408Y-78816257D01*
X136447000Y-78759696D01*
X136447000Y-78397559D01*
X136465740Y-78331443D01*
X136550369Y-78194150D01*
X136550370Y-78194148D01*
X136554209Y-78187920D01*
X136608974Y-78022809D01*
X136611814Y-77995096D01*
X136619172Y-77923271D01*
X136619500Y-77920072D01*
X136619500Y-77320928D01*
X136619163Y-77317678D01*
X136609419Y-77223765D01*
X136609418Y-77223761D01*
X136608707Y-77216907D01*
X136553654Y-77051893D01*
X136462116Y-76903969D01*
X136456934Y-76898796D01*
X136344184Y-76786242D01*
X136344179Y-76786238D01*
X136339003Y-76781071D01*
X136332772Y-76777230D01*
X136197150Y-76693631D01*
X136197148Y-76693630D01*
X136190920Y-76689791D01*
X136025809Y-76635026D01*
X136018973Y-76634326D01*
X136018970Y-76634325D01*
X135967474Y-76629049D01*
X135923072Y-76624500D01*
X135348928Y-76624500D01*
X135345682Y-76624837D01*
X135345678Y-76624837D01*
X135251765Y-76634581D01*
X135251761Y-76634582D01*
X135244907Y-76635293D01*
X135238371Y-76637474D01*
X135238369Y-76637474D01*
X135154500Y-76665455D01*
X135079893Y-76690346D01*
X134931969Y-76781884D01*
X134926796Y-76787066D01*
X134814242Y-76899816D01*
X134814238Y-76899821D01*
X134809071Y-76904997D01*
X134805231Y-76911227D01*
X134805230Y-76911228D01*
X134722364Y-77045662D01*
X134717791Y-77053080D01*
X134663026Y-77218191D01*
X134652500Y-77320928D01*
X134652500Y-77920072D01*
X134652837Y-77923318D01*
X134652837Y-77923322D01*
X134661197Y-78003888D01*
X134663293Y-78024093D01*
X134665241Y-78029933D01*
X134668000Y-78055777D01*
X134668000Y-78759696D01*
X134647998Y-78827817D01*
X134606143Y-78868147D01*
X134563193Y-78893547D01*
X134445547Y-79011193D01*
X134441511Y-79018017D01*
X134441509Y-79018020D01*
X134390443Y-79104369D01*
X134360855Y-79154399D01*
X134314438Y-79314169D01*
X134313934Y-79320574D01*
X134313933Y-79320579D01*
X134311693Y-79349042D01*
X134311500Y-79351498D01*
X134311500Y-79583500D01*
X134291498Y-79651621D01*
X134237842Y-79698114D01*
X134185500Y-79709500D01*
X134184133Y-79709500D01*
X134116012Y-79689498D01*
X134095038Y-79672595D01*
X133386905Y-78964462D01*
X133352879Y-78902150D01*
X133350000Y-78875367D01*
X133350000Y-63555134D01*
X135506500Y-63555134D01*
X135513255Y-63617316D01*
X135564385Y-63753705D01*
X135651739Y-63870261D01*
X135768295Y-63957615D01*
X135904684Y-64008745D01*
X135966866Y-64015500D01*
X137063134Y-64015500D01*
X137125316Y-64008745D01*
X137261705Y-63957615D01*
X137268892Y-63952229D01*
X137276760Y-63947921D01*
X137277975Y-63950141D01*
X137331928Y-63929986D01*
X137379916Y-63935827D01*
X137544081Y-63989166D01*
X137567392Y-63996740D01*
X137763777Y-64020158D01*
X137769912Y-64019686D01*
X137769914Y-64019686D01*
X137954830Y-64005457D01*
X137954834Y-64005456D01*
X137960972Y-64004984D01*
X138151463Y-63951798D01*
X138315309Y-63869033D01*
X138372118Y-63855500D01*
X139865071Y-63855500D01*
X139904738Y-63861907D01*
X140062243Y-63914149D01*
X140069080Y-63914849D01*
X140069082Y-63914850D01*
X140110401Y-63919083D01*
X140163268Y-63924500D01*
X140760732Y-63924500D01*
X140763978Y-63924163D01*
X140763982Y-63924163D01*
X140798083Y-63920625D01*
X140863019Y-63913887D01*
X140907257Y-63899128D01*
X141018324Y-63862073D01*
X141018326Y-63862072D01*
X141025268Y-63859756D01*
X141170713Y-63769752D01*
X141291552Y-63648702D01*
X141314073Y-63612166D01*
X141377462Y-63509331D01*
X141377463Y-63509329D01*
X141381302Y-63503101D01*
X141435149Y-63340757D01*
X141445500Y-63239732D01*
X141445500Y-62692268D01*
X141442225Y-62660699D01*
X141441213Y-62650953D01*
X141434887Y-62589981D01*
X141407115Y-62506739D01*
X141383073Y-62434676D01*
X141383072Y-62434674D01*
X141380756Y-62427732D01*
X141356458Y-62388466D01*
X141294606Y-62288515D01*
X141290752Y-62282287D01*
X141169702Y-62161448D01*
X141084439Y-62108891D01*
X141030331Y-62075538D01*
X141030329Y-62075537D01*
X141024101Y-62071698D01*
X140861757Y-62017851D01*
X140854920Y-62017151D01*
X140854918Y-62017150D01*
X140813599Y-62012917D01*
X140760732Y-62007500D01*
X140163268Y-62007500D01*
X140160022Y-62007837D01*
X140160018Y-62007837D01*
X140129429Y-62011011D01*
X140060981Y-62018113D01*
X140054437Y-62020296D01*
X140054438Y-62020296D01*
X139905388Y-62070023D01*
X139865512Y-62076500D01*
X138208703Y-62076500D01*
X138171444Y-62070865D01*
X138079490Y-62042401D01*
X137988768Y-62014318D01*
X137982643Y-62013674D01*
X137982642Y-62013674D01*
X137798204Y-61994289D01*
X137798202Y-61994289D01*
X137792075Y-61993645D01*
X137709576Y-62001153D01*
X137601251Y-62011011D01*
X137601248Y-62011012D01*
X137595112Y-62011570D01*
X137589206Y-62013308D01*
X137589202Y-62013309D01*
X137453551Y-62053233D01*
X137405381Y-62067410D01*
X137404566Y-62067836D01*
X137359995Y-62076500D01*
X137328031Y-62076500D01*
X137268081Y-62061163D01*
X137261705Y-62056385D01*
X137125316Y-62005255D01*
X137063134Y-61998500D01*
X135966866Y-61998500D01*
X135904684Y-62005255D01*
X135768295Y-62056385D01*
X135651739Y-62143739D01*
X135564385Y-62260295D01*
X135513255Y-62396684D01*
X135506500Y-62458866D01*
X135506500Y-63555134D01*
X133350000Y-63555134D01*
X133350000Y-52070000D01*
X134811502Y-52070000D01*
X134831457Y-52298087D01*
X134832881Y-52303400D01*
X134832881Y-52303402D01*
X134889013Y-52512886D01*
X134890716Y-52519243D01*
X134893039Y-52524224D01*
X134893039Y-52524225D01*
X134987477Y-52726749D01*
X134985869Y-52727499D01*
X135000500Y-52782109D01*
X135000500Y-54317792D01*
X134981760Y-54383907D01*
X134971791Y-54400080D01*
X134917026Y-54565191D01*
X134906500Y-54667928D01*
X134906500Y-55267072D01*
X134906837Y-55270318D01*
X134906837Y-55270322D01*
X134916537Y-55363806D01*
X134917293Y-55371093D01*
X134919474Y-55377629D01*
X134919474Y-55377631D01*
X134950227Y-55469809D01*
X134972346Y-55536107D01*
X135063884Y-55684031D01*
X135069066Y-55689204D01*
X135181816Y-55801758D01*
X135181821Y-55801762D01*
X135186997Y-55806929D01*
X135193227Y-55810769D01*
X135193228Y-55810770D01*
X135328651Y-55894246D01*
X135335080Y-55898209D01*
X135500191Y-55952974D01*
X135507027Y-55953674D01*
X135507030Y-55953675D01*
X135557962Y-55958893D01*
X135602928Y-55963500D01*
X136177072Y-55963500D01*
X136180318Y-55963163D01*
X136180322Y-55963163D01*
X136274235Y-55953419D01*
X136274239Y-55953418D01*
X136281093Y-55952707D01*
X136287629Y-55950526D01*
X136287631Y-55950526D01*
X136436276Y-55900934D01*
X136446107Y-55897654D01*
X136594031Y-55806116D01*
X136610418Y-55789700D01*
X136711758Y-55688184D01*
X136711762Y-55688179D01*
X136716929Y-55683003D01*
X136720770Y-55676772D01*
X136804369Y-55541150D01*
X136804370Y-55541148D01*
X136808209Y-55534920D01*
X136862974Y-55369809D01*
X136864742Y-55352558D01*
X136871039Y-55291093D01*
X136873500Y-55267072D01*
X136873500Y-54667928D01*
X136873163Y-54664678D01*
X136863419Y-54570765D01*
X136863418Y-54570761D01*
X136862707Y-54563907D01*
X136807654Y-54398893D01*
X136798355Y-54383867D01*
X136779500Y-54317565D01*
X136779500Y-53274689D01*
X136799502Y-53206568D01*
X136833229Y-53171476D01*
X136964789Y-53079357D01*
X136964792Y-53079355D01*
X136969300Y-53076198D01*
X137049093Y-52996405D01*
X137111405Y-52962379D01*
X137138188Y-52959500D01*
X137414500Y-52959500D01*
X137482621Y-52979502D01*
X137529114Y-53033158D01*
X137540500Y-53085500D01*
X137540500Y-54317792D01*
X137521760Y-54383907D01*
X137511791Y-54400080D01*
X137457026Y-54565191D01*
X137446500Y-54667928D01*
X137446500Y-55367072D01*
X137446837Y-55370318D01*
X137446837Y-55370322D01*
X137456572Y-55464140D01*
X137457293Y-55471093D01*
X137459474Y-55477629D01*
X137459474Y-55477631D01*
X137497932Y-55592902D01*
X137512346Y-55636107D01*
X137603884Y-55784031D01*
X137609066Y-55789204D01*
X137721816Y-55901758D01*
X137721821Y-55901762D01*
X137726997Y-55906929D01*
X137733227Y-55910769D01*
X137733228Y-55910770D01*
X137818772Y-55963500D01*
X137875080Y-55998209D01*
X138040191Y-56052974D01*
X138047027Y-56053674D01*
X138047030Y-56053675D01*
X138093160Y-56058401D01*
X138142928Y-56063500D01*
X138717072Y-56063500D01*
X138720318Y-56063163D01*
X138720322Y-56063163D01*
X138814235Y-56053419D01*
X138814239Y-56053418D01*
X138821093Y-56052707D01*
X138827629Y-56050526D01*
X138827631Y-56050526D01*
X138971402Y-56002560D01*
X138986107Y-55997654D01*
X139134031Y-55906116D01*
X139142478Y-55897654D01*
X139251758Y-55788184D01*
X139251762Y-55788179D01*
X139256929Y-55783003D01*
X139303762Y-55707026D01*
X139344369Y-55641150D01*
X139344370Y-55641148D01*
X139348209Y-55634920D01*
X139402974Y-55469809D01*
X139413500Y-55367072D01*
X139413500Y-54667928D01*
X139413163Y-54664678D01*
X139403419Y-54570765D01*
X139403418Y-54570761D01*
X139402707Y-54563907D01*
X139347654Y-54398893D01*
X139338355Y-54383867D01*
X139319500Y-54317565D01*
X139319500Y-52518317D01*
X139330392Y-52467071D01*
X139335279Y-52456094D01*
X139338120Y-52450137D01*
X139342528Y-52441486D01*
X139368494Y-52390525D01*
X139371084Y-52380859D01*
X139372007Y-52377416D01*
X139378606Y-52358781D01*
X139381438Y-52352420D01*
X139384125Y-52346385D01*
X139385498Y-52339924D01*
X139385500Y-52339919D01*
X139398038Y-52280936D01*
X139399577Y-52274524D01*
X139408625Y-52240754D01*
X139416888Y-52209915D01*
X139417548Y-52197330D01*
X139417598Y-52196366D01*
X139420179Y-52176761D01*
X139420554Y-52174998D01*
X139423000Y-52163490D01*
X139423000Y-52096586D01*
X139423173Y-52089992D01*
X139426329Y-52029782D01*
X139426329Y-52029777D01*
X139426674Y-52023190D01*
X139424551Y-52009785D01*
X139423000Y-51990075D01*
X139423000Y-51976510D01*
X139409091Y-51911073D01*
X139407890Y-51904592D01*
X139401786Y-51866052D01*
X139397424Y-51838512D01*
X139395059Y-51832352D01*
X139395057Y-51832343D01*
X139392559Y-51825835D01*
X139386947Y-51806888D01*
X139385500Y-51800082D01*
X139385499Y-51800079D01*
X139384125Y-51793615D01*
X139379364Y-51782920D01*
X139356913Y-51732497D01*
X139354388Y-51726401D01*
X139332784Y-51670119D01*
X139332783Y-51670116D01*
X139330416Y-51663951D01*
X139323026Y-51652571D01*
X139313591Y-51635194D01*
X139310758Y-51628830D01*
X139310757Y-51628828D01*
X139308073Y-51622800D01*
X139268747Y-51568672D01*
X139265012Y-51563237D01*
X139232177Y-51512676D01*
X139232176Y-51512674D01*
X139228579Y-51507136D01*
X139218989Y-51497546D01*
X139206152Y-51482518D01*
X139198169Y-51471530D01*
X139148437Y-51426751D01*
X139143653Y-51422210D01*
X139096364Y-51374921D01*
X139090831Y-51371328D01*
X139090829Y-51371326D01*
X139084985Y-51367531D01*
X139069303Y-51355498D01*
X139064119Y-51350830D01*
X139064117Y-51350828D01*
X139059215Y-51346415D01*
X139001279Y-51312965D01*
X138995656Y-51309520D01*
X138945088Y-51276681D01*
X138939549Y-51273084D01*
X138933384Y-51270718D01*
X138933379Y-51270715D01*
X138926882Y-51268221D01*
X138909035Y-51259709D01*
X138903004Y-51256227D01*
X138897285Y-51252925D01*
X138885409Y-51249066D01*
X138833655Y-51232250D01*
X138827438Y-51230048D01*
X138771153Y-51208442D01*
X138771149Y-51208441D01*
X138764988Y-51206076D01*
X138758470Y-51205044D01*
X138758460Y-51205041D01*
X138751583Y-51203952D01*
X138732360Y-51199337D01*
X138725738Y-51197185D01*
X138725727Y-51197183D01*
X138719456Y-51195145D01*
X138712898Y-51194456D01*
X138712895Y-51194455D01*
X138685818Y-51191609D01*
X138652905Y-51188150D01*
X138646406Y-51187294D01*
X138580310Y-51176826D01*
X138573723Y-51177171D01*
X138573718Y-51177171D01*
X138513508Y-51180327D01*
X138506914Y-51180500D01*
X137138188Y-51180500D01*
X137070067Y-51160498D01*
X137049093Y-51143595D01*
X136969300Y-51063802D01*
X136964792Y-51060645D01*
X136964789Y-51060643D01*
X136826097Y-50963530D01*
X136781749Y-50932477D01*
X136776767Y-50930154D01*
X136776762Y-50930151D01*
X136579225Y-50838039D01*
X136579224Y-50838039D01*
X136574243Y-50835716D01*
X136568935Y-50834294D01*
X136568933Y-50834293D01*
X136358402Y-50777881D01*
X136358400Y-50777881D01*
X136353087Y-50776457D01*
X136125000Y-50756502D01*
X135896913Y-50776457D01*
X135891600Y-50777881D01*
X135891598Y-50777881D01*
X135681067Y-50834293D01*
X135681065Y-50834294D01*
X135675757Y-50835716D01*
X135670776Y-50838039D01*
X135670775Y-50838039D01*
X135473238Y-50930151D01*
X135473233Y-50930154D01*
X135468251Y-50932477D01*
X135423903Y-50963530D01*
X135285211Y-51060643D01*
X135285208Y-51060645D01*
X135280700Y-51063802D01*
X135118802Y-51225700D01*
X135115645Y-51230208D01*
X135115643Y-51230211D01*
X135060902Y-51308389D01*
X134987477Y-51413251D01*
X134985154Y-51418233D01*
X134985151Y-51418238D01*
X134917538Y-51563237D01*
X134890716Y-51620757D01*
X134889294Y-51626065D01*
X134889293Y-51626067D01*
X134832881Y-51836598D01*
X134831457Y-51841913D01*
X134811502Y-52070000D01*
X133350000Y-52070000D01*
X133350000Y-49656000D01*
X133370002Y-49587879D01*
X133423658Y-49541386D01*
X133476000Y-49530000D01*
X177546000Y-49530000D01*
X177546000Y-62624500D01*
G37*
%TD.AperFunction*%
%TA.AperFunction,Conductor*%
G36*
X199942957Y-70297109D02*
G01*
X200001102Y-70337848D01*
X200008168Y-70348459D01*
X200009385Y-70351705D01*
X200014771Y-70358891D01*
X200059112Y-70418056D01*
X200083959Y-70484562D01*
X200068906Y-70553944D01*
X200047380Y-70582715D01*
X198997747Y-71632348D01*
X198989461Y-71639888D01*
X198982982Y-71644000D01*
X198977557Y-71649777D01*
X198936357Y-71693651D01*
X198933602Y-71696493D01*
X198913865Y-71716230D01*
X198911385Y-71719427D01*
X198903682Y-71728447D01*
X198873414Y-71760679D01*
X198869595Y-71767625D01*
X198869593Y-71767628D01*
X198863652Y-71778434D01*
X198852801Y-71794953D01*
X198840386Y-71810959D01*
X198837241Y-71818228D01*
X198837238Y-71818232D01*
X198822826Y-71851537D01*
X198817609Y-71862187D01*
X198796305Y-71900940D01*
X198794334Y-71908615D01*
X198794334Y-71908616D01*
X198791267Y-71920562D01*
X198784863Y-71939266D01*
X198776819Y-71957855D01*
X198775580Y-71965678D01*
X198775577Y-71965688D01*
X198769901Y-72001524D01*
X198767495Y-72013144D01*
X198764009Y-72026724D01*
X198756500Y-72055970D01*
X198756500Y-72076224D01*
X198754949Y-72095934D01*
X198751780Y-72115943D01*
X198752526Y-72123835D01*
X198755941Y-72159961D01*
X198756500Y-72171819D01*
X198756500Y-75631405D01*
X198736498Y-75699526D01*
X198719595Y-75720500D01*
X196624500Y-77815595D01*
X196562188Y-77849621D01*
X196535405Y-77852500D01*
X196146422Y-77852500D01*
X196078301Y-77832498D01*
X196031808Y-77778842D01*
X196021704Y-77708568D01*
X196051198Y-77643988D01*
X196057311Y-77637421D01*
X196989494Y-76705239D01*
X196997808Y-76697675D01*
X197004303Y-76693553D01*
X197051086Y-76643734D01*
X197053840Y-76640893D01*
X197073639Y-76621094D01*
X197076063Y-76617969D01*
X197076071Y-76617960D01*
X197076137Y-76617874D01*
X197083845Y-76608849D01*
X197108790Y-76582285D01*
X197114217Y-76576506D01*
X197124023Y-76558669D01*
X197134873Y-76542153D01*
X197147350Y-76526067D01*
X197164976Y-76485334D01*
X197170193Y-76474686D01*
X197187749Y-76442751D01*
X197191569Y-76435803D01*
X197193540Y-76428128D01*
X197193542Y-76428122D01*
X197196631Y-76416089D01*
X197203034Y-76397387D01*
X197211117Y-76378708D01*
X197218060Y-76334873D01*
X197220467Y-76323251D01*
X197231500Y-76280282D01*
X197231500Y-76259935D01*
X197233051Y-76240224D01*
X197234995Y-76227950D01*
X197236235Y-76220121D01*
X197232059Y-76175944D01*
X197231500Y-76164086D01*
X197231500Y-72959422D01*
X197251502Y-72891301D01*
X197268405Y-72870327D01*
X198520312Y-71618421D01*
X199783483Y-70355250D01*
X199791809Y-70347674D01*
X199798303Y-70343553D01*
X199810806Y-70330238D01*
X199872017Y-70294272D01*
X199942957Y-70297109D01*
G37*
%TD.AperFunction*%
%TA.AperFunction,Conductor*%
G36*
X164269512Y-53901908D02*
G01*
X164275718Y-53907680D01*
X164275818Y-53907759D01*
X164280997Y-53912929D01*
X164287227Y-53916769D01*
X164287228Y-53916770D01*
X164417922Y-53997331D01*
X164429080Y-54004209D01*
X164594191Y-54058974D01*
X164601027Y-54059674D01*
X164601030Y-54059675D01*
X164642631Y-54063937D01*
X164696928Y-54069500D01*
X165078167Y-54069500D01*
X165146288Y-54089502D01*
X165167262Y-54106405D01*
X175273311Y-64212454D01*
X175286148Y-64227482D01*
X175294131Y-64238470D01*
X175299033Y-64242883D01*
X175299034Y-64242885D01*
X175343863Y-64283249D01*
X175348647Y-64287790D01*
X175362794Y-64301937D01*
X175365359Y-64304014D01*
X175378354Y-64314537D01*
X175383368Y-64318819D01*
X175388913Y-64323812D01*
X175428181Y-64359170D01*
X175428185Y-64359173D01*
X175433085Y-64363585D01*
X175438795Y-64366881D01*
X175438798Y-64366884D01*
X175444845Y-64370375D01*
X175461130Y-64381568D01*
X175471675Y-64390107D01*
X175531280Y-64420477D01*
X175537076Y-64423624D01*
X175595015Y-64457075D01*
X175607925Y-64461270D01*
X175626184Y-64468833D01*
X175638276Y-64474994D01*
X175702938Y-64492320D01*
X175709186Y-64494172D01*
X175772844Y-64514855D01*
X175786336Y-64516273D01*
X175805780Y-64519877D01*
X175812505Y-64521679D01*
X175812510Y-64521680D01*
X175818885Y-64523388D01*
X175825475Y-64523733D01*
X175825479Y-64523734D01*
X175885680Y-64526889D01*
X175892255Y-64527406D01*
X175912180Y-64529500D01*
X175932214Y-64529500D01*
X175938808Y-64529673D01*
X175999018Y-64532829D01*
X175999023Y-64532829D01*
X176005610Y-64533174D01*
X176012125Y-64532142D01*
X176012127Y-64532142D01*
X176019014Y-64531051D01*
X176038725Y-64529500D01*
X177420000Y-64529500D01*
X177488121Y-64549502D01*
X177534614Y-64603158D01*
X177546000Y-64655500D01*
X177546000Y-66054500D01*
X177525998Y-66122621D01*
X177472342Y-66169114D01*
X177420000Y-66180500D01*
X176539984Y-66180500D01*
X176513787Y-66177747D01*
X176377944Y-66148872D01*
X176377939Y-66148872D01*
X176371487Y-66147500D01*
X176180513Y-66147500D01*
X176174061Y-66148872D01*
X176174056Y-66148872D01*
X176038213Y-66177747D01*
X176012016Y-66180500D01*
X175545719Y-66180500D01*
X175519522Y-66177747D01*
X175449544Y-66162872D01*
X175449539Y-66162872D01*
X175443087Y-66161500D01*
X175252113Y-66161500D01*
X175245661Y-66162872D01*
X175245656Y-66162872D01*
X175158712Y-66181353D01*
X175065312Y-66201206D01*
X175059282Y-66203891D01*
X175059281Y-66203891D01*
X174896878Y-66276197D01*
X174896876Y-66276198D01*
X174890848Y-66278882D01*
X174736347Y-66391134D01*
X174731926Y-66396044D01*
X174731925Y-66396045D01*
X174614033Y-66526978D01*
X174608560Y-66533056D01*
X174513073Y-66698444D01*
X174454058Y-66880072D01*
X174453368Y-66886633D01*
X174453368Y-66886635D01*
X174440732Y-67006866D01*
X174434096Y-67070000D01*
X174434786Y-67076565D01*
X174452005Y-67240391D01*
X174454058Y-67259928D01*
X174513073Y-67441556D01*
X174516376Y-67447278D01*
X174516377Y-67447279D01*
X174521719Y-67456531D01*
X174608560Y-67606944D01*
X174612978Y-67611851D01*
X174612979Y-67611852D01*
X174699992Y-67708490D01*
X174736347Y-67748866D01*
X174828509Y-67815826D01*
X174881599Y-67854398D01*
X174890848Y-67861118D01*
X174896876Y-67863802D01*
X174896878Y-67863803D01*
X175048718Y-67931406D01*
X175065312Y-67938794D01*
X175158713Y-67958647D01*
X175245656Y-67977128D01*
X175245661Y-67977128D01*
X175252113Y-67978500D01*
X175443087Y-67978500D01*
X175449539Y-67977128D01*
X175449544Y-67977128D01*
X175515410Y-67963127D01*
X175519523Y-67962253D01*
X175545719Y-67959500D01*
X176143745Y-67959500D01*
X176169943Y-67962254D01*
X176174049Y-67963127D01*
X176174058Y-67963128D01*
X176180513Y-67964500D01*
X176371487Y-67964500D01*
X176377942Y-67963128D01*
X176377951Y-67963127D01*
X176382057Y-67962254D01*
X176408255Y-67959500D01*
X177420000Y-67959500D01*
X177488121Y-67979502D01*
X177534614Y-68033158D01*
X177546000Y-68085500D01*
X177546000Y-76015906D01*
X177525998Y-76084027D01*
X177472342Y-76130520D01*
X177402068Y-76140624D01*
X177337488Y-76111130D01*
X177330905Y-76105001D01*
X171454439Y-70228534D01*
X163875405Y-62649500D01*
X163841379Y-62587188D01*
X163838500Y-62560405D01*
X163838500Y-57160427D01*
X163858502Y-57092306D01*
X163899618Y-57052550D01*
X163902994Y-57050896D01*
X164084860Y-56921173D01*
X164133429Y-56872774D01*
X164195313Y-56811105D01*
X164243096Y-56763489D01*
X164267132Y-56730040D01*
X164370435Y-56586277D01*
X164373453Y-56582077D01*
X164388917Y-56550789D01*
X164470136Y-56386453D01*
X164470137Y-56386451D01*
X164472430Y-56381811D01*
X164529174Y-56195044D01*
X164535865Y-56173023D01*
X164535865Y-56173021D01*
X164537370Y-56168069D01*
X164566529Y-55946590D01*
X164566611Y-55943240D01*
X164568074Y-55883365D01*
X164568074Y-55883361D01*
X164568156Y-55880000D01*
X164549852Y-55657361D01*
X164495431Y-55440702D01*
X164406354Y-55235840D01*
X164285014Y-55048277D01*
X164134670Y-54883051D01*
X164129873Y-54879263D01*
X164108907Y-54862704D01*
X164067845Y-54804787D01*
X164061000Y-54763823D01*
X164061000Y-53997132D01*
X164081002Y-53929011D01*
X164134658Y-53882518D01*
X164204932Y-53872414D01*
X164269512Y-53901908D01*
G37*
%TD.AperFunction*%
%TA.AperFunction,Conductor*%
G36*
X197453012Y-58903370D02*
G01*
X197459595Y-58909499D01*
X198442878Y-59892782D01*
X198476904Y-59955094D01*
X198479092Y-59968703D01*
X198496458Y-60133928D01*
X198555473Y-60315556D01*
X198650960Y-60480944D01*
X198778747Y-60622866D01*
X198933248Y-60735118D01*
X198939276Y-60737802D01*
X198939278Y-60737803D01*
X199005748Y-60767397D01*
X199107712Y-60812794D01*
X199201113Y-60832647D01*
X199288056Y-60851128D01*
X199288061Y-60851128D01*
X199294513Y-60852500D01*
X199485487Y-60852500D01*
X199491939Y-60851128D01*
X199491944Y-60851128D01*
X199578887Y-60832647D01*
X199672288Y-60812794D01*
X199774252Y-60767397D01*
X199844618Y-60757963D01*
X199908915Y-60788069D01*
X199946729Y-60848158D01*
X199951500Y-60882504D01*
X199951500Y-61470500D01*
X199931498Y-61538621D01*
X199877842Y-61585114D01*
X199825500Y-61596500D01*
X199214768Y-61596500D01*
X199203585Y-61595973D01*
X199196092Y-61594298D01*
X199188166Y-61594547D01*
X199188165Y-61594547D01*
X199128002Y-61596438D01*
X199124044Y-61596500D01*
X199096144Y-61596500D01*
X199092154Y-61597004D01*
X199080320Y-61597936D01*
X199036111Y-61599326D01*
X199028497Y-61601538D01*
X199028492Y-61601539D01*
X199016659Y-61604977D01*
X198997296Y-61608988D01*
X198977203Y-61611526D01*
X198969836Y-61614443D01*
X198969831Y-61614444D01*
X198936092Y-61627802D01*
X198924865Y-61631646D01*
X198882407Y-61643982D01*
X198875581Y-61648019D01*
X198864972Y-61654293D01*
X198847224Y-61662988D01*
X198828383Y-61670448D01*
X198821967Y-61675110D01*
X198821966Y-61675110D01*
X198792613Y-61696436D01*
X198782693Y-61702952D01*
X198751465Y-61721420D01*
X198751462Y-61721422D01*
X198744638Y-61725458D01*
X198730317Y-61739779D01*
X198715284Y-61752619D01*
X198698893Y-61764528D01*
X198685744Y-61780423D01*
X198670712Y-61798593D01*
X198662722Y-61807374D01*
X197981742Y-62488353D01*
X197973463Y-62495887D01*
X197966982Y-62500000D01*
X197951839Y-62516126D01*
X197920357Y-62549651D01*
X197917602Y-62552493D01*
X197897865Y-62572230D01*
X197895385Y-62575427D01*
X197887682Y-62584447D01*
X197857414Y-62616679D01*
X197853595Y-62623625D01*
X197853593Y-62623628D01*
X197847652Y-62634434D01*
X197836801Y-62650953D01*
X197824386Y-62666959D01*
X197821241Y-62674228D01*
X197821238Y-62674232D01*
X197806826Y-62707537D01*
X197801609Y-62718187D01*
X197780305Y-62756940D01*
X197778334Y-62764615D01*
X197778334Y-62764616D01*
X197775267Y-62776562D01*
X197768863Y-62795266D01*
X197760819Y-62813855D01*
X197759580Y-62821678D01*
X197759577Y-62821688D01*
X197753901Y-62857524D01*
X197751495Y-62869144D01*
X197743429Y-62900563D01*
X197740500Y-62911970D01*
X197740500Y-62932224D01*
X197738949Y-62951934D01*
X197735780Y-62971943D01*
X197736526Y-62979835D01*
X197739941Y-63015961D01*
X197740500Y-63027819D01*
X197740500Y-63185406D01*
X197720498Y-63253527D01*
X197703595Y-63274501D01*
X193803010Y-67175085D01*
X193795006Y-67182143D01*
X193790402Y-67184865D01*
X193154517Y-67820750D01*
X193146191Y-67828326D01*
X193139697Y-67832447D01*
X193134274Y-67838222D01*
X193092915Y-67882265D01*
X193090160Y-67885107D01*
X193070361Y-67904906D01*
X193067937Y-67908031D01*
X193067929Y-67908040D01*
X193067863Y-67908126D01*
X193060155Y-67917151D01*
X193029783Y-67949494D01*
X193025965Y-67956438D01*
X193025964Y-67956440D01*
X193019978Y-67967329D01*
X193009127Y-67983847D01*
X192996650Y-67999933D01*
X192979024Y-68040666D01*
X192973807Y-68051314D01*
X192952431Y-68090197D01*
X192950460Y-68097872D01*
X192950458Y-68097878D01*
X192947369Y-68109911D01*
X192940966Y-68128613D01*
X192932883Y-68147292D01*
X192931644Y-68155117D01*
X192925940Y-68191127D01*
X192923535Y-68202740D01*
X192912500Y-68245718D01*
X192912500Y-68266065D01*
X192910949Y-68285776D01*
X192907765Y-68305879D01*
X192908511Y-68313771D01*
X192911941Y-68350056D01*
X192912500Y-68361914D01*
X192912500Y-74106577D01*
X192892498Y-74174698D01*
X192875595Y-74195672D01*
X192803672Y-74267595D01*
X192741360Y-74301621D01*
X192714577Y-74304500D01*
X192658000Y-74304500D01*
X192589879Y-74284498D01*
X192543386Y-74230842D01*
X192532000Y-74178500D01*
X192532000Y-64556133D01*
X192552002Y-64488012D01*
X192568905Y-64467038D01*
X196927454Y-60108489D01*
X196942482Y-60095652D01*
X196953470Y-60087669D01*
X196967579Y-60072000D01*
X196998249Y-60037937D01*
X197002790Y-60033153D01*
X197016937Y-60019006D01*
X197029537Y-60003446D01*
X197033825Y-59998425D01*
X197074170Y-59953619D01*
X197074173Y-59953615D01*
X197078585Y-59948715D01*
X197081881Y-59943005D01*
X197081884Y-59943002D01*
X197085375Y-59936955D01*
X197096568Y-59920670D01*
X197100950Y-59915258D01*
X197105107Y-59910125D01*
X197135477Y-59850520D01*
X197138624Y-59844724D01*
X197155844Y-59814898D01*
X197172075Y-59786785D01*
X197176270Y-59773875D01*
X197183833Y-59755616D01*
X197189994Y-59743524D01*
X197207309Y-59678906D01*
X197209182Y-59672582D01*
X197218732Y-59643190D01*
X197229855Y-59608956D01*
X197231272Y-59595470D01*
X197234876Y-59576023D01*
X197236680Y-59569293D01*
X197236680Y-59569292D01*
X197238389Y-59562915D01*
X197241083Y-59511513D01*
X197241890Y-59496113D01*
X197242407Y-59489539D01*
X197244156Y-59472895D01*
X197244156Y-59472891D01*
X197244500Y-59469620D01*
X197244500Y-59449593D01*
X197244673Y-59442999D01*
X197247829Y-59382782D01*
X197247829Y-59382778D01*
X197248174Y-59376190D01*
X197246051Y-59362785D01*
X197244500Y-59343075D01*
X197244500Y-58998594D01*
X197264502Y-58930473D01*
X197318158Y-58883980D01*
X197388432Y-58873876D01*
X197453012Y-58903370D01*
G37*
%TD.AperFunction*%
%TA.AperFunction,Conductor*%
G36*
X199893554Y-67060502D02*
G01*
X199926257Y-67090932D01*
X199946739Y-67118261D01*
X200063295Y-67205615D01*
X200199684Y-67256745D01*
X200261866Y-67263500D01*
X201275500Y-67263500D01*
X201343621Y-67283502D01*
X201390114Y-67337158D01*
X201401500Y-67389500D01*
X201401500Y-67453134D01*
X201401869Y-67456531D01*
X201405787Y-67492593D01*
X201408255Y-67515316D01*
X201411027Y-67522710D01*
X201412855Y-67530398D01*
X201410886Y-67530866D01*
X201415298Y-67591068D01*
X201381382Y-67653439D01*
X201319130Y-67687573D01*
X201292131Y-67690500D01*
X200231032Y-67690500D01*
X200219793Y-67689970D01*
X200212281Y-67688291D01*
X200204356Y-67688540D01*
X200204355Y-67688540D01*
X200143970Y-67690438D01*
X200140012Y-67690500D01*
X200112017Y-67690500D01*
X200108083Y-67690997D01*
X200108081Y-67690997D01*
X200107994Y-67691008D01*
X200096160Y-67691940D01*
X200051795Y-67693335D01*
X200044182Y-67695547D01*
X200044181Y-67695547D01*
X200032252Y-67699013D01*
X200012888Y-67703023D01*
X200000560Y-67704580D01*
X200000558Y-67704580D01*
X199992701Y-67705573D01*
X199985337Y-67708489D01*
X199985332Y-67708490D01*
X199951444Y-67721907D01*
X199940215Y-67725752D01*
X199923535Y-67730598D01*
X199897607Y-67738131D01*
X199890780Y-67742169D01*
X199890777Y-67742170D01*
X199880094Y-67748488D01*
X199862336Y-67757188D01*
X199850785Y-67761761D01*
X199850779Y-67761765D01*
X199843412Y-67764681D01*
X199837001Y-67769339D01*
X199836999Y-67769340D01*
X199807512Y-67790764D01*
X199797590Y-67797281D01*
X199766232Y-67815826D01*
X199766228Y-67815829D01*
X199759402Y-67819866D01*
X199745018Y-67834250D01*
X199729984Y-67847091D01*
X199713513Y-67859058D01*
X199694315Y-67882265D01*
X199685227Y-67893250D01*
X199677237Y-67902031D01*
X199224595Y-68354672D01*
X199162283Y-68388697D01*
X199091467Y-68383632D01*
X199034632Y-68341085D01*
X199009821Y-68274565D01*
X199009500Y-68265576D01*
X199009500Y-67339422D01*
X199029502Y-67271301D01*
X199046405Y-67250327D01*
X199219327Y-67077405D01*
X199281639Y-67043379D01*
X199308422Y-67040500D01*
X199825433Y-67040500D01*
X199893554Y-67060502D01*
G37*
%TD.AperFunction*%
%TA.AperFunction,Conductor*%
G36*
X199648930Y-62883502D02*
G01*
X199667061Y-62897649D01*
X199709666Y-62937657D01*
X199712509Y-62940413D01*
X199732230Y-62960134D01*
X199735425Y-62962612D01*
X199744447Y-62970318D01*
X199776679Y-63000586D01*
X199783628Y-63004406D01*
X199794432Y-63010346D01*
X199810956Y-63021199D01*
X199826959Y-63033613D01*
X199867543Y-63051176D01*
X199878173Y-63056383D01*
X199916940Y-63077695D01*
X199924617Y-63079666D01*
X199924622Y-63079668D01*
X199936558Y-63082732D01*
X199955266Y-63089137D01*
X199973855Y-63097181D01*
X199981683Y-63098421D01*
X199981690Y-63098423D01*
X200017524Y-63104099D01*
X200029144Y-63106505D01*
X200052242Y-63112435D01*
X200071970Y-63117500D01*
X200092224Y-63117500D01*
X200111934Y-63119051D01*
X200131943Y-63122220D01*
X200139835Y-63121474D01*
X200166007Y-63119000D01*
X200175962Y-63118059D01*
X200187819Y-63117500D01*
X200563887Y-63117500D01*
X200574540Y-63118171D01*
X200579718Y-63119500D01*
X201292131Y-63119500D01*
X201360252Y-63139502D01*
X201406745Y-63193158D01*
X201416849Y-63263432D01*
X201412715Y-63279569D01*
X201412855Y-63279602D01*
X201411027Y-63287290D01*
X201408255Y-63294684D01*
X201407402Y-63302532D01*
X201407402Y-63302534D01*
X201403993Y-63333918D01*
X201401500Y-63356866D01*
X201401500Y-63420500D01*
X201381498Y-63488621D01*
X201327842Y-63535114D01*
X201275500Y-63546500D01*
X200261866Y-63546500D01*
X200199684Y-63553255D01*
X200063295Y-63604385D01*
X199946739Y-63691739D01*
X199926258Y-63719067D01*
X199869399Y-63761580D01*
X199825433Y-63769500D01*
X199121291Y-63769500D01*
X199053170Y-63749498D01*
X199006677Y-63695842D01*
X198996573Y-63625568D01*
X198999249Y-63612166D01*
X199005529Y-63587708D01*
X199005529Y-63587706D01*
X199007500Y-63580030D01*
X199007500Y-63559776D01*
X199009051Y-63540065D01*
X199010980Y-63527886D01*
X199012220Y-63520057D01*
X199008059Y-63476038D01*
X199007500Y-63464181D01*
X199007500Y-63306595D01*
X199027502Y-63238474D01*
X199044405Y-63217499D01*
X199361501Y-62900404D01*
X199423813Y-62866379D01*
X199450596Y-62863500D01*
X199580809Y-62863500D01*
X199648930Y-62883502D01*
G37*
%TD.AperFunction*%
%TA.AperFunction,Conductor*%
G36*
X192813621Y-53218502D02*
G01*
X192860114Y-53272158D01*
X192871500Y-53324500D01*
X192871500Y-53556502D01*
X192871693Y-53558950D01*
X192871693Y-53558958D01*
X192873546Y-53582497D01*
X192874438Y-53593831D01*
X192890569Y-53649354D01*
X192918116Y-53744172D01*
X192920855Y-53753601D01*
X192924892Y-53760427D01*
X193001509Y-53889980D01*
X193001511Y-53889983D01*
X193005547Y-53896807D01*
X193123193Y-54014453D01*
X193130017Y-54018489D01*
X193130020Y-54018491D01*
X193216272Y-54069500D01*
X193266399Y-54099145D01*
X193274010Y-54101356D01*
X193274012Y-54101357D01*
X193325682Y-54116368D01*
X193426169Y-54145562D01*
X193432574Y-54146066D01*
X193432579Y-54146067D01*
X193461042Y-54148307D01*
X193461050Y-54148307D01*
X193463498Y-54148500D01*
X194771502Y-54148500D01*
X194773950Y-54148307D01*
X194773958Y-54148307D01*
X194802421Y-54146067D01*
X194802426Y-54146066D01*
X194808831Y-54145562D01*
X194909318Y-54116368D01*
X194960988Y-54101357D01*
X194960990Y-54101356D01*
X194968601Y-54099145D01*
X195018728Y-54069500D01*
X195104980Y-54018491D01*
X195104983Y-54018489D01*
X195111807Y-54014453D01*
X195229453Y-53896807D01*
X195233489Y-53889983D01*
X195233491Y-53889980D01*
X195305381Y-53768420D01*
X195357273Y-53719967D01*
X195427124Y-53707262D01*
X195492755Y-53734337D01*
X195520976Y-53766252D01*
X195528884Y-53779031D01*
X195534066Y-53784204D01*
X195635786Y-53885747D01*
X195669865Y-53948030D01*
X195664862Y-54018850D01*
X195635941Y-54063937D01*
X195533246Y-54166812D01*
X195533242Y-54166817D01*
X195528071Y-54171997D01*
X195524231Y-54178227D01*
X195524230Y-54178228D01*
X195447917Y-54302031D01*
X195436791Y-54320080D01*
X195382026Y-54485191D01*
X195371500Y-54587928D01*
X195371500Y-55187072D01*
X195371837Y-55190318D01*
X195371837Y-55190322D01*
X195381245Y-55280989D01*
X195382293Y-55291093D01*
X195384474Y-55297629D01*
X195384474Y-55297631D01*
X195410732Y-55376335D01*
X195437346Y-55456107D01*
X195446645Y-55471133D01*
X195465500Y-55537435D01*
X195465500Y-55918071D01*
X195459093Y-55957738D01*
X195406851Y-56115243D01*
X195406151Y-56122080D01*
X195406150Y-56122082D01*
X195402729Y-56155471D01*
X195396500Y-56216268D01*
X195396500Y-56813732D01*
X195407113Y-56916019D01*
X195409296Y-56922562D01*
X195459023Y-57071612D01*
X195465500Y-57111488D01*
X195465500Y-59002367D01*
X195445498Y-59070488D01*
X195428595Y-59091462D01*
X192747095Y-61772962D01*
X192684783Y-61806988D01*
X192613968Y-61801923D01*
X192557132Y-61759376D01*
X192532321Y-61692856D01*
X192532000Y-61683867D01*
X192532000Y-60595648D01*
X192552002Y-60527527D01*
X192605658Y-60481034D01*
X192675932Y-60470930D01*
X192709595Y-60482585D01*
X192710248Y-60481118D01*
X192884712Y-60558794D01*
X192978113Y-60578647D01*
X193065056Y-60597128D01*
X193065061Y-60597128D01*
X193071513Y-60598500D01*
X193262487Y-60598500D01*
X193268939Y-60597128D01*
X193268944Y-60597128D01*
X193355887Y-60578647D01*
X193449288Y-60558794D01*
X193455319Y-60556109D01*
X193617722Y-60483803D01*
X193617724Y-60483802D01*
X193623752Y-60481118D01*
X193643593Y-60466703D01*
X193679157Y-60440864D01*
X193778253Y-60368866D01*
X193807522Y-60336360D01*
X193901621Y-60231852D01*
X193901622Y-60231851D01*
X193906040Y-60226944D01*
X193986451Y-60087669D01*
X193998223Y-60067279D01*
X193998224Y-60067278D01*
X194001527Y-60061556D01*
X194060542Y-59879928D01*
X194062877Y-59857718D01*
X194079814Y-59696565D01*
X194080504Y-59690000D01*
X194067285Y-59564229D01*
X194061232Y-59506635D01*
X194061232Y-59506633D01*
X194060542Y-59500072D01*
X194001527Y-59318444D01*
X193988868Y-59296517D01*
X193938876Y-59209929D01*
X193906040Y-59153056D01*
X193832863Y-59071785D01*
X193802147Y-59007779D01*
X193800500Y-58987476D01*
X193800500Y-58763263D01*
X193801027Y-58752079D01*
X193802701Y-58744591D01*
X193800562Y-58676532D01*
X193800500Y-58672575D01*
X193800500Y-58644644D01*
X193799994Y-58640638D01*
X193799061Y-58628792D01*
X193798956Y-58625431D01*
X193797673Y-58584610D01*
X193792022Y-58565158D01*
X193788014Y-58545806D01*
X193786467Y-58533563D01*
X193785474Y-58525703D01*
X193772193Y-58492158D01*
X193769200Y-58484597D01*
X193765355Y-58473370D01*
X193761942Y-58461623D01*
X193753018Y-58430907D01*
X193748984Y-58424085D01*
X193748981Y-58424079D01*
X193742706Y-58413468D01*
X193734010Y-58395718D01*
X193729472Y-58384256D01*
X193729469Y-58384251D01*
X193726552Y-58376883D01*
X193709383Y-58353252D01*
X193700573Y-58341125D01*
X193694057Y-58331207D01*
X193683005Y-58312519D01*
X193671542Y-58293137D01*
X193657218Y-58278813D01*
X193644376Y-58263778D01*
X193632472Y-58247393D01*
X193598406Y-58219211D01*
X193589627Y-58211222D01*
X192532000Y-57153595D01*
X192532000Y-53198500D01*
X192745500Y-53198500D01*
X192813621Y-53218502D01*
G37*
%TD.AperFunction*%
%TA.AperFunction,Conductor*%
G36*
X203474866Y-55300991D02*
G01*
X203513888Y-55340685D01*
X203539648Y-55382313D01*
X203660698Y-55503152D01*
X203666928Y-55506992D01*
X203666929Y-55506993D01*
X203738262Y-55550963D01*
X203806299Y-55592902D01*
X203968643Y-55646749D01*
X203975480Y-55647449D01*
X203975482Y-55647450D01*
X204016801Y-55651683D01*
X204069668Y-55657100D01*
X204667132Y-55657100D01*
X204670378Y-55656763D01*
X204670382Y-55656763D01*
X204712989Y-55652342D01*
X204769419Y-55646487D01*
X204835112Y-55624570D01*
X204924724Y-55594673D01*
X204924726Y-55594672D01*
X204931668Y-55592356D01*
X205039437Y-55525667D01*
X205107888Y-55506829D01*
X205175658Y-55527990D01*
X205194834Y-55543716D01*
X206139595Y-56488477D01*
X206173621Y-56550789D01*
X206176500Y-56577572D01*
X206176500Y-57145577D01*
X206156498Y-57213698D01*
X206102842Y-57260191D01*
X206032568Y-57270295D01*
X205967988Y-57240801D01*
X205961404Y-57234672D01*
X205947368Y-57220635D01*
X205737245Y-57010512D01*
X205729675Y-57002193D01*
X205725553Y-56995697D01*
X205675734Y-56948914D01*
X205672893Y-56946160D01*
X205653094Y-56926361D01*
X205649969Y-56923937D01*
X205649960Y-56923929D01*
X205649874Y-56923863D01*
X205640849Y-56916155D01*
X205614285Y-56891210D01*
X205608506Y-56885783D01*
X205590669Y-56875977D01*
X205574153Y-56865127D01*
X205558067Y-56852650D01*
X205517334Y-56835024D01*
X205506686Y-56829807D01*
X205477445Y-56813732D01*
X205467803Y-56808431D01*
X205460128Y-56806460D01*
X205460122Y-56806458D01*
X205448089Y-56803369D01*
X205429387Y-56796966D01*
X205410708Y-56788883D01*
X205410707Y-56788883D01*
X205410705Y-56788882D01*
X205411646Y-56786708D01*
X205363503Y-56756509D01*
X205335253Y-56725134D01*
X205180752Y-56612882D01*
X205174724Y-56610198D01*
X205174722Y-56610197D01*
X205012319Y-56537891D01*
X205012318Y-56537891D01*
X205006288Y-56535206D01*
X204887723Y-56510004D01*
X204825944Y-56496872D01*
X204825939Y-56496872D01*
X204819487Y-56495500D01*
X204628513Y-56495500D01*
X204622061Y-56496872D01*
X204622056Y-56496872D01*
X204560277Y-56510004D01*
X204441712Y-56535206D01*
X204435682Y-56537891D01*
X204435681Y-56537891D01*
X204273278Y-56610197D01*
X204273276Y-56610198D01*
X204267248Y-56612882D01*
X204112747Y-56725134D01*
X204108326Y-56730044D01*
X204108325Y-56730045D01*
X204034307Y-56812251D01*
X203984960Y-56867056D01*
X203889473Y-57032444D01*
X203830458Y-57214072D01*
X203829768Y-57220633D01*
X203829768Y-57220635D01*
X203815520Y-57356203D01*
X203810496Y-57404000D01*
X203830458Y-57593928D01*
X203889473Y-57775556D01*
X203984960Y-57940944D01*
X203989378Y-57945851D01*
X203989379Y-57945852D01*
X204070223Y-58035638D01*
X204112747Y-58082866D01*
X204118088Y-58086746D01*
X204118093Y-58086751D01*
X204190625Y-58139449D01*
X204233978Y-58195671D01*
X204240053Y-58266407D01*
X204236396Y-58280320D01*
X204224347Y-58317403D01*
X204211458Y-58357072D01*
X204210768Y-58363633D01*
X204210768Y-58363635D01*
X204205492Y-58413832D01*
X204191496Y-58547000D01*
X204192186Y-58553565D01*
X204199062Y-58618990D01*
X204195166Y-58662638D01*
X204194883Y-58663292D01*
X204193187Y-58674000D01*
X204187940Y-58707127D01*
X204185535Y-58718740D01*
X204178975Y-58744290D01*
X204142662Y-58805294D01*
X204079130Y-58836984D01*
X204005686Y-58828061D01*
X203996323Y-58823892D01*
X203996315Y-58823889D01*
X203990288Y-58821206D01*
X203896887Y-58801353D01*
X203809944Y-58782872D01*
X203809939Y-58782872D01*
X203803487Y-58781500D01*
X203691197Y-58781500D01*
X203623076Y-58761498D01*
X203576583Y-58707842D01*
X203571364Y-58694437D01*
X203565547Y-58676533D01*
X203526527Y-58556444D01*
X203521075Y-58547000D01*
X203454048Y-58430907D01*
X203431040Y-58391056D01*
X203381748Y-58336311D01*
X203307675Y-58254045D01*
X203307674Y-58254044D01*
X203303253Y-58249134D01*
X203148752Y-58136882D01*
X203142724Y-58134198D01*
X203142722Y-58134197D01*
X202980319Y-58061891D01*
X202980318Y-58061891D01*
X202974288Y-58059206D01*
X202863410Y-58035638D01*
X202793944Y-58020872D01*
X202793939Y-58020872D01*
X202787487Y-58019500D01*
X202596513Y-58019500D01*
X202590061Y-58020872D01*
X202590056Y-58020872D01*
X202417578Y-58057534D01*
X202346787Y-58052132D01*
X202302286Y-58023382D01*
X202300221Y-58021317D01*
X202287380Y-58006283D01*
X202280132Y-57996307D01*
X202275472Y-57989893D01*
X202241407Y-57961712D01*
X202232626Y-57953722D01*
X201671647Y-57392742D01*
X201664113Y-57384463D01*
X201660000Y-57377982D01*
X201610348Y-57331356D01*
X201607507Y-57328602D01*
X201587770Y-57308865D01*
X201584573Y-57306385D01*
X201575551Y-57298680D01*
X201549100Y-57273841D01*
X201543321Y-57268414D01*
X201536375Y-57264595D01*
X201536372Y-57264593D01*
X201525566Y-57258652D01*
X201509047Y-57247801D01*
X201508583Y-57247441D01*
X201493041Y-57235386D01*
X201485772Y-57232241D01*
X201485768Y-57232238D01*
X201452463Y-57217826D01*
X201441813Y-57212609D01*
X201403060Y-57191305D01*
X201383437Y-57186267D01*
X201364734Y-57179863D01*
X201353420Y-57174967D01*
X201353419Y-57174967D01*
X201346145Y-57171819D01*
X201338322Y-57170580D01*
X201338312Y-57170577D01*
X201302476Y-57164901D01*
X201290856Y-57162495D01*
X201255711Y-57153472D01*
X201255710Y-57153472D01*
X201248030Y-57151500D01*
X201227776Y-57151500D01*
X201208065Y-57149949D01*
X201195886Y-57148020D01*
X201188057Y-57146780D01*
X201180165Y-57147526D01*
X201144039Y-57150941D01*
X201132181Y-57151500D01*
X199991816Y-57151500D01*
X199923695Y-57131498D01*
X199882697Y-57088500D01*
X199837670Y-57010512D01*
X199798840Y-56943256D01*
X199781379Y-56923863D01*
X199675475Y-56806245D01*
X199675474Y-56806244D01*
X199671053Y-56801334D01*
X199516552Y-56689082D01*
X199510524Y-56686398D01*
X199510522Y-56686397D01*
X199342088Y-56611406D01*
X199343096Y-56609142D01*
X199293735Y-56575398D01*
X199266091Y-56510004D01*
X199278190Y-56440046D01*
X199302173Y-56406532D01*
X199426653Y-56282052D01*
X199434939Y-56274512D01*
X199441418Y-56270400D01*
X199449855Y-56261416D01*
X199488043Y-56220749D01*
X199490798Y-56217907D01*
X199510535Y-56198170D01*
X199513015Y-56194973D01*
X199520720Y-56185951D01*
X199545559Y-56159500D01*
X199550986Y-56153721D01*
X199554805Y-56146775D01*
X199554807Y-56146772D01*
X199560748Y-56135966D01*
X199571599Y-56119447D01*
X199574860Y-56115243D01*
X199584014Y-56103441D01*
X199587159Y-56096172D01*
X199587162Y-56096168D01*
X199601574Y-56062863D01*
X199606791Y-56052213D01*
X199628095Y-56013460D01*
X199633133Y-55993837D01*
X199639527Y-55975157D01*
X199639905Y-55974283D01*
X199685304Y-55919699D01*
X199755552Y-55898300D01*
X200195672Y-55898300D01*
X200198918Y-55897963D01*
X200198922Y-55897963D01*
X200292835Y-55888219D01*
X200292839Y-55888218D01*
X200299693Y-55887507D01*
X200306229Y-55885326D01*
X200306231Y-55885326D01*
X200447655Y-55838143D01*
X200464707Y-55832454D01*
X200612631Y-55740916D01*
X200651416Y-55702063D01*
X200730358Y-55622984D01*
X200730362Y-55622979D01*
X200735529Y-55617803D01*
X200741457Y-55608186D01*
X200743486Y-55606359D01*
X200743907Y-55605827D01*
X200743998Y-55605899D01*
X200794228Y-55560692D01*
X200848718Y-55548300D01*
X201316611Y-55548300D01*
X201327794Y-55548827D01*
X201335287Y-55550502D01*
X201343213Y-55550253D01*
X201343214Y-55550253D01*
X201403364Y-55548362D01*
X201407323Y-55548300D01*
X201435234Y-55548300D01*
X201439169Y-55547803D01*
X201439234Y-55547795D01*
X201451071Y-55546862D01*
X201483329Y-55545848D01*
X201487348Y-55545722D01*
X201495267Y-55545473D01*
X201514721Y-55539821D01*
X201534078Y-55535813D01*
X201546308Y-55534268D01*
X201546309Y-55534268D01*
X201554175Y-55533274D01*
X201561546Y-55530355D01*
X201561548Y-55530355D01*
X201595290Y-55516996D01*
X201606520Y-55513151D01*
X201641361Y-55503029D01*
X201641362Y-55503029D01*
X201648971Y-55500818D01*
X201655790Y-55496785D01*
X201655795Y-55496783D01*
X201666406Y-55490507D01*
X201684154Y-55481812D01*
X201702995Y-55474352D01*
X201728108Y-55456107D01*
X201738765Y-55448364D01*
X201748685Y-55441848D01*
X201779913Y-55423380D01*
X201779916Y-55423378D01*
X201786740Y-55419342D01*
X201801064Y-55405018D01*
X201816091Y-55392183D01*
X201832485Y-55380272D01*
X201839329Y-55372000D01*
X201860670Y-55346202D01*
X201868660Y-55337422D01*
X201888188Y-55317894D01*
X201950500Y-55283868D01*
X201977283Y-55280989D01*
X203406745Y-55280989D01*
X203474866Y-55300991D01*
G37*
%TD.AperFunction*%
%TA.AperFunction,Conductor*%
G36*
X205467621Y-49550002D02*
G01*
X205514114Y-49603658D01*
X205525500Y-49656000D01*
X205525500Y-51054500D01*
X205505498Y-51122621D01*
X205451842Y-51169114D01*
X205399500Y-51180500D01*
X203492208Y-51180500D01*
X203426092Y-51161760D01*
X203416153Y-51155633D01*
X203416152Y-51155633D01*
X203409920Y-51151791D01*
X203392181Y-51145907D01*
X203292236Y-51112757D01*
X203244809Y-51097026D01*
X203237973Y-51096326D01*
X203237970Y-51096325D01*
X203186474Y-51091049D01*
X203142072Y-51086500D01*
X202542928Y-51086500D01*
X202539682Y-51086837D01*
X202539678Y-51086837D01*
X202445765Y-51096581D01*
X202445761Y-51096582D01*
X202438907Y-51097293D01*
X202432371Y-51099474D01*
X202432369Y-51099474D01*
X202300123Y-51143595D01*
X202273893Y-51152346D01*
X202125969Y-51243884D01*
X202120796Y-51249066D01*
X202019253Y-51350786D01*
X201956970Y-51384865D01*
X201886150Y-51379862D01*
X201841063Y-51350941D01*
X201738188Y-51248246D01*
X201738183Y-51248242D01*
X201733003Y-51243071D01*
X201715448Y-51232250D01*
X201591150Y-51155631D01*
X201591148Y-51155630D01*
X201584920Y-51151791D01*
X201419809Y-51097026D01*
X201412973Y-51096326D01*
X201412970Y-51096325D01*
X201361474Y-51091049D01*
X201317072Y-51086500D01*
X200717928Y-51086500D01*
X200714682Y-51086837D01*
X200714678Y-51086837D01*
X200620765Y-51096581D01*
X200620761Y-51096582D01*
X200613907Y-51097293D01*
X200607371Y-51099474D01*
X200607369Y-51099474D01*
X200460094Y-51148609D01*
X200389145Y-51151193D01*
X200331123Y-51118180D01*
X199440489Y-50227546D01*
X199427652Y-50212518D01*
X199419669Y-50201530D01*
X199369937Y-50156751D01*
X199365153Y-50152210D01*
X199351006Y-50138063D01*
X199335446Y-50125463D01*
X199330425Y-50121175D01*
X199285619Y-50080830D01*
X199285615Y-50080827D01*
X199280715Y-50076415D01*
X199275005Y-50073119D01*
X199275002Y-50073116D01*
X199268955Y-50069625D01*
X199252670Y-50058432D01*
X199242125Y-50049893D01*
X199182520Y-50019523D01*
X199176724Y-50016376D01*
X199170975Y-50013057D01*
X199118785Y-49982925D01*
X199105875Y-49978730D01*
X199087616Y-49971167D01*
X199075524Y-49965006D01*
X199010906Y-49947691D01*
X199004582Y-49945818D01*
X198995981Y-49943023D01*
X198940956Y-49925145D01*
X198934389Y-49924455D01*
X198934385Y-49924454D01*
X198928712Y-49923858D01*
X198927470Y-49923728D01*
X198908028Y-49920125D01*
X198894915Y-49916611D01*
X198888318Y-49916265D01*
X198888316Y-49916265D01*
X198828113Y-49913110D01*
X198821539Y-49912593D01*
X198804895Y-49910844D01*
X198804891Y-49910844D01*
X198801620Y-49910500D01*
X198781593Y-49910500D01*
X198774999Y-49910327D01*
X198714782Y-49907171D01*
X198714778Y-49907171D01*
X198708190Y-49906826D01*
X198701675Y-49907858D01*
X198701673Y-49907858D01*
X198694786Y-49908949D01*
X198675075Y-49910500D01*
X192532000Y-49910500D01*
X192532000Y-49530000D01*
X205399500Y-49530000D01*
X205467621Y-49550002D01*
G37*
%TD.AperFunction*%
%TA.AperFunction,Conductor*%
G36*
X193173009Y-49910500D02*
G01*
X189309925Y-49910500D01*
X189290214Y-49908949D01*
X189283327Y-49907858D01*
X189283325Y-49907858D01*
X189276810Y-49906826D01*
X189270222Y-49907171D01*
X189270218Y-49907171D01*
X189210001Y-49910327D01*
X189203407Y-49910500D01*
X189183380Y-49910500D01*
X189180109Y-49910844D01*
X189180105Y-49910844D01*
X189163461Y-49912593D01*
X189156887Y-49913110D01*
X189096684Y-49916265D01*
X189096682Y-49916265D01*
X189090085Y-49916611D01*
X189076972Y-49920125D01*
X189057530Y-49923728D01*
X189056288Y-49923858D01*
X189050615Y-49924454D01*
X189050611Y-49924455D01*
X189044044Y-49925145D01*
X188989019Y-49943023D01*
X188980418Y-49945818D01*
X188974094Y-49947691D01*
X188909476Y-49965006D01*
X188897384Y-49971167D01*
X188879125Y-49978730D01*
X188866215Y-49982925D01*
X188814025Y-50013057D01*
X188808276Y-50016376D01*
X188802480Y-50019523D01*
X188742875Y-50049893D01*
X188732330Y-50058432D01*
X188716045Y-50069625D01*
X188709998Y-50073116D01*
X188709995Y-50073119D01*
X188704285Y-50076415D01*
X188699385Y-50080827D01*
X188699381Y-50080830D01*
X188654575Y-50121175D01*
X188649554Y-50125463D01*
X188633994Y-50138063D01*
X188619847Y-50152210D01*
X188615063Y-50156751D01*
X188565331Y-50201530D01*
X188557348Y-50212518D01*
X188544511Y-50227546D01*
X187250046Y-51522011D01*
X187235018Y-51534848D01*
X187224030Y-51542831D01*
X187219617Y-51547733D01*
X187219615Y-51547734D01*
X187179251Y-51592563D01*
X187174710Y-51597347D01*
X187160563Y-51611494D01*
X187158486Y-51614059D01*
X187147963Y-51627054D01*
X187143675Y-51632075D01*
X187103330Y-51676881D01*
X187103327Y-51676885D01*
X187098915Y-51681785D01*
X187095619Y-51687495D01*
X187095616Y-51687498D01*
X187092125Y-51693545D01*
X187080932Y-51709830D01*
X187072393Y-51720375D01*
X187066457Y-51732026D01*
X187042023Y-51779980D01*
X187038876Y-51785776D01*
X187005425Y-51843715D01*
X187003384Y-51849997D01*
X187001231Y-51856623D01*
X186993667Y-51874884D01*
X186987506Y-51886976D01*
X186985796Y-51893359D01*
X186970191Y-51951594D01*
X186968318Y-51957918D01*
X186947645Y-52021544D01*
X186946955Y-52028111D01*
X186946954Y-52028115D01*
X186946228Y-52035029D01*
X186942625Y-52054472D01*
X186941169Y-52059906D01*
X186926723Y-52093410D01*
X186891791Y-52150080D01*
X186837026Y-52315191D01*
X186826500Y-52417928D01*
X186826500Y-52992072D01*
X186826837Y-52995318D01*
X186826837Y-52995322D01*
X186832932Y-53054059D01*
X186837293Y-53096093D01*
X186839474Y-53102629D01*
X186839474Y-53102631D01*
X186869880Y-53193767D01*
X186892346Y-53261107D01*
X186983884Y-53409031D01*
X187106997Y-53531929D01*
X187113224Y-53535767D01*
X187113226Y-53535769D01*
X187129116Y-53545564D01*
X187176609Y-53598336D01*
X187189000Y-53652824D01*
X187189000Y-55343733D01*
X187188473Y-55354916D01*
X187186798Y-55362409D01*
X187187047Y-55370335D01*
X187187047Y-55370336D01*
X187188938Y-55430486D01*
X187189000Y-55434445D01*
X187189000Y-55462356D01*
X187189497Y-55466290D01*
X187189497Y-55466291D01*
X187189505Y-55466356D01*
X187190438Y-55478193D01*
X187191827Y-55522389D01*
X187197403Y-55541581D01*
X187197478Y-55541839D01*
X187201487Y-55561200D01*
X187204026Y-55581297D01*
X187206945Y-55588668D01*
X187206945Y-55588670D01*
X187220304Y-55622412D01*
X187224149Y-55633642D01*
X187236482Y-55676093D01*
X187240515Y-55682912D01*
X187240517Y-55682917D01*
X187246793Y-55693528D01*
X187255488Y-55711276D01*
X187262948Y-55730117D01*
X187267610Y-55736533D01*
X187267610Y-55736534D01*
X187288936Y-55765887D01*
X187295452Y-55775807D01*
X187313791Y-55806816D01*
X187317958Y-55813862D01*
X187332279Y-55828183D01*
X187345119Y-55843216D01*
X187357028Y-55859607D01*
X187363132Y-55864657D01*
X187363137Y-55864662D01*
X187391098Y-55887793D01*
X187399879Y-55895783D01*
X188122096Y-56618001D01*
X188156121Y-56680313D01*
X188159000Y-56707096D01*
X188159000Y-57024000D01*
X188138998Y-57092121D01*
X188085342Y-57138614D01*
X188033000Y-57150000D01*
X176530000Y-57150000D01*
X176530000Y-49530000D01*
X193180000Y-49530000D01*
X193173009Y-49910500D01*
G37*
%TD.AperFunction*%
%TA.AperFunction,Conductor*%
G36*
X191223171Y-53043502D02*
G01*
X191236271Y-53054059D01*
X191236325Y-53053989D01*
X191242585Y-53058845D01*
X191248193Y-53064453D01*
X191255017Y-53068489D01*
X191255020Y-53068491D01*
X191348032Y-53123498D01*
X191391399Y-53149145D01*
X191399010Y-53151356D01*
X191399012Y-53151357D01*
X191451231Y-53166528D01*
X191551169Y-53195562D01*
X191557574Y-53196066D01*
X191557579Y-53196067D01*
X191586042Y-53198307D01*
X191586050Y-53198307D01*
X191588498Y-53198500D01*
X192745500Y-53198500D01*
X192813621Y-53218502D01*
X192860114Y-53272158D01*
X192871500Y-53324500D01*
X192871500Y-53556502D01*
X192871693Y-53558950D01*
X192871693Y-53558958D01*
X192873710Y-53584578D01*
X192874438Y-53593831D01*
X192920855Y-53753601D01*
X192924892Y-53760427D01*
X193001509Y-53889980D01*
X193001511Y-53889983D01*
X193005547Y-53896807D01*
X193098070Y-53989330D01*
X193040000Y-57150000D01*
X192528405Y-57150000D01*
X192030405Y-56652000D01*
X191996379Y-56589688D01*
X191993500Y-56562905D01*
X191993500Y-56227928D01*
X191982707Y-56123907D01*
X191927654Y-55958893D01*
X191836116Y-55810969D01*
X191830934Y-55805796D01*
X191718184Y-55693242D01*
X191718179Y-55693238D01*
X191713003Y-55688071D01*
X191624703Y-55633642D01*
X191571150Y-55600631D01*
X191571148Y-55600630D01*
X191564920Y-55596791D01*
X191399809Y-55542026D01*
X191392973Y-55541326D01*
X191392970Y-55541325D01*
X191341474Y-55536049D01*
X191297072Y-55531500D01*
X190697928Y-55531500D01*
X190694682Y-55531837D01*
X190694678Y-55531837D01*
X190600765Y-55541581D01*
X190600761Y-55541582D01*
X190593907Y-55542293D01*
X190587371Y-55544474D01*
X190587369Y-55544474D01*
X190500578Y-55573430D01*
X190428893Y-55597346D01*
X190280969Y-55688884D01*
X190275796Y-55694066D01*
X190163242Y-55806816D01*
X190163238Y-55806821D01*
X190158071Y-55811997D01*
X190154231Y-55818227D01*
X190154230Y-55818228D01*
X190152143Y-55821614D01*
X190150114Y-55823441D01*
X190149693Y-55823973D01*
X190149602Y-55823901D01*
X190099372Y-55869108D01*
X190044882Y-55881500D01*
X189923887Y-55881500D01*
X189855766Y-55861498D01*
X189849379Y-55856940D01*
X189845503Y-55853071D01*
X189697420Y-55761791D01*
X189532309Y-55707026D01*
X189525473Y-55706326D01*
X189525470Y-55706325D01*
X189473974Y-55701049D01*
X189429572Y-55696500D01*
X189044595Y-55696500D01*
X188976474Y-55676498D01*
X188955499Y-55659595D01*
X188492904Y-55196999D01*
X188458879Y-55134687D01*
X188456000Y-55107904D01*
X188456000Y-53652699D01*
X188476002Y-53584578D01*
X188515699Y-53545554D01*
X188539031Y-53531116D01*
X188544204Y-53525934D01*
X188645747Y-53424214D01*
X188708030Y-53390135D01*
X188778850Y-53395138D01*
X188823937Y-53424059D01*
X188926812Y-53526754D01*
X188926817Y-53526758D01*
X188931997Y-53531929D01*
X188938227Y-53535769D01*
X188938228Y-53535770D01*
X189039729Y-53598336D01*
X189080080Y-53623209D01*
X189245191Y-53677974D01*
X189252027Y-53678674D01*
X189252030Y-53678675D01*
X189303526Y-53683951D01*
X189347928Y-53688500D01*
X189947072Y-53688500D01*
X189950318Y-53688163D01*
X189950322Y-53688163D01*
X190044235Y-53678419D01*
X190044239Y-53678418D01*
X190051093Y-53677707D01*
X190057629Y-53675526D01*
X190057631Y-53675526D01*
X190190395Y-53631232D01*
X190216107Y-53622654D01*
X190364031Y-53531116D01*
X190369204Y-53525934D01*
X190481758Y-53413184D01*
X190481762Y-53413179D01*
X190486929Y-53408003D01*
X190559946Y-53289548D01*
X190574369Y-53266150D01*
X190574370Y-53266148D01*
X190578209Y-53259920D01*
X190627991Y-53109832D01*
X190668422Y-53051473D01*
X190733986Y-53024236D01*
X190747584Y-53023500D01*
X191155050Y-53023500D01*
X191223171Y-53043502D01*
G37*
%TD.AperFunction*%
%TA.AperFunction,Conductor*%
G36*
X191514527Y-57932002D02*
G01*
X191535501Y-57948905D01*
X191733095Y-58146499D01*
X191767121Y-58208811D01*
X191770000Y-58235594D01*
X191770000Y-74178500D01*
X191749998Y-74246621D01*
X191696342Y-74293114D01*
X191644000Y-74304500D01*
X186870340Y-74304500D01*
X186802219Y-74284498D01*
X186762907Y-74244335D01*
X186682591Y-74113271D01*
X186644176Y-74050584D01*
X186489969Y-73870031D01*
X186486207Y-73866818D01*
X186486202Y-73866813D01*
X186353670Y-73753621D01*
X186314860Y-73694171D01*
X186309500Y-73657810D01*
X186309500Y-72174208D01*
X186328240Y-72108092D01*
X186334367Y-72098153D01*
X186334367Y-72098152D01*
X186338209Y-72091920D01*
X186392974Y-71926809D01*
X186403500Y-71824072D01*
X186403500Y-71224928D01*
X186394879Y-71141841D01*
X186393419Y-71127765D01*
X186393418Y-71127761D01*
X186392707Y-71120907D01*
X186384398Y-71096000D01*
X186339972Y-70962841D01*
X186337654Y-70955893D01*
X186246116Y-70807969D01*
X186214723Y-70776631D01*
X186128184Y-70690242D01*
X186128179Y-70690238D01*
X186123003Y-70685071D01*
X186045667Y-70637400D01*
X185981150Y-70597631D01*
X185981148Y-70597630D01*
X185974920Y-70593791D01*
X185809809Y-70539026D01*
X185802973Y-70538326D01*
X185802970Y-70538325D01*
X185751474Y-70533049D01*
X185707072Y-70528500D01*
X185132928Y-70528500D01*
X185129682Y-70528837D01*
X185129678Y-70528837D01*
X185035765Y-70538581D01*
X185035761Y-70538582D01*
X185028907Y-70539293D01*
X185022371Y-70541474D01*
X185022369Y-70541474D01*
X184889605Y-70585768D01*
X184863893Y-70594346D01*
X184715969Y-70685884D01*
X184710796Y-70691066D01*
X184598242Y-70803816D01*
X184598238Y-70803821D01*
X184593071Y-70808997D01*
X184589231Y-70815227D01*
X184589230Y-70815228D01*
X184506364Y-70949662D01*
X184501791Y-70957080D01*
X184447026Y-71122191D01*
X184446326Y-71129027D01*
X184446325Y-71129030D01*
X184445013Y-71141841D01*
X184436500Y-71224928D01*
X184436500Y-71824072D01*
X184447293Y-71928093D01*
X184502346Y-72093107D01*
X184511645Y-72108133D01*
X184530500Y-72174435D01*
X184530500Y-73657810D01*
X184510498Y-73725931D01*
X184486330Y-73753621D01*
X184353798Y-73866813D01*
X184353793Y-73866818D01*
X184350031Y-73870031D01*
X184195824Y-74050584D01*
X184193245Y-74054792D01*
X184193241Y-74054798D01*
X184100603Y-74205970D01*
X184071760Y-74253037D01*
X184069867Y-74257607D01*
X184069865Y-74257611D01*
X183982789Y-74467833D01*
X183980895Y-74472406D01*
X183968028Y-74526003D01*
X183928286Y-74691539D01*
X183925465Y-74703289D01*
X183906835Y-74940000D01*
X183925465Y-75176711D01*
X183980895Y-75407594D01*
X183982788Y-75412165D01*
X183982789Y-75412167D01*
X184058729Y-75595502D01*
X184071760Y-75626963D01*
X184074346Y-75631183D01*
X184193241Y-75825202D01*
X184193245Y-75825208D01*
X184195824Y-75829416D01*
X184350031Y-76009969D01*
X184530584Y-76164176D01*
X184534792Y-76166755D01*
X184534798Y-76166759D01*
X184728817Y-76285654D01*
X184733037Y-76288240D01*
X184737607Y-76290133D01*
X184737611Y-76290135D01*
X184947833Y-76377211D01*
X184952406Y-76379105D01*
X185032609Y-76398360D01*
X185178476Y-76433380D01*
X185178482Y-76433381D01*
X185183289Y-76434535D01*
X185420000Y-76453165D01*
X185656711Y-76434535D01*
X185661518Y-76433381D01*
X185661524Y-76433380D01*
X185807391Y-76398360D01*
X185887594Y-76379105D01*
X185892167Y-76377211D01*
X186102389Y-76290135D01*
X186102393Y-76290133D01*
X186106963Y-76288240D01*
X186111183Y-76285654D01*
X186305202Y-76166759D01*
X186305208Y-76166755D01*
X186309416Y-76164176D01*
X186489969Y-76009969D01*
X186644176Y-75829416D01*
X186762908Y-75635664D01*
X186815555Y-75588034D01*
X186870340Y-75575500D01*
X187205705Y-75575500D01*
X187273826Y-75595502D01*
X187320319Y-75649158D01*
X187330423Y-75719432D01*
X187325538Y-75740435D01*
X187322501Y-75749782D01*
X187322500Y-75749789D01*
X187320458Y-75756072D01*
X187319768Y-75762638D01*
X187319767Y-75762642D01*
X187316660Y-75792205D01*
X187300496Y-75946000D01*
X187301186Y-75952565D01*
X187307557Y-76013177D01*
X187320458Y-76135928D01*
X187379473Y-76317556D01*
X187474960Y-76482944D01*
X187479378Y-76487851D01*
X187479379Y-76487852D01*
X187602138Y-76624190D01*
X187632856Y-76688197D01*
X187624091Y-76758651D01*
X187578628Y-76813182D01*
X187508502Y-76834500D01*
X182179423Y-76834500D01*
X182111302Y-76814498D01*
X182090328Y-76797595D01*
X181540790Y-76248057D01*
X181506764Y-76185745D01*
X181504575Y-76172132D01*
X181488232Y-76016635D01*
X181488232Y-76016633D01*
X181487542Y-76010072D01*
X181428527Y-75828444D01*
X181420895Y-75815224D01*
X181336341Y-75668774D01*
X181333040Y-75663056D01*
X181304342Y-75631183D01*
X181209675Y-75526045D01*
X181209674Y-75526044D01*
X181205253Y-75521134D01*
X181050752Y-75408882D01*
X181044724Y-75406198D01*
X181044722Y-75406197D01*
X180882319Y-75333891D01*
X180882318Y-75333891D01*
X180876288Y-75331206D01*
X180782887Y-75311353D01*
X180695944Y-75292872D01*
X180695939Y-75292872D01*
X180689487Y-75291500D01*
X180498513Y-75291500D01*
X180492061Y-75292872D01*
X180492056Y-75292872D01*
X180405113Y-75311353D01*
X180311712Y-75331206D01*
X180305682Y-75333891D01*
X180305681Y-75333891D01*
X180143278Y-75406197D01*
X180143276Y-75406198D01*
X180137248Y-75408882D01*
X179982747Y-75521134D01*
X179978326Y-75526044D01*
X179978325Y-75526045D01*
X179883659Y-75631183D01*
X179854960Y-75663056D01*
X179851661Y-75668769D01*
X179851658Y-75668774D01*
X179782171Y-75789129D01*
X179730788Y-75838123D01*
X179661074Y-75851558D01*
X179595164Y-75825171D01*
X179583957Y-75815224D01*
X179234405Y-75465672D01*
X179200379Y-75403360D01*
X179197500Y-75376577D01*
X179197500Y-74761728D01*
X179217502Y-74693607D01*
X179254131Y-74657597D01*
X179254068Y-74657517D01*
X179254814Y-74656925D01*
X179257194Y-74654586D01*
X179259803Y-74652971D01*
X179259809Y-74652966D01*
X179266031Y-74649116D01*
X179271200Y-74643938D01*
X179383758Y-74531184D01*
X179383762Y-74531179D01*
X179388929Y-74526003D01*
X179424786Y-74467833D01*
X179476369Y-74384150D01*
X179476370Y-74384148D01*
X179480209Y-74377920D01*
X179534974Y-74212809D01*
X179545500Y-74110072D01*
X179545500Y-73510928D01*
X179534707Y-73406907D01*
X179479654Y-73241893D01*
X179388116Y-73093969D01*
X179382934Y-73088796D01*
X179378387Y-73083059D01*
X179379807Y-73081934D01*
X179350235Y-73027897D01*
X179355235Y-72957076D01*
X179397729Y-72900201D01*
X179464226Y-72875329D01*
X179473331Y-72875000D01*
X180015575Y-72875000D01*
X180035286Y-72876551D01*
X180042173Y-72877642D01*
X180042175Y-72877642D01*
X180048690Y-72878674D01*
X180055278Y-72878329D01*
X180055282Y-72878329D01*
X180115499Y-72875173D01*
X180122093Y-72875000D01*
X180142120Y-72875000D01*
X180145391Y-72874656D01*
X180145395Y-72874656D01*
X180162039Y-72872907D01*
X180168613Y-72872390D01*
X180228816Y-72869235D01*
X180228818Y-72869235D01*
X180235415Y-72868889D01*
X180248528Y-72865375D01*
X180267970Y-72861772D01*
X180269212Y-72861642D01*
X180274885Y-72861046D01*
X180274889Y-72861045D01*
X180281456Y-72860355D01*
X180345081Y-72839682D01*
X180351406Y-72837809D01*
X180358859Y-72835812D01*
X180416024Y-72820494D01*
X180428116Y-72814333D01*
X180446375Y-72806770D01*
X180459285Y-72802575D01*
X180465003Y-72799274D01*
X180465009Y-72799271D01*
X180478672Y-72791382D01*
X180541673Y-72774500D01*
X180627072Y-72774500D01*
X180630318Y-72774163D01*
X180630322Y-72774163D01*
X180724235Y-72764419D01*
X180724239Y-72764418D01*
X180731093Y-72763707D01*
X180737629Y-72761526D01*
X180737631Y-72761526D01*
X180889159Y-72710972D01*
X180896107Y-72708654D01*
X181044031Y-72617116D01*
X181106930Y-72554107D01*
X181161758Y-72499184D01*
X181161762Y-72499179D01*
X181166929Y-72494003D01*
X181258209Y-72345920D01*
X181312974Y-72180809D01*
X181317310Y-72138494D01*
X181321322Y-72099333D01*
X181323500Y-72078072D01*
X181323500Y-71403928D01*
X181312707Y-71299907D01*
X181257654Y-71134893D01*
X181166116Y-70986969D01*
X181134986Y-70955893D01*
X181048184Y-70869242D01*
X181048179Y-70869238D01*
X181043003Y-70864071D01*
X180972748Y-70820765D01*
X180901150Y-70776631D01*
X180901148Y-70776630D01*
X180894920Y-70772791D01*
X180729809Y-70718026D01*
X180722973Y-70717326D01*
X180722970Y-70717325D01*
X180671474Y-70712049D01*
X180627072Y-70707500D01*
X180052928Y-70707500D01*
X180049682Y-70707837D01*
X180049678Y-70707837D01*
X179955765Y-70717581D01*
X179955761Y-70717582D01*
X179948907Y-70718293D01*
X179942371Y-70720474D01*
X179942369Y-70720474D01*
X179809605Y-70764768D01*
X179783893Y-70773346D01*
X179635969Y-70864884D01*
X179630796Y-70870066D01*
X179533600Y-70967432D01*
X179471318Y-71001511D01*
X179400498Y-70996508D01*
X179343625Y-70954011D01*
X179318756Y-70887513D01*
X179324595Y-70839476D01*
X179326502Y-70833608D01*
X179326503Y-70833603D01*
X179328542Y-70827328D01*
X179331121Y-70802796D01*
X179347814Y-70643965D01*
X179348504Y-70637400D01*
X179328542Y-70447472D01*
X179269527Y-70265844D01*
X179174040Y-70100456D01*
X179102864Y-70021407D01*
X179072146Y-69957400D01*
X179070500Y-69937097D01*
X179070500Y-69808728D01*
X179090502Y-69740607D01*
X179127131Y-69704597D01*
X179127068Y-69704517D01*
X179127814Y-69703925D01*
X179130194Y-69701586D01*
X179132803Y-69699971D01*
X179132809Y-69699966D01*
X179139031Y-69696116D01*
X179144200Y-69690938D01*
X179256758Y-69578184D01*
X179256762Y-69578179D01*
X179261929Y-69573003D01*
X179353209Y-69424920D01*
X179407974Y-69259809D01*
X179418500Y-69157072D01*
X179418500Y-68457928D01*
X179407707Y-68353907D01*
X179399108Y-68328131D01*
X179354972Y-68195841D01*
X179352654Y-68188893D01*
X179329702Y-68151803D01*
X179310864Y-68083351D01*
X179332025Y-68015581D01*
X179386466Y-67970010D01*
X179436846Y-67959500D01*
X180056868Y-67959500D01*
X180124989Y-67979502D01*
X180171482Y-68033158D01*
X180174849Y-68041268D01*
X180184385Y-68066705D01*
X180189765Y-68073884D01*
X180189767Y-68073887D01*
X180253981Y-68159567D01*
X180271739Y-68183261D01*
X180388295Y-68270615D01*
X180524684Y-68321745D01*
X180586866Y-68328500D01*
X182683134Y-68328500D01*
X182745316Y-68321745D01*
X182881705Y-68270615D01*
X182998261Y-68183261D01*
X183085615Y-68066705D01*
X183136745Y-67930316D01*
X183143500Y-67868134D01*
X183143500Y-66271866D01*
X183136745Y-66209684D01*
X183085615Y-66073295D01*
X182998261Y-65956739D01*
X182881705Y-65869385D01*
X182745316Y-65818255D01*
X182683134Y-65811500D01*
X180586866Y-65811500D01*
X180524684Y-65818255D01*
X180388295Y-65869385D01*
X180271739Y-65956739D01*
X180266358Y-65963919D01*
X180189767Y-66066113D01*
X180189765Y-66066116D01*
X180184385Y-66073295D01*
X180174850Y-66098730D01*
X180132208Y-66155495D01*
X180065646Y-66180194D01*
X180056868Y-66180500D01*
X179153323Y-66180500D01*
X179087207Y-66161760D01*
X179077044Y-66155495D01*
X178989920Y-66101791D01*
X178824809Y-66047026D01*
X178817973Y-66046326D01*
X178817970Y-66046325D01*
X178766474Y-66041049D01*
X178722072Y-66036500D01*
X178688000Y-66036500D01*
X178619879Y-66016498D01*
X178573386Y-65962842D01*
X178562000Y-65910500D01*
X178562000Y-63174500D01*
X178582002Y-63106379D01*
X178635658Y-63059886D01*
X178688000Y-63048500D01*
X178733732Y-63048500D01*
X178736978Y-63048163D01*
X178736982Y-63048163D01*
X178771083Y-63044625D01*
X178836019Y-63037887D01*
X178864930Y-63028241D01*
X178991612Y-62985977D01*
X179031488Y-62979500D01*
X180000500Y-62979500D01*
X180068621Y-62999502D01*
X180115114Y-63053158D01*
X180126500Y-63105500D01*
X180126500Y-63268134D01*
X180133255Y-63330316D01*
X180184385Y-63466705D01*
X180271739Y-63583261D01*
X180388295Y-63670615D01*
X180524684Y-63721745D01*
X180586866Y-63728500D01*
X182683134Y-63728500D01*
X182745316Y-63721745D01*
X182881705Y-63670615D01*
X182998261Y-63583261D01*
X183085615Y-63466705D01*
X183136745Y-63330316D01*
X183143500Y-63268134D01*
X183143500Y-61671866D01*
X183136745Y-61609684D01*
X183085615Y-61473295D01*
X182998261Y-61356739D01*
X182881705Y-61269385D01*
X182745316Y-61218255D01*
X182683134Y-61211500D01*
X181429750Y-61211500D01*
X181407933Y-61208628D01*
X181407818Y-61209353D01*
X181401290Y-61208319D01*
X181394915Y-61206611D01*
X181388324Y-61206266D01*
X181388320Y-61206265D01*
X181328113Y-61203110D01*
X181321539Y-61202593D01*
X181304895Y-61200844D01*
X181304891Y-61200844D01*
X181301620Y-61200500D01*
X181281593Y-61200500D01*
X181274999Y-61200327D01*
X181214782Y-61197171D01*
X181214778Y-61197171D01*
X181208190Y-61196826D01*
X181201675Y-61197858D01*
X181201673Y-61197858D01*
X181194786Y-61198949D01*
X181175075Y-61200500D01*
X179031929Y-61200500D01*
X178992262Y-61194093D01*
X178841284Y-61144016D01*
X178841285Y-61144016D01*
X178834757Y-61141851D01*
X178827920Y-61141151D01*
X178827918Y-61141150D01*
X178786599Y-61136917D01*
X178733732Y-61131500D01*
X178688000Y-61131500D01*
X178619879Y-61111498D01*
X178573386Y-61057842D01*
X178562000Y-61005500D01*
X178562000Y-58038000D01*
X178582002Y-57969879D01*
X178635658Y-57923386D01*
X178688000Y-57912000D01*
X191446406Y-57912000D01*
X191514527Y-57932002D01*
G37*
%TD.AperFunction*%
M02*
