%TF.GenerationSoftware,KiCad,Pcbnew,6.0.2+dfsg-1*%
%TF.CreationDate,2022-05-24T21:44:59+03:00*%
%TF.ProjectId,iot_geiger,696f745f-6765-4696-9765-722e6b696361,rev?*%
%TF.SameCoordinates,Original*%
%TF.FileFunction,Soldermask,Bot*%
%TF.FilePolarity,Negative*%
%FSLAX46Y46*%
G04 Gerber Fmt 4.6, Leading zero omitted, Abs format (unit mm)*
G04 Created by KiCad (PCBNEW 6.0.2+dfsg-1) date 2022-05-24 21:44:59*
%MOMM*%
%LPD*%
G01*
G04 APERTURE LIST*
%ADD10C,2.600000*%
%ADD11C,2.000000*%
%ADD12C,1.600000*%
%ADD13R,1.700000X1.700000*%
%ADD14O,1.700000X1.700000*%
%ADD15C,2.500000*%
%ADD16R,2.000000X2.000000*%
%ADD17O,1.600000X1.600000*%
%ADD18R,4.600000X2.000000*%
%ADD19O,4.200000X2.000000*%
%ADD20O,2.000000X4.200000*%
%ADD21R,2.200000X2.200000*%
%ADD22O,2.200000X2.200000*%
%ADD23R,1.350000X1.350000*%
%ADD24C,1.350000*%
%ADD25O,3.250000X6.000000*%
%ADD26R,1.000000X1.000000*%
%ADD27O,1.000000X1.000000*%
G04 APERTURE END LIST*
D10*
X125944000Y-80518000D03*
X120944000Y-80518000D03*
D11*
X132675000Y-55372000D03*
X127675000Y-55372000D03*
D12*
X211415000Y-52070000D03*
X206415000Y-52070000D03*
D13*
X155585000Y-55880000D03*
D14*
X158125000Y-55880000D03*
X160665000Y-55880000D03*
X163205000Y-55880000D03*
D15*
X163830000Y-44450000D03*
D11*
X118785000Y-54864000D03*
X123785000Y-54864000D03*
X123785000Y-72136000D03*
X118785000Y-72136000D03*
X189940000Y-93000000D03*
X183440000Y-93000000D03*
X189940000Y-97500000D03*
X183440000Y-97500000D03*
D15*
X210820000Y-99060000D03*
X176530000Y-44450000D03*
D16*
X185420000Y-82540000D03*
D11*
X185420000Y-74940000D03*
D12*
X127362000Y-51562000D03*
D17*
X122282000Y-51562000D03*
D15*
X189230000Y-44450000D03*
X138430000Y-44450000D03*
D12*
X136125000Y-52070000D03*
D17*
X131045000Y-52070000D03*
D18*
X124445000Y-88900000D03*
D19*
X124445000Y-95200000D03*
D20*
X129245000Y-91800000D03*
D15*
X151130000Y-44450000D03*
D13*
X175895000Y-99060000D03*
D14*
X173355000Y-99060000D03*
X170815000Y-99060000D03*
X168275000Y-99060000D03*
X165735000Y-99060000D03*
D15*
X138430000Y-99060000D03*
D21*
X128524000Y-58674000D03*
D22*
X128524000Y-68834000D03*
D21*
X118872000Y-68834000D03*
D22*
X118872000Y-58674000D03*
D23*
X205740000Y-73195000D03*
D24*
X203200000Y-73195000D03*
X200660000Y-73195000D03*
X198120000Y-73195000D03*
D25*
X120650000Y-44450000D03*
X125730000Y-44450000D03*
X204470000Y-44450000D03*
X209550000Y-44450000D03*
D21*
X123698000Y-58674000D03*
D22*
X123698000Y-68834000D03*
D13*
X155575000Y-99060000D03*
D14*
X153035000Y-99060000D03*
X150495000Y-99060000D03*
X147955000Y-99060000D03*
X145415000Y-99060000D03*
D26*
X136515000Y-63007000D03*
D27*
X137785000Y-63007000D03*
X136515000Y-64277000D03*
X137785000Y-64277000D03*
X136515000Y-65547000D03*
X137785000Y-65547000D03*
X136515000Y-66817000D03*
X137785000Y-66817000D03*
X136515000Y-68087000D03*
X137785000Y-68087000D03*
M02*
