%FSLAX45Y45*%
G04 Gerber Fmt 4.5, Leading zero omitted, Abs format (unit mm)*
G04 Created by KiCad (PCBNEW 6.0.4-6f826c9f35~116~ubuntu20.04.1) date 2022-04-27 17:59:14*
%MOMM*%
%LPD*%
G01*
G04 APERTURE LIST*
%TA.AperFunction,Profile*%
%ADD10C,0.100000*%
%TD*%
%ADD11C,0.200000*%
%ADD12C,0.040000*%
%ADD13C,0.070000*%
%ADD14C,0.080000*%
%ADD15C,0.100000*%
%ADD16C,0.110000*%
%ADD17C,0.130000*%
%ADD18C,0.140000*%
G04 APERTURE END LIST*
D10*
X21463000Y-10287000D02*
X11557000Y-10287000D01*
X11557000Y-10287000D02*
X11557000Y-3835400D01*
X11557000Y-3835400D02*
X21463000Y-3835400D01*
X21463000Y-3835400D02*
X21463000Y-10287000D01*
D11*
D12*
X11918000Y-8108000D02*
X11958000Y-8148000D01*
X11958000Y-8108000D02*
X11918000Y-8148000D01*
X11918000Y-10013000D02*
X11958000Y-10053000D01*
X11958000Y-10013000D02*
X11918000Y-10053000D01*
X13442000Y-6965000D02*
X13482000Y-7005000D01*
X13482000Y-6965000D02*
X13442000Y-7005000D01*
X13442000Y-7650800D02*
X13482000Y-7690800D01*
X13482000Y-7650800D02*
X13442000Y-7690800D01*
X14077000Y-7904800D02*
X14117000Y-7944800D01*
X14117000Y-7904800D02*
X14077000Y-7944800D01*
X14585000Y-5441000D02*
X14625000Y-5481000D01*
X14625000Y-5441000D02*
X14585000Y-5481000D01*
X14585000Y-6457000D02*
X14625000Y-6497000D01*
X14625000Y-6457000D02*
X14585000Y-6497000D01*
X14585000Y-7473000D02*
X14625000Y-7513000D01*
X14625000Y-7473000D02*
X14585000Y-7513000D01*
X14585000Y-8489000D02*
X14625000Y-8529000D01*
X14625000Y-8489000D02*
X14585000Y-8529000D01*
X15093000Y-5441000D02*
X15133000Y-5481000D01*
X15133000Y-5441000D02*
X15093000Y-5481000D01*
X15347000Y-9378000D02*
X15387000Y-9418000D01*
X15387000Y-9378000D02*
X15347000Y-9418000D01*
X15601000Y-6457000D02*
X15641000Y-6497000D01*
X15641000Y-6457000D02*
X15601000Y-6497000D01*
X15601000Y-7473000D02*
X15641000Y-7513000D01*
X15641000Y-7473000D02*
X15601000Y-7513000D01*
X15601000Y-8489000D02*
X15641000Y-8529000D01*
X15641000Y-8489000D02*
X15601000Y-8529000D01*
X16163951Y-5894049D02*
X16203951Y-5934049D01*
X16203951Y-5894049D02*
X16163951Y-5934049D01*
X16236000Y-9886000D02*
X16276000Y-9926000D01*
X16276000Y-9886000D02*
X16236000Y-9926000D01*
X16363000Y-9378000D02*
X16403000Y-9418000D01*
X16403000Y-9378000D02*
X16363000Y-9418000D01*
X16617000Y-7473000D02*
X16657000Y-7513000D01*
X16657000Y-7473000D02*
X16617000Y-7513000D01*
X16617000Y-8489000D02*
X16657000Y-8529000D01*
X16657000Y-8489000D02*
X16617000Y-8529000D01*
X16871000Y-6457000D02*
X16911000Y-6497000D01*
X16911000Y-6457000D02*
X16871000Y-6497000D01*
X17379000Y-5441000D02*
X17419000Y-5481000D01*
X17419000Y-5441000D02*
X17379000Y-5481000D01*
X17379000Y-6457000D02*
X17419000Y-6497000D01*
X17419000Y-6457000D02*
X17379000Y-6497000D01*
X17379000Y-6965000D02*
X17419000Y-7005000D01*
X17419000Y-6965000D02*
X17379000Y-7005000D01*
X17506000Y-7879400D02*
X17546000Y-7919400D01*
X17546000Y-7879400D02*
X17506000Y-7919400D01*
X17514760Y-6687000D02*
X17554760Y-6727000D01*
X17554760Y-6687000D02*
X17514760Y-6727000D01*
X17531400Y-5847400D02*
X17571400Y-5887400D01*
X17571400Y-5847400D02*
X17531400Y-5887400D01*
X17607600Y-6685600D02*
X17647600Y-6725600D01*
X17647600Y-6685600D02*
X17607600Y-6725600D01*
X17823500Y-7043740D02*
X17863500Y-7083740D01*
X17863500Y-7043740D02*
X17823500Y-7083740D01*
X17887000Y-9378000D02*
X17927000Y-9418000D01*
X17927000Y-9378000D02*
X17887000Y-9418000D01*
X18039400Y-7600000D02*
X18079400Y-7640000D01*
X18079400Y-7600000D02*
X18039400Y-7640000D01*
X18217200Y-7574600D02*
X18257200Y-7614600D01*
X18257200Y-7574600D02*
X18217200Y-7614600D01*
X18522000Y-5466400D02*
X18562000Y-5506400D01*
X18562000Y-5466400D02*
X18522000Y-5506400D01*
X18801400Y-7574600D02*
X18841400Y-7614600D01*
X18841400Y-7574600D02*
X18801400Y-7614600D01*
X18852200Y-8489000D02*
X18892200Y-8529000D01*
X18892200Y-8489000D02*
X18852200Y-8529000D01*
X19034970Y-5481750D02*
X19074970Y-5521750D01*
X19074970Y-5481750D02*
X19034970Y-5521750D01*
X19296700Y-5949000D02*
X19336700Y-5989000D01*
X19336700Y-5949000D02*
X19296700Y-5989000D01*
X19411000Y-5441000D02*
X19451000Y-5481000D01*
X19451000Y-5441000D02*
X19411000Y-5481000D01*
X19411000Y-8489000D02*
X19451000Y-8529000D01*
X19451000Y-8489000D02*
X19411000Y-8529000D01*
X19588800Y-6279200D02*
X19628800Y-6319200D01*
X19628800Y-6279200D02*
X19588800Y-6319200D01*
X19885980Y-5728020D02*
X19925980Y-5768020D01*
X19925980Y-5728020D02*
X19885980Y-5768020D01*
X19919000Y-5974400D02*
X19959000Y-6014400D01*
X19959000Y-5974400D02*
X19919000Y-6014400D01*
X19919000Y-6304600D02*
X19959000Y-6344600D01*
X19959000Y-6304600D02*
X19919000Y-6344600D01*
X19919000Y-6711000D02*
X19959000Y-6751000D01*
X19959000Y-6711000D02*
X19919000Y-6751000D01*
X20147600Y-7650800D02*
X20187600Y-7690800D01*
X20187600Y-7650800D02*
X20147600Y-7690800D01*
X20173000Y-5060000D02*
X20213000Y-5100000D01*
X20213000Y-5060000D02*
X20173000Y-5100000D01*
X20173000Y-5314000D02*
X20213000Y-5354000D01*
X20213000Y-5314000D02*
X20173000Y-5354000D01*
X20249200Y-5542600D02*
X20289200Y-5582600D01*
X20289200Y-5542600D02*
X20249200Y-5582600D01*
X20249200Y-5872800D02*
X20289200Y-5912800D01*
X20289200Y-5872800D02*
X20249200Y-5912800D01*
X20325400Y-7092000D02*
X20365400Y-7132000D01*
X20365400Y-7092000D02*
X20325400Y-7132000D01*
X20338100Y-6291900D02*
X20378100Y-6331900D01*
X20378100Y-6291900D02*
X20338100Y-6331900D01*
X20350800Y-5949000D02*
X20390800Y-5989000D01*
X20390800Y-5949000D02*
X20350800Y-5989000D01*
X20350800Y-6761800D02*
X20390800Y-6801800D01*
X20390800Y-6761800D02*
X20350800Y-6801800D01*
X20414300Y-7549200D02*
X20454300Y-7589200D01*
X20454300Y-7549200D02*
X20414300Y-7589200D01*
X20427000Y-8489000D02*
X20467000Y-8529000D01*
X20467000Y-8489000D02*
X20427000Y-8529000D01*
X20452400Y-4983800D02*
X20492400Y-5023800D01*
X20492400Y-4983800D02*
X20452400Y-5023800D01*
X20452400Y-5720400D02*
X20492400Y-5760400D01*
X20492400Y-5720400D02*
X20452400Y-5760400D01*
X20490500Y-5834700D02*
X20530500Y-5874700D01*
X20530500Y-5834700D02*
X20490500Y-5874700D01*
X20579400Y-6330000D02*
X20619400Y-6370000D01*
X20619400Y-6330000D02*
X20579400Y-6370000D01*
X20579400Y-6711000D02*
X20619400Y-6751000D01*
X20619400Y-6711000D02*
X20579400Y-6751000D01*
X20731800Y-7574600D02*
X20771800Y-7614600D01*
X20771800Y-7574600D02*
X20731800Y-7614600D01*
X20761000Y-7139000D02*
X20801000Y-7179000D01*
X20801000Y-7139000D02*
X20761000Y-7179000D01*
X20782600Y-4983800D02*
X20822600Y-5023800D01*
X20822600Y-4983800D02*
X20782600Y-5023800D01*
X20782600Y-5872800D02*
X20822600Y-5912800D01*
X20822600Y-5872800D02*
X20782600Y-5912800D01*
X20808000Y-6279200D02*
X20848000Y-6319200D01*
X20848000Y-6279200D02*
X20808000Y-6319200D01*
X20858800Y-5974400D02*
X20898800Y-6014400D01*
X20898800Y-5974400D02*
X20858800Y-6014400D01*
X21189000Y-8489000D02*
X21229000Y-8529000D01*
X21229000Y-8489000D02*
X21189000Y-8529000D01*
X21214400Y-5923600D02*
X21254400Y-5963600D01*
X21254400Y-5923600D02*
X21214400Y-5963600D01*
X21214400Y-7142800D02*
X21254400Y-7182800D01*
X21254400Y-7142800D02*
X21214400Y-7182800D01*
D13*
X13686500Y-6223000D02*
G75*
G03*
X13686500Y-6223000I-35000J0D01*
G01*
X13686500Y-6350000D02*
G75*
G03*
X13686500Y-6350000I-35000J0D01*
G01*
X13686500Y-6477000D02*
G75*
G03*
X13686500Y-6477000I-35000J0D01*
G01*
X13686500Y-6604000D02*
G75*
G03*
X13686500Y-6604000I-35000J0D01*
G01*
X13686500Y-6731000D02*
G75*
G03*
X13686500Y-6731000I-35000J0D01*
G01*
X13813500Y-6223000D02*
G75*
G03*
X13813500Y-6223000I-35000J0D01*
G01*
X13813500Y-6350000D02*
G75*
G03*
X13813500Y-6350000I-35000J0D01*
G01*
X13813500Y-6477000D02*
G75*
G03*
X13813500Y-6477000I-35000J0D01*
G01*
X13813500Y-6604000D02*
G75*
G03*
X13813500Y-6604000I-35000J0D01*
G01*
X13813500Y-6731000D02*
G75*
G03*
X13813500Y-6731000I-35000J0D01*
G01*
D14*
X12228200Y-5116200D02*
X12228200Y-5196200D01*
X12188200Y-5156200D02*
X12268200Y-5156200D01*
X12736200Y-5116200D02*
X12736200Y-5196200D01*
X12696200Y-5156200D02*
X12776200Y-5156200D01*
X13104500Y-5167000D02*
X13104500Y-5247000D01*
X13064500Y-5207000D02*
X13144500Y-5207000D01*
X13612500Y-5167000D02*
X13612500Y-5247000D01*
X13572500Y-5207000D02*
X13652500Y-5207000D01*
X19812000Y-7279500D02*
X19812000Y-7359500D01*
X19772000Y-7319500D02*
X19852000Y-7319500D01*
X20066000Y-7279500D02*
X20066000Y-7359500D01*
X20026000Y-7319500D02*
X20106000Y-7319500D01*
X20320000Y-7279500D02*
X20320000Y-7359500D01*
X20280000Y-7319500D02*
X20360000Y-7319500D01*
X20574000Y-7279500D02*
X20574000Y-7359500D01*
X20534000Y-7319500D02*
X20614000Y-7319500D01*
X20641500Y-5167000D02*
X20641500Y-5247000D01*
X20601500Y-5207000D02*
X20681500Y-5207000D01*
X21141500Y-5167000D02*
X21141500Y-5247000D01*
X21101500Y-5207000D02*
X21181500Y-5207000D01*
D15*
X11913856Y-5521756D02*
X11913856Y-5451044D01*
X11843144Y-5451044D01*
X11843144Y-5521756D01*
X11913856Y-5521756D01*
X11913856Y-7248956D02*
X11913856Y-7178244D01*
X11843144Y-7178244D01*
X11843144Y-7248956D01*
X11913856Y-7248956D01*
X12413856Y-5521756D02*
X12413856Y-5451044D01*
X12343144Y-5451044D01*
X12343144Y-5521756D01*
X12413856Y-5521756D01*
X12413856Y-7248956D02*
X12413856Y-7178244D01*
X12343144Y-7178244D01*
X12343144Y-7248956D01*
X12413856Y-7248956D01*
X12479856Y-8925356D02*
X12479856Y-8854644D01*
X12409144Y-8854644D01*
X12409144Y-8925356D01*
X12479856Y-8925356D01*
D11*
X12314500Y-8930000D02*
X12574500Y-8930000D01*
X12314500Y-8850000D02*
X12574500Y-8850000D01*
X12574500Y-8930000D02*
G75*
G03*
X12574500Y-8850000I0J40000D01*
G01*
X12314500Y-8850000D02*
G75*
G03*
X12314500Y-8930000I0J-40000D01*
G01*
D15*
X12479856Y-9555356D02*
X12479856Y-9484644D01*
X12409144Y-9484644D01*
X12409144Y-9555356D01*
X12479856Y-9555356D01*
D11*
X12334500Y-9560000D02*
X12554500Y-9560000D01*
X12334500Y-9480000D02*
X12554500Y-9480000D01*
X12554500Y-9560000D02*
G75*
G03*
X12554500Y-9480000I0J40000D01*
G01*
X12334500Y-9480000D02*
G75*
G03*
X12334500Y-9560000I0J-40000D01*
G01*
D15*
X12802856Y-5572556D02*
X12802856Y-5501844D01*
X12732144Y-5501844D01*
X12732144Y-5572556D01*
X12802856Y-5572556D01*
X12959856Y-9215356D02*
X12959856Y-9144644D01*
X12889144Y-9144644D01*
X12889144Y-9215356D01*
X12959856Y-9215356D01*
D11*
X12884500Y-9070000D02*
X12884500Y-9290000D01*
X12964500Y-9070000D02*
X12964500Y-9290000D01*
X12884500Y-9290000D02*
G75*
G03*
X12964500Y-9290000I40000J0D01*
G01*
X12964500Y-9070000D02*
G75*
G03*
X12884500Y-9070000I-40000J0D01*
G01*
D15*
X13302856Y-5572556D02*
X13302856Y-5501844D01*
X13232144Y-5501844D01*
X13232144Y-5572556D01*
X13302856Y-5572556D01*
X14576856Y-9941356D02*
X14576856Y-9870644D01*
X14506144Y-9870644D01*
X14506144Y-9941356D01*
X14576856Y-9941356D01*
X14830856Y-9941356D02*
X14830856Y-9870644D01*
X14760144Y-9870644D01*
X14760144Y-9941356D01*
X14830856Y-9941356D01*
X15084856Y-9941356D02*
X15084856Y-9870644D01*
X15014144Y-9870644D01*
X15014144Y-9941356D01*
X15084856Y-9941356D01*
X15338856Y-9941356D02*
X15338856Y-9870644D01*
X15268144Y-9870644D01*
X15268144Y-9941356D01*
X15338856Y-9941356D01*
X15592856Y-9941356D02*
X15592856Y-9870644D01*
X15522144Y-9870644D01*
X15522144Y-9941356D01*
X15592856Y-9941356D01*
X15593856Y-5623356D02*
X15593856Y-5552644D01*
X15523144Y-5552644D01*
X15523144Y-5623356D01*
X15593856Y-5623356D01*
X15847856Y-5623356D02*
X15847856Y-5552644D01*
X15777144Y-5552644D01*
X15777144Y-5623356D01*
X15847856Y-5623356D01*
X16101856Y-5623356D02*
X16101856Y-5552644D01*
X16031144Y-5552644D01*
X16031144Y-5623356D01*
X16101856Y-5623356D01*
X16355856Y-5623356D02*
X16355856Y-5552644D01*
X16285144Y-5552644D01*
X16285144Y-5623356D01*
X16355856Y-5623356D01*
X16608856Y-9941356D02*
X16608856Y-9870644D01*
X16538144Y-9870644D01*
X16538144Y-9941356D01*
X16608856Y-9941356D01*
X16862856Y-9941356D02*
X16862856Y-9870644D01*
X16792144Y-9870644D01*
X16792144Y-9941356D01*
X16862856Y-9941356D01*
X17116856Y-9941356D02*
X17116856Y-9870644D01*
X17046144Y-9870644D01*
X17046144Y-9941356D01*
X17116856Y-9941356D01*
X17370856Y-9941356D02*
X17370856Y-9870644D01*
X17300144Y-9870644D01*
X17300144Y-9941356D01*
X17370856Y-9941356D01*
X17624856Y-9941356D02*
X17624856Y-9870644D01*
X17554144Y-9870644D01*
X17554144Y-9941356D01*
X17624856Y-9941356D01*
X18577356Y-7529356D02*
X18577356Y-7458644D01*
X18506644Y-7458644D01*
X18506644Y-7529356D01*
X18577356Y-7529356D01*
X18577356Y-8289356D02*
X18577356Y-8218644D01*
X18506644Y-8218644D01*
X18506644Y-8289356D01*
X18577356Y-8289356D01*
D16*
X18344000Y-9355000D02*
X18399000Y-9300000D01*
X18344000Y-9245000D01*
X18289000Y-9300000D01*
X18344000Y-9355000D01*
X18344000Y-9805000D02*
X18399000Y-9750000D01*
X18344000Y-9695000D01*
X18289000Y-9750000D01*
X18344000Y-9805000D01*
X18994000Y-9355000D02*
X19049000Y-9300000D01*
X18994000Y-9245000D01*
X18939000Y-9300000D01*
X18994000Y-9355000D01*
X18994000Y-9805000D02*
X19049000Y-9750000D01*
X18994000Y-9695000D01*
X18939000Y-9750000D01*
X18994000Y-9805000D01*
D17*
X12000000Y-4380000D02*
X12130000Y-4510000D01*
X12130000Y-4380000D02*
X12000000Y-4510000D01*
X12130000Y-4445000D02*
G75*
G03*
X12130000Y-4445000I-65000J0D01*
G01*
X12508000Y-4380000D02*
X12638000Y-4510000D01*
X12638000Y-4380000D02*
X12508000Y-4510000D01*
X12638000Y-4445000D02*
G75*
G03*
X12638000Y-4445000I-65000J0D01*
G01*
X20382000Y-4380000D02*
X20512000Y-4510000D01*
X20512000Y-4380000D02*
X20382000Y-4510000D01*
X20512000Y-4445000D02*
G75*
G03*
X20512000Y-4445000I-65000J0D01*
G01*
X20890000Y-4380000D02*
X21020000Y-4510000D01*
X21020000Y-4380000D02*
X20890000Y-4510000D01*
X21020000Y-4445000D02*
G75*
G03*
X21020000Y-4445000I-65000J0D01*
G01*
D18*
X11804500Y-5797400D02*
X11944500Y-5937400D01*
X11944500Y-5797400D02*
X11804500Y-5937400D01*
X11874500Y-5797400D02*
X11874500Y-5937400D01*
X11804500Y-5867400D02*
X11944500Y-5867400D01*
X11804500Y-6813400D02*
X11944500Y-6953400D01*
X11944500Y-6813400D02*
X11804500Y-6953400D01*
X11874500Y-6813400D02*
X11874500Y-6953400D01*
X11804500Y-6883400D02*
X11944500Y-6883400D01*
X12312500Y-5797400D02*
X12452500Y-5937400D01*
X12452500Y-5797400D02*
X12312500Y-5937400D01*
X12382500Y-5797400D02*
X12382500Y-5937400D01*
X12312500Y-5867400D02*
X12452500Y-5867400D01*
X12312500Y-6813400D02*
X12452500Y-6953400D01*
X12452500Y-6813400D02*
X12312500Y-6953400D01*
X12382500Y-6813400D02*
X12382500Y-6953400D01*
X12312500Y-6883400D02*
X12452500Y-6883400D01*
X12782400Y-5797400D02*
X12922400Y-5937400D01*
X12922400Y-5797400D02*
X12782400Y-5937400D01*
X12852400Y-5797400D02*
X12852400Y-5937400D01*
X12782400Y-5867400D02*
X12922400Y-5867400D01*
X12782400Y-6813400D02*
X12922400Y-6953400D01*
X12922400Y-6813400D02*
X12782400Y-6953400D01*
X12852400Y-6813400D02*
X12852400Y-6953400D01*
X12782400Y-6883400D02*
X12922400Y-6883400D01*
D11*
X11809619Y-10602476D02*
X11809619Y-10402476D01*
X11857238Y-10402476D01*
X11885809Y-10412000D01*
X11904857Y-10431048D01*
X11914381Y-10450095D01*
X11923905Y-10488190D01*
X11923905Y-10516762D01*
X11914381Y-10554857D01*
X11904857Y-10573905D01*
X11885809Y-10592952D01*
X11857238Y-10602476D01*
X11809619Y-10602476D01*
X12009619Y-10602476D02*
X12009619Y-10469143D01*
X12009619Y-10507238D02*
X12019143Y-10488190D01*
X12028667Y-10478667D01*
X12047714Y-10469143D01*
X12066762Y-10469143D01*
X12133428Y-10602476D02*
X12133428Y-10469143D01*
X12133428Y-10402476D02*
X12123905Y-10412000D01*
X12133428Y-10421524D01*
X12142952Y-10412000D01*
X12133428Y-10402476D01*
X12133428Y-10421524D01*
X12257238Y-10602476D02*
X12238190Y-10592952D01*
X12228667Y-10573905D01*
X12228667Y-10402476D01*
X12362000Y-10602476D02*
X12342952Y-10592952D01*
X12333428Y-10573905D01*
X12333428Y-10402476D01*
X12590571Y-10602476D02*
X12590571Y-10402476D01*
X12657238Y-10545333D01*
X12723905Y-10402476D01*
X12723905Y-10602476D01*
X12904857Y-10602476D02*
X12904857Y-10497714D01*
X12895333Y-10478667D01*
X12876286Y-10469143D01*
X12838190Y-10469143D01*
X12819143Y-10478667D01*
X12904857Y-10592952D02*
X12885809Y-10602476D01*
X12838190Y-10602476D01*
X12819143Y-10592952D01*
X12809619Y-10573905D01*
X12809619Y-10554857D01*
X12819143Y-10535810D01*
X12838190Y-10526286D01*
X12885809Y-10526286D01*
X12904857Y-10516762D01*
X13000095Y-10469143D02*
X13000095Y-10669143D01*
X13000095Y-10478667D02*
X13019143Y-10469143D01*
X13057238Y-10469143D01*
X13076286Y-10478667D01*
X13085809Y-10488190D01*
X13095333Y-10507238D01*
X13095333Y-10564381D01*
X13085809Y-10583429D01*
X13076286Y-10592952D01*
X13057238Y-10602476D01*
X13019143Y-10602476D01*
X13000095Y-10592952D01*
X13181048Y-10583429D02*
X13190571Y-10592952D01*
X13181048Y-10602476D01*
X13171524Y-10592952D01*
X13181048Y-10583429D01*
X13181048Y-10602476D01*
X13181048Y-10478667D02*
X13190571Y-10488190D01*
X13181048Y-10497714D01*
X13171524Y-10488190D01*
X13181048Y-10478667D01*
X13181048Y-10497714D01*
D12*
X11512000Y-10912000D02*
X11552000Y-10952000D01*
X11552000Y-10912000D02*
X11512000Y-10952000D01*
D11*
X11847714Y-10822476D02*
X11866762Y-10822476D01*
X11885809Y-10832000D01*
X11895333Y-10841524D01*
X11904857Y-10860571D01*
X11914381Y-10898667D01*
X11914381Y-10946286D01*
X11904857Y-10984381D01*
X11895333Y-11003429D01*
X11885809Y-11012952D01*
X11866762Y-11022476D01*
X11847714Y-11022476D01*
X11828667Y-11012952D01*
X11819143Y-11003429D01*
X11809619Y-10984381D01*
X11800095Y-10946286D01*
X11800095Y-10898667D01*
X11809619Y-10860571D01*
X11819143Y-10841524D01*
X11828667Y-10832000D01*
X11847714Y-10822476D01*
X12000095Y-11003429D02*
X12009619Y-11012952D01*
X12000095Y-11022476D01*
X11990571Y-11012952D01*
X12000095Y-11003429D01*
X12000095Y-11022476D01*
X12181048Y-10889143D02*
X12181048Y-11022476D01*
X12133428Y-10812952D02*
X12085809Y-10955810D01*
X12209619Y-10955810D01*
X12323905Y-10822476D02*
X12342952Y-10822476D01*
X12362000Y-10832000D01*
X12371524Y-10841524D01*
X12381048Y-10860571D01*
X12390571Y-10898667D01*
X12390571Y-10946286D01*
X12381048Y-10984381D01*
X12371524Y-11003429D01*
X12362000Y-11012952D01*
X12342952Y-11022476D01*
X12323905Y-11022476D01*
X12304857Y-11012952D01*
X12295333Y-11003429D01*
X12285809Y-10984381D01*
X12276286Y-10946286D01*
X12276286Y-10898667D01*
X12285809Y-10860571D01*
X12295333Y-10841524D01*
X12304857Y-10832000D01*
X12323905Y-10822476D01*
X12514381Y-10822476D02*
X12533428Y-10822476D01*
X12552476Y-10832000D01*
X12562000Y-10841524D01*
X12571524Y-10860571D01*
X12581048Y-10898667D01*
X12581048Y-10946286D01*
X12571524Y-10984381D01*
X12562000Y-11003429D01*
X12552476Y-11012952D01*
X12533428Y-11022476D01*
X12514381Y-11022476D01*
X12495333Y-11012952D01*
X12485809Y-11003429D01*
X12476286Y-10984381D01*
X12466762Y-10946286D01*
X12466762Y-10898667D01*
X12476286Y-10860571D01*
X12485809Y-10841524D01*
X12495333Y-10832000D01*
X12514381Y-10822476D01*
X12666762Y-11022476D02*
X12666762Y-10889143D01*
X12666762Y-10908190D02*
X12676286Y-10898667D01*
X12695333Y-10889143D01*
X12723905Y-10889143D01*
X12742952Y-10898667D01*
X12752476Y-10917714D01*
X12752476Y-11022476D01*
X12752476Y-10917714D02*
X12762000Y-10898667D01*
X12781048Y-10889143D01*
X12809619Y-10889143D01*
X12828667Y-10898667D01*
X12838190Y-10917714D01*
X12838190Y-11022476D01*
X12933428Y-11022476D02*
X12933428Y-10889143D01*
X12933428Y-10908190D02*
X12942952Y-10898667D01*
X12962000Y-10889143D01*
X12990571Y-10889143D01*
X13009619Y-10898667D01*
X13019143Y-10917714D01*
X13019143Y-11022476D01*
X13019143Y-10917714D02*
X13028667Y-10898667D01*
X13047714Y-10889143D01*
X13076286Y-10889143D01*
X13095333Y-10898667D01*
X13104857Y-10917714D01*
X13104857Y-11022476D01*
X13495333Y-10812952D02*
X13323905Y-11070095D01*
X13752476Y-10822476D02*
X13771524Y-10822476D01*
X13790571Y-10832000D01*
X13800095Y-10841524D01*
X13809619Y-10860571D01*
X13819143Y-10898667D01*
X13819143Y-10946286D01*
X13809619Y-10984381D01*
X13800095Y-11003429D01*
X13790571Y-11012952D01*
X13771524Y-11022476D01*
X13752476Y-11022476D01*
X13733428Y-11012952D01*
X13723905Y-11003429D01*
X13714381Y-10984381D01*
X13704857Y-10946286D01*
X13704857Y-10898667D01*
X13714381Y-10860571D01*
X13723905Y-10841524D01*
X13733428Y-10832000D01*
X13752476Y-10822476D01*
X13904857Y-11003429D02*
X13914381Y-11012952D01*
X13904857Y-11022476D01*
X13895333Y-11012952D01*
X13904857Y-11003429D01*
X13904857Y-11022476D01*
X14038190Y-10822476D02*
X14057238Y-10822476D01*
X14076286Y-10832000D01*
X14085809Y-10841524D01*
X14095333Y-10860571D01*
X14104857Y-10898667D01*
X14104857Y-10946286D01*
X14095333Y-10984381D01*
X14085809Y-11003429D01*
X14076286Y-11012952D01*
X14057238Y-11022476D01*
X14038190Y-11022476D01*
X14019143Y-11012952D01*
X14009619Y-11003429D01*
X14000095Y-10984381D01*
X13990571Y-10946286D01*
X13990571Y-10898667D01*
X14000095Y-10860571D01*
X14009619Y-10841524D01*
X14019143Y-10832000D01*
X14038190Y-10822476D01*
X14295333Y-11022476D02*
X14181048Y-11022476D01*
X14238190Y-11022476D02*
X14238190Y-10822476D01*
X14219143Y-10851048D01*
X14200095Y-10870095D01*
X14181048Y-10879619D01*
X14476286Y-10822476D02*
X14381048Y-10822476D01*
X14371524Y-10917714D01*
X14381048Y-10908190D01*
X14400095Y-10898667D01*
X14447714Y-10898667D01*
X14466762Y-10908190D01*
X14476286Y-10917714D01*
X14485809Y-10936762D01*
X14485809Y-10984381D01*
X14476286Y-11003429D01*
X14466762Y-11012952D01*
X14447714Y-11022476D01*
X14400095Y-11022476D01*
X14381048Y-11012952D01*
X14371524Y-11003429D01*
X14552476Y-10822476D02*
X14685809Y-10822476D01*
X14600095Y-11022476D01*
X14752476Y-10822476D02*
X14752476Y-10860571D01*
X14828667Y-10822476D02*
X14828667Y-10860571D01*
X15123905Y-11098667D02*
X15114381Y-11089143D01*
X15095333Y-11060571D01*
X15085809Y-11041524D01*
X15076286Y-11012952D01*
X15066762Y-10965333D01*
X15066762Y-10927238D01*
X15076286Y-10879619D01*
X15085809Y-10851048D01*
X15095333Y-10832000D01*
X15114381Y-10803429D01*
X15123905Y-10793905D01*
X15285809Y-10822476D02*
X15247714Y-10822476D01*
X15228667Y-10832000D01*
X15219143Y-10841524D01*
X15200095Y-10870095D01*
X15190571Y-10908190D01*
X15190571Y-10984381D01*
X15200095Y-11003429D01*
X15209619Y-11012952D01*
X15228667Y-11022476D01*
X15266762Y-11022476D01*
X15285809Y-11012952D01*
X15295333Y-11003429D01*
X15304857Y-10984381D01*
X15304857Y-10936762D01*
X15295333Y-10917714D01*
X15285809Y-10908190D01*
X15266762Y-10898667D01*
X15228667Y-10898667D01*
X15209619Y-10908190D01*
X15200095Y-10917714D01*
X15190571Y-10936762D01*
X15419143Y-10908190D02*
X15400095Y-10898667D01*
X15390571Y-10889143D01*
X15381048Y-10870095D01*
X15381048Y-10860571D01*
X15390571Y-10841524D01*
X15400095Y-10832000D01*
X15419143Y-10822476D01*
X15457238Y-10822476D01*
X15476286Y-10832000D01*
X15485809Y-10841524D01*
X15495333Y-10860571D01*
X15495333Y-10870095D01*
X15485809Y-10889143D01*
X15476286Y-10898667D01*
X15457238Y-10908190D01*
X15419143Y-10908190D01*
X15400095Y-10917714D01*
X15390571Y-10927238D01*
X15381048Y-10946286D01*
X15381048Y-10984381D01*
X15390571Y-11003429D01*
X15400095Y-11012952D01*
X15419143Y-11022476D01*
X15457238Y-11022476D01*
X15476286Y-11012952D01*
X15485809Y-11003429D01*
X15495333Y-10984381D01*
X15495333Y-10946286D01*
X15485809Y-10927238D01*
X15476286Y-10917714D01*
X15457238Y-10908190D01*
X15733428Y-11022476D02*
X15733428Y-10822476D01*
X15819143Y-11022476D02*
X15819143Y-10917714D01*
X15809619Y-10898667D01*
X15790571Y-10889143D01*
X15762000Y-10889143D01*
X15742952Y-10898667D01*
X15733428Y-10908190D01*
X15942952Y-11022476D02*
X15923905Y-11012952D01*
X15914381Y-11003429D01*
X15904857Y-10984381D01*
X15904857Y-10927238D01*
X15914381Y-10908190D01*
X15923905Y-10898667D01*
X15942952Y-10889143D01*
X15971524Y-10889143D01*
X15990571Y-10898667D01*
X16000095Y-10908190D01*
X16009619Y-10927238D01*
X16009619Y-10984381D01*
X16000095Y-11003429D01*
X15990571Y-11012952D01*
X15971524Y-11022476D01*
X15942952Y-11022476D01*
X16123905Y-11022476D02*
X16104857Y-11012952D01*
X16095333Y-10993905D01*
X16095333Y-10822476D01*
X16276286Y-11012952D02*
X16257238Y-11022476D01*
X16219143Y-11022476D01*
X16200095Y-11012952D01*
X16190571Y-10993905D01*
X16190571Y-10917714D01*
X16200095Y-10898667D01*
X16219143Y-10889143D01*
X16257238Y-10889143D01*
X16276286Y-10898667D01*
X16285809Y-10917714D01*
X16285809Y-10936762D01*
X16190571Y-10955810D01*
X16362000Y-11012952D02*
X16381048Y-11022476D01*
X16419143Y-11022476D01*
X16438190Y-11012952D01*
X16447714Y-10993905D01*
X16447714Y-10984381D01*
X16438190Y-10965333D01*
X16419143Y-10955810D01*
X16390571Y-10955810D01*
X16371524Y-10946286D01*
X16362000Y-10927238D01*
X16362000Y-10917714D01*
X16371524Y-10898667D01*
X16390571Y-10889143D01*
X16419143Y-10889143D01*
X16438190Y-10898667D01*
X16514381Y-11098667D02*
X16523905Y-11089143D01*
X16542952Y-11060571D01*
X16552476Y-11041524D01*
X16562000Y-11012952D01*
X16571524Y-10965333D01*
X16571524Y-10927238D01*
X16562000Y-10879619D01*
X16552476Y-10851048D01*
X16542952Y-10832000D01*
X16523905Y-10803429D01*
X16514381Y-10793905D01*
D13*
X11552000Y-11196000D02*
G75*
G03*
X11552000Y-11196000I-35000J0D01*
G01*
D11*
X11847714Y-11086476D02*
X11866762Y-11086476D01*
X11885809Y-11096000D01*
X11895333Y-11105524D01*
X11904857Y-11124571D01*
X11914381Y-11162667D01*
X11914381Y-11210286D01*
X11904857Y-11248381D01*
X11895333Y-11267428D01*
X11885809Y-11276952D01*
X11866762Y-11286476D01*
X11847714Y-11286476D01*
X11828667Y-11276952D01*
X11819143Y-11267428D01*
X11809619Y-11248381D01*
X11800095Y-11210286D01*
X11800095Y-11162667D01*
X11809619Y-11124571D01*
X11819143Y-11105524D01*
X11828667Y-11096000D01*
X11847714Y-11086476D01*
X12000095Y-11267428D02*
X12009619Y-11276952D01*
X12000095Y-11286476D01*
X11990571Y-11276952D01*
X12000095Y-11267428D01*
X12000095Y-11286476D01*
X12076286Y-11086476D02*
X12209619Y-11086476D01*
X12123905Y-11286476D01*
X12323905Y-11086476D02*
X12342952Y-11086476D01*
X12362000Y-11096000D01*
X12371524Y-11105524D01*
X12381048Y-11124571D01*
X12390571Y-11162667D01*
X12390571Y-11210286D01*
X12381048Y-11248381D01*
X12371524Y-11267428D01*
X12362000Y-11276952D01*
X12342952Y-11286476D01*
X12323905Y-11286476D01*
X12304857Y-11276952D01*
X12295333Y-11267428D01*
X12285809Y-11248381D01*
X12276286Y-11210286D01*
X12276286Y-11162667D01*
X12285809Y-11124571D01*
X12295333Y-11105524D01*
X12304857Y-11096000D01*
X12323905Y-11086476D01*
X12514381Y-11086476D02*
X12533428Y-11086476D01*
X12552476Y-11096000D01*
X12562000Y-11105524D01*
X12571524Y-11124571D01*
X12581048Y-11162667D01*
X12581048Y-11210286D01*
X12571524Y-11248381D01*
X12562000Y-11267428D01*
X12552476Y-11276952D01*
X12533428Y-11286476D01*
X12514381Y-11286476D01*
X12495333Y-11276952D01*
X12485809Y-11267428D01*
X12476286Y-11248381D01*
X12466762Y-11210286D01*
X12466762Y-11162667D01*
X12476286Y-11124571D01*
X12485809Y-11105524D01*
X12495333Y-11096000D01*
X12514381Y-11086476D01*
X12666762Y-11286476D02*
X12666762Y-11153143D01*
X12666762Y-11172190D02*
X12676286Y-11162667D01*
X12695333Y-11153143D01*
X12723905Y-11153143D01*
X12742952Y-11162667D01*
X12752476Y-11181714D01*
X12752476Y-11286476D01*
X12752476Y-11181714D02*
X12762000Y-11162667D01*
X12781048Y-11153143D01*
X12809619Y-11153143D01*
X12828667Y-11162667D01*
X12838190Y-11181714D01*
X12838190Y-11286476D01*
X12933428Y-11286476D02*
X12933428Y-11153143D01*
X12933428Y-11172190D02*
X12942952Y-11162667D01*
X12962000Y-11153143D01*
X12990571Y-11153143D01*
X13009619Y-11162667D01*
X13019143Y-11181714D01*
X13019143Y-11286476D01*
X13019143Y-11181714D02*
X13028667Y-11162667D01*
X13047714Y-11153143D01*
X13076286Y-11153143D01*
X13095333Y-11162667D01*
X13104857Y-11181714D01*
X13104857Y-11286476D01*
X13495333Y-11076952D02*
X13323905Y-11334095D01*
X13752476Y-11086476D02*
X13771524Y-11086476D01*
X13790571Y-11096000D01*
X13800095Y-11105524D01*
X13809619Y-11124571D01*
X13819143Y-11162667D01*
X13819143Y-11210286D01*
X13809619Y-11248381D01*
X13800095Y-11267428D01*
X13790571Y-11276952D01*
X13771524Y-11286476D01*
X13752476Y-11286476D01*
X13733428Y-11276952D01*
X13723905Y-11267428D01*
X13714381Y-11248381D01*
X13704857Y-11210286D01*
X13704857Y-11162667D01*
X13714381Y-11124571D01*
X13723905Y-11105524D01*
X13733428Y-11096000D01*
X13752476Y-11086476D01*
X13904857Y-11267428D02*
X13914381Y-11276952D01*
X13904857Y-11286476D01*
X13895333Y-11276952D01*
X13904857Y-11267428D01*
X13904857Y-11286476D01*
X14038190Y-11086476D02*
X14057238Y-11086476D01*
X14076286Y-11096000D01*
X14085809Y-11105524D01*
X14095333Y-11124571D01*
X14104857Y-11162667D01*
X14104857Y-11210286D01*
X14095333Y-11248381D01*
X14085809Y-11267428D01*
X14076286Y-11276952D01*
X14057238Y-11286476D01*
X14038190Y-11286476D01*
X14019143Y-11276952D01*
X14009619Y-11267428D01*
X14000095Y-11248381D01*
X13990571Y-11210286D01*
X13990571Y-11162667D01*
X14000095Y-11124571D01*
X14009619Y-11105524D01*
X14019143Y-11096000D01*
X14038190Y-11086476D01*
X14181048Y-11105524D02*
X14190571Y-11096000D01*
X14209619Y-11086476D01*
X14257238Y-11086476D01*
X14276286Y-11096000D01*
X14285809Y-11105524D01*
X14295333Y-11124571D01*
X14295333Y-11143619D01*
X14285809Y-11172190D01*
X14171524Y-11286476D01*
X14295333Y-11286476D01*
X14362000Y-11086476D02*
X14495333Y-11086476D01*
X14409619Y-11286476D01*
X14657238Y-11086476D02*
X14619143Y-11086476D01*
X14600095Y-11096000D01*
X14590571Y-11105524D01*
X14571524Y-11134095D01*
X14562000Y-11172190D01*
X14562000Y-11248381D01*
X14571524Y-11267428D01*
X14581048Y-11276952D01*
X14600095Y-11286476D01*
X14638190Y-11286476D01*
X14657238Y-11276952D01*
X14666762Y-11267428D01*
X14676286Y-11248381D01*
X14676286Y-11200762D01*
X14666762Y-11181714D01*
X14657238Y-11172190D01*
X14638190Y-11162667D01*
X14600095Y-11162667D01*
X14581048Y-11172190D01*
X14571524Y-11181714D01*
X14562000Y-11200762D01*
X14752476Y-11086476D02*
X14752476Y-11124571D01*
X14828667Y-11086476D02*
X14828667Y-11124571D01*
X15123905Y-11362667D02*
X15114381Y-11353143D01*
X15095333Y-11324571D01*
X15085809Y-11305524D01*
X15076286Y-11276952D01*
X15066762Y-11229333D01*
X15066762Y-11191238D01*
X15076286Y-11143619D01*
X15085809Y-11115048D01*
X15095333Y-11096000D01*
X15114381Y-11067429D01*
X15123905Y-11057905D01*
X15304857Y-11286476D02*
X15190571Y-11286476D01*
X15247714Y-11286476D02*
X15247714Y-11086476D01*
X15228667Y-11115048D01*
X15209619Y-11134095D01*
X15190571Y-11143619D01*
X15428667Y-11086476D02*
X15447714Y-11086476D01*
X15466762Y-11096000D01*
X15476286Y-11105524D01*
X15485809Y-11124571D01*
X15495333Y-11162667D01*
X15495333Y-11210286D01*
X15485809Y-11248381D01*
X15476286Y-11267428D01*
X15466762Y-11276952D01*
X15447714Y-11286476D01*
X15428667Y-11286476D01*
X15409619Y-11276952D01*
X15400095Y-11267428D01*
X15390571Y-11248381D01*
X15381048Y-11210286D01*
X15381048Y-11162667D01*
X15390571Y-11124571D01*
X15400095Y-11105524D01*
X15409619Y-11096000D01*
X15428667Y-11086476D01*
X15733428Y-11286476D02*
X15733428Y-11086476D01*
X15819143Y-11286476D02*
X15819143Y-11181714D01*
X15809619Y-11162667D01*
X15790571Y-11153143D01*
X15762000Y-11153143D01*
X15742952Y-11162667D01*
X15733428Y-11172190D01*
X15942952Y-11286476D02*
X15923905Y-11276952D01*
X15914381Y-11267428D01*
X15904857Y-11248381D01*
X15904857Y-11191238D01*
X15914381Y-11172190D01*
X15923905Y-11162667D01*
X15942952Y-11153143D01*
X15971524Y-11153143D01*
X15990571Y-11162667D01*
X16000095Y-11172190D01*
X16009619Y-11191238D01*
X16009619Y-11248381D01*
X16000095Y-11267428D01*
X15990571Y-11276952D01*
X15971524Y-11286476D01*
X15942952Y-11286476D01*
X16123905Y-11286476D02*
X16104857Y-11276952D01*
X16095333Y-11257905D01*
X16095333Y-11086476D01*
X16276286Y-11276952D02*
X16257238Y-11286476D01*
X16219143Y-11286476D01*
X16200095Y-11276952D01*
X16190571Y-11257905D01*
X16190571Y-11181714D01*
X16200095Y-11162667D01*
X16219143Y-11153143D01*
X16257238Y-11153143D01*
X16276286Y-11162667D01*
X16285809Y-11181714D01*
X16285809Y-11200762D01*
X16190571Y-11219809D01*
X16362000Y-11276952D02*
X16381048Y-11286476D01*
X16419143Y-11286476D01*
X16438190Y-11276952D01*
X16447714Y-11257905D01*
X16447714Y-11248381D01*
X16438190Y-11229333D01*
X16419143Y-11219809D01*
X16390571Y-11219809D01*
X16371524Y-11210286D01*
X16362000Y-11191238D01*
X16362000Y-11181714D01*
X16371524Y-11162667D01*
X16390571Y-11153143D01*
X16419143Y-11153143D01*
X16438190Y-11162667D01*
X16514381Y-11362667D02*
X16523905Y-11353143D01*
X16542952Y-11324571D01*
X16552476Y-11305524D01*
X16562000Y-11276952D01*
X16571524Y-11229333D01*
X16571524Y-11191238D01*
X16562000Y-11143619D01*
X16552476Y-11115048D01*
X16542952Y-11096000D01*
X16523905Y-11067429D01*
X16514381Y-11057905D01*
D14*
X11512000Y-11420000D02*
X11512000Y-11500000D01*
X11472000Y-11460000D02*
X11552000Y-11460000D01*
D11*
X11847714Y-11350476D02*
X11866762Y-11350476D01*
X11885809Y-11360000D01*
X11895333Y-11369524D01*
X11904857Y-11388571D01*
X11914381Y-11426667D01*
X11914381Y-11474286D01*
X11904857Y-11512381D01*
X11895333Y-11531428D01*
X11885809Y-11540952D01*
X11866762Y-11550476D01*
X11847714Y-11550476D01*
X11828667Y-11540952D01*
X11819143Y-11531428D01*
X11809619Y-11512381D01*
X11800095Y-11474286D01*
X11800095Y-11426667D01*
X11809619Y-11388571D01*
X11819143Y-11369524D01*
X11828667Y-11360000D01*
X11847714Y-11350476D01*
X12000095Y-11531428D02*
X12009619Y-11540952D01*
X12000095Y-11550476D01*
X11990571Y-11540952D01*
X12000095Y-11531428D01*
X12000095Y-11550476D01*
X12123905Y-11436190D02*
X12104857Y-11426667D01*
X12095333Y-11417143D01*
X12085809Y-11398095D01*
X12085809Y-11388571D01*
X12095333Y-11369524D01*
X12104857Y-11360000D01*
X12123905Y-11350476D01*
X12162000Y-11350476D01*
X12181048Y-11360000D01*
X12190571Y-11369524D01*
X12200095Y-11388571D01*
X12200095Y-11398095D01*
X12190571Y-11417143D01*
X12181048Y-11426667D01*
X12162000Y-11436190D01*
X12123905Y-11436190D01*
X12104857Y-11445714D01*
X12095333Y-11455238D01*
X12085809Y-11474286D01*
X12085809Y-11512381D01*
X12095333Y-11531428D01*
X12104857Y-11540952D01*
X12123905Y-11550476D01*
X12162000Y-11550476D01*
X12181048Y-11540952D01*
X12190571Y-11531428D01*
X12200095Y-11512381D01*
X12200095Y-11474286D01*
X12190571Y-11455238D01*
X12181048Y-11445714D01*
X12162000Y-11436190D01*
X12323905Y-11350476D02*
X12342952Y-11350476D01*
X12362000Y-11360000D01*
X12371524Y-11369524D01*
X12381048Y-11388571D01*
X12390571Y-11426667D01*
X12390571Y-11474286D01*
X12381048Y-11512381D01*
X12371524Y-11531428D01*
X12362000Y-11540952D01*
X12342952Y-11550476D01*
X12323905Y-11550476D01*
X12304857Y-11540952D01*
X12295333Y-11531428D01*
X12285809Y-11512381D01*
X12276286Y-11474286D01*
X12276286Y-11426667D01*
X12285809Y-11388571D01*
X12295333Y-11369524D01*
X12304857Y-11360000D01*
X12323905Y-11350476D01*
X12514381Y-11350476D02*
X12533428Y-11350476D01*
X12552476Y-11360000D01*
X12562000Y-11369524D01*
X12571524Y-11388571D01*
X12581048Y-11426667D01*
X12581048Y-11474286D01*
X12571524Y-11512381D01*
X12562000Y-11531428D01*
X12552476Y-11540952D01*
X12533428Y-11550476D01*
X12514381Y-11550476D01*
X12495333Y-11540952D01*
X12485809Y-11531428D01*
X12476286Y-11512381D01*
X12466762Y-11474286D01*
X12466762Y-11426667D01*
X12476286Y-11388571D01*
X12485809Y-11369524D01*
X12495333Y-11360000D01*
X12514381Y-11350476D01*
X12666762Y-11550476D02*
X12666762Y-11417143D01*
X12666762Y-11436190D02*
X12676286Y-11426667D01*
X12695333Y-11417143D01*
X12723905Y-11417143D01*
X12742952Y-11426667D01*
X12752476Y-11445714D01*
X12752476Y-11550476D01*
X12752476Y-11445714D02*
X12762000Y-11426667D01*
X12781048Y-11417143D01*
X12809619Y-11417143D01*
X12828667Y-11426667D01*
X12838190Y-11445714D01*
X12838190Y-11550476D01*
X12933428Y-11550476D02*
X12933428Y-11417143D01*
X12933428Y-11436190D02*
X12942952Y-11426667D01*
X12962000Y-11417143D01*
X12990571Y-11417143D01*
X13009619Y-11426667D01*
X13019143Y-11445714D01*
X13019143Y-11550476D01*
X13019143Y-11445714D02*
X13028667Y-11426667D01*
X13047714Y-11417143D01*
X13076286Y-11417143D01*
X13095333Y-11426667D01*
X13104857Y-11445714D01*
X13104857Y-11550476D01*
X13495333Y-11340952D02*
X13323905Y-11598095D01*
X13752476Y-11350476D02*
X13771524Y-11350476D01*
X13790571Y-11360000D01*
X13800095Y-11369524D01*
X13809619Y-11388571D01*
X13819143Y-11426667D01*
X13819143Y-11474286D01*
X13809619Y-11512381D01*
X13800095Y-11531428D01*
X13790571Y-11540952D01*
X13771524Y-11550476D01*
X13752476Y-11550476D01*
X13733428Y-11540952D01*
X13723905Y-11531428D01*
X13714381Y-11512381D01*
X13704857Y-11474286D01*
X13704857Y-11426667D01*
X13714381Y-11388571D01*
X13723905Y-11369524D01*
X13733428Y-11360000D01*
X13752476Y-11350476D01*
X13904857Y-11531428D02*
X13914381Y-11540952D01*
X13904857Y-11550476D01*
X13895333Y-11540952D01*
X13904857Y-11531428D01*
X13904857Y-11550476D01*
X14038190Y-11350476D02*
X14057238Y-11350476D01*
X14076286Y-11360000D01*
X14085809Y-11369524D01*
X14095333Y-11388571D01*
X14104857Y-11426667D01*
X14104857Y-11474286D01*
X14095333Y-11512381D01*
X14085809Y-11531428D01*
X14076286Y-11540952D01*
X14057238Y-11550476D01*
X14038190Y-11550476D01*
X14019143Y-11540952D01*
X14009619Y-11531428D01*
X14000095Y-11512381D01*
X13990571Y-11474286D01*
X13990571Y-11426667D01*
X14000095Y-11388571D01*
X14009619Y-11369524D01*
X14019143Y-11360000D01*
X14038190Y-11350476D01*
X14171524Y-11350476D02*
X14295333Y-11350476D01*
X14228667Y-11426667D01*
X14257238Y-11426667D01*
X14276286Y-11436190D01*
X14285809Y-11445714D01*
X14295333Y-11464762D01*
X14295333Y-11512381D01*
X14285809Y-11531428D01*
X14276286Y-11540952D01*
X14257238Y-11550476D01*
X14200095Y-11550476D01*
X14181048Y-11540952D01*
X14171524Y-11531428D01*
X14485809Y-11550476D02*
X14371524Y-11550476D01*
X14428667Y-11550476D02*
X14428667Y-11350476D01*
X14409619Y-11379048D01*
X14390571Y-11398095D01*
X14371524Y-11407619D01*
X14666762Y-11350476D02*
X14571524Y-11350476D01*
X14562000Y-11445714D01*
X14571524Y-11436190D01*
X14590571Y-11426667D01*
X14638190Y-11426667D01*
X14657238Y-11436190D01*
X14666762Y-11445714D01*
X14676286Y-11464762D01*
X14676286Y-11512381D01*
X14666762Y-11531428D01*
X14657238Y-11540952D01*
X14638190Y-11550476D01*
X14590571Y-11550476D01*
X14571524Y-11540952D01*
X14562000Y-11531428D01*
X14752476Y-11350476D02*
X14752476Y-11388571D01*
X14828667Y-11350476D02*
X14828667Y-11388571D01*
X15123905Y-11626667D02*
X15114381Y-11617143D01*
X15095333Y-11588571D01*
X15085809Y-11569524D01*
X15076286Y-11540952D01*
X15066762Y-11493333D01*
X15066762Y-11455238D01*
X15076286Y-11407619D01*
X15085809Y-11379048D01*
X15095333Y-11360000D01*
X15114381Y-11331428D01*
X15123905Y-11321905D01*
X15304857Y-11550476D02*
X15190571Y-11550476D01*
X15247714Y-11550476D02*
X15247714Y-11350476D01*
X15228667Y-11379048D01*
X15209619Y-11398095D01*
X15190571Y-11407619D01*
X15428667Y-11350476D02*
X15447714Y-11350476D01*
X15466762Y-11360000D01*
X15476286Y-11369524D01*
X15485809Y-11388571D01*
X15495333Y-11426667D01*
X15495333Y-11474286D01*
X15485809Y-11512381D01*
X15476286Y-11531428D01*
X15466762Y-11540952D01*
X15447714Y-11550476D01*
X15428667Y-11550476D01*
X15409619Y-11540952D01*
X15400095Y-11531428D01*
X15390571Y-11512381D01*
X15381048Y-11474286D01*
X15381048Y-11426667D01*
X15390571Y-11388571D01*
X15400095Y-11369524D01*
X15409619Y-11360000D01*
X15428667Y-11350476D01*
X15733428Y-11550476D02*
X15733428Y-11350476D01*
X15819143Y-11550476D02*
X15819143Y-11445714D01*
X15809619Y-11426667D01*
X15790571Y-11417143D01*
X15762000Y-11417143D01*
X15742952Y-11426667D01*
X15733428Y-11436190D01*
X15942952Y-11550476D02*
X15923905Y-11540952D01*
X15914381Y-11531428D01*
X15904857Y-11512381D01*
X15904857Y-11455238D01*
X15914381Y-11436190D01*
X15923905Y-11426667D01*
X15942952Y-11417143D01*
X15971524Y-11417143D01*
X15990571Y-11426667D01*
X16000095Y-11436190D01*
X16009619Y-11455238D01*
X16009619Y-11512381D01*
X16000095Y-11531428D01*
X15990571Y-11540952D01*
X15971524Y-11550476D01*
X15942952Y-11550476D01*
X16123905Y-11550476D02*
X16104857Y-11540952D01*
X16095333Y-11521905D01*
X16095333Y-11350476D01*
X16276286Y-11540952D02*
X16257238Y-11550476D01*
X16219143Y-11550476D01*
X16200095Y-11540952D01*
X16190571Y-11521905D01*
X16190571Y-11445714D01*
X16200095Y-11426667D01*
X16219143Y-11417143D01*
X16257238Y-11417143D01*
X16276286Y-11426667D01*
X16285809Y-11445714D01*
X16285809Y-11464762D01*
X16190571Y-11483809D01*
X16362000Y-11540952D02*
X16381048Y-11550476D01*
X16419143Y-11550476D01*
X16438190Y-11540952D01*
X16447714Y-11521905D01*
X16447714Y-11512381D01*
X16438190Y-11493333D01*
X16419143Y-11483809D01*
X16390571Y-11483809D01*
X16371524Y-11474286D01*
X16362000Y-11455238D01*
X16362000Y-11445714D01*
X16371524Y-11426667D01*
X16390571Y-11417143D01*
X16419143Y-11417143D01*
X16438190Y-11426667D01*
X16514381Y-11626667D02*
X16523905Y-11617143D01*
X16542952Y-11588571D01*
X16552476Y-11569524D01*
X16562000Y-11540952D01*
X16571524Y-11493333D01*
X16571524Y-11455238D01*
X16562000Y-11407619D01*
X16552476Y-11379048D01*
X16542952Y-11360000D01*
X16523905Y-11331428D01*
X16514381Y-11321905D01*
D15*
X11537356Y-11759356D02*
X11537356Y-11688644D01*
X11466644Y-11688644D01*
X11466644Y-11759356D01*
X11537356Y-11759356D01*
D11*
X11914381Y-11814476D02*
X11800095Y-11814476D01*
X11857238Y-11814476D02*
X11857238Y-11614476D01*
X11838190Y-11643048D01*
X11819143Y-11662095D01*
X11800095Y-11671619D01*
X12000095Y-11795428D02*
X12009619Y-11804952D01*
X12000095Y-11814476D01*
X11990571Y-11804952D01*
X12000095Y-11795428D01*
X12000095Y-11814476D01*
X12133428Y-11614476D02*
X12152476Y-11614476D01*
X12171524Y-11624000D01*
X12181048Y-11633524D01*
X12190571Y-11652571D01*
X12200095Y-11690667D01*
X12200095Y-11738286D01*
X12190571Y-11776381D01*
X12181048Y-11795428D01*
X12171524Y-11804952D01*
X12152476Y-11814476D01*
X12133428Y-11814476D01*
X12114381Y-11804952D01*
X12104857Y-11795428D01*
X12095333Y-11776381D01*
X12085809Y-11738286D01*
X12085809Y-11690667D01*
X12095333Y-11652571D01*
X12104857Y-11633524D01*
X12114381Y-11624000D01*
X12133428Y-11614476D01*
X12323905Y-11614476D02*
X12342952Y-11614476D01*
X12362000Y-11624000D01*
X12371524Y-11633524D01*
X12381048Y-11652571D01*
X12390571Y-11690667D01*
X12390571Y-11738286D01*
X12381048Y-11776381D01*
X12371524Y-11795428D01*
X12362000Y-11804952D01*
X12342952Y-11814476D01*
X12323905Y-11814476D01*
X12304857Y-11804952D01*
X12295333Y-11795428D01*
X12285809Y-11776381D01*
X12276286Y-11738286D01*
X12276286Y-11690667D01*
X12285809Y-11652571D01*
X12295333Y-11633524D01*
X12304857Y-11624000D01*
X12323905Y-11614476D01*
X12514381Y-11614476D02*
X12533428Y-11614476D01*
X12552476Y-11624000D01*
X12562000Y-11633524D01*
X12571524Y-11652571D01*
X12581048Y-11690667D01*
X12581048Y-11738286D01*
X12571524Y-11776381D01*
X12562000Y-11795428D01*
X12552476Y-11804952D01*
X12533428Y-11814476D01*
X12514381Y-11814476D01*
X12495333Y-11804952D01*
X12485809Y-11795428D01*
X12476286Y-11776381D01*
X12466762Y-11738286D01*
X12466762Y-11690667D01*
X12476286Y-11652571D01*
X12485809Y-11633524D01*
X12495333Y-11624000D01*
X12514381Y-11614476D01*
X12666762Y-11814476D02*
X12666762Y-11681143D01*
X12666762Y-11700190D02*
X12676286Y-11690667D01*
X12695333Y-11681143D01*
X12723905Y-11681143D01*
X12742952Y-11690667D01*
X12752476Y-11709714D01*
X12752476Y-11814476D01*
X12752476Y-11709714D02*
X12762000Y-11690667D01*
X12781048Y-11681143D01*
X12809619Y-11681143D01*
X12828667Y-11690667D01*
X12838190Y-11709714D01*
X12838190Y-11814476D01*
X12933428Y-11814476D02*
X12933428Y-11681143D01*
X12933428Y-11700190D02*
X12942952Y-11690667D01*
X12962000Y-11681143D01*
X12990571Y-11681143D01*
X13009619Y-11690667D01*
X13019143Y-11709714D01*
X13019143Y-11814476D01*
X13019143Y-11709714D02*
X13028667Y-11690667D01*
X13047714Y-11681143D01*
X13076286Y-11681143D01*
X13095333Y-11690667D01*
X13104857Y-11709714D01*
X13104857Y-11814476D01*
X13495333Y-11604952D02*
X13323905Y-11862095D01*
X13752476Y-11614476D02*
X13771524Y-11614476D01*
X13790571Y-11624000D01*
X13800095Y-11633524D01*
X13809619Y-11652571D01*
X13819143Y-11690667D01*
X13819143Y-11738286D01*
X13809619Y-11776381D01*
X13800095Y-11795428D01*
X13790571Y-11804952D01*
X13771524Y-11814476D01*
X13752476Y-11814476D01*
X13733428Y-11804952D01*
X13723905Y-11795428D01*
X13714381Y-11776381D01*
X13704857Y-11738286D01*
X13704857Y-11690667D01*
X13714381Y-11652571D01*
X13723905Y-11633524D01*
X13733428Y-11624000D01*
X13752476Y-11614476D01*
X13904857Y-11795428D02*
X13914381Y-11804952D01*
X13904857Y-11814476D01*
X13895333Y-11804952D01*
X13904857Y-11795428D01*
X13904857Y-11814476D01*
X14038190Y-11614476D02*
X14057238Y-11614476D01*
X14076286Y-11624000D01*
X14085809Y-11633524D01*
X14095333Y-11652571D01*
X14104857Y-11690667D01*
X14104857Y-11738286D01*
X14095333Y-11776381D01*
X14085809Y-11795428D01*
X14076286Y-11804952D01*
X14057238Y-11814476D01*
X14038190Y-11814476D01*
X14019143Y-11804952D01*
X14009619Y-11795428D01*
X14000095Y-11776381D01*
X13990571Y-11738286D01*
X13990571Y-11690667D01*
X14000095Y-11652571D01*
X14009619Y-11633524D01*
X14019143Y-11624000D01*
X14038190Y-11614476D01*
X14171524Y-11614476D02*
X14295333Y-11614476D01*
X14228667Y-11690667D01*
X14257238Y-11690667D01*
X14276286Y-11700190D01*
X14285809Y-11709714D01*
X14295333Y-11728762D01*
X14295333Y-11776381D01*
X14285809Y-11795428D01*
X14276286Y-11804952D01*
X14257238Y-11814476D01*
X14200095Y-11814476D01*
X14181048Y-11804952D01*
X14171524Y-11795428D01*
X14390571Y-11814476D02*
X14428667Y-11814476D01*
X14447714Y-11804952D01*
X14457238Y-11795428D01*
X14476286Y-11766857D01*
X14485809Y-11728762D01*
X14485809Y-11652571D01*
X14476286Y-11633524D01*
X14466762Y-11624000D01*
X14447714Y-11614476D01*
X14409619Y-11614476D01*
X14390571Y-11624000D01*
X14381048Y-11633524D01*
X14371524Y-11652571D01*
X14371524Y-11700190D01*
X14381048Y-11719238D01*
X14390571Y-11728762D01*
X14409619Y-11738286D01*
X14447714Y-11738286D01*
X14466762Y-11728762D01*
X14476286Y-11719238D01*
X14485809Y-11700190D01*
X14657238Y-11681143D02*
X14657238Y-11814476D01*
X14609619Y-11604952D02*
X14562000Y-11747809D01*
X14685809Y-11747809D01*
X14752476Y-11614476D02*
X14752476Y-11652571D01*
X14828667Y-11614476D02*
X14828667Y-11652571D01*
X15123905Y-11890667D02*
X15114381Y-11881143D01*
X15095333Y-11852571D01*
X15085809Y-11833524D01*
X15076286Y-11804952D01*
X15066762Y-11757333D01*
X15066762Y-11719238D01*
X15076286Y-11671619D01*
X15085809Y-11643048D01*
X15095333Y-11624000D01*
X15114381Y-11595428D01*
X15123905Y-11585905D01*
X15190571Y-11633524D02*
X15200095Y-11624000D01*
X15219143Y-11614476D01*
X15266762Y-11614476D01*
X15285809Y-11624000D01*
X15295333Y-11633524D01*
X15304857Y-11652571D01*
X15304857Y-11671619D01*
X15295333Y-11700190D01*
X15181048Y-11814476D01*
X15304857Y-11814476D01*
X15381048Y-11633524D02*
X15390571Y-11624000D01*
X15409619Y-11614476D01*
X15457238Y-11614476D01*
X15476286Y-11624000D01*
X15485809Y-11633524D01*
X15495333Y-11652571D01*
X15495333Y-11671619D01*
X15485809Y-11700190D01*
X15371524Y-11814476D01*
X15495333Y-11814476D01*
X15733428Y-11814476D02*
X15733428Y-11614476D01*
X15819143Y-11814476D02*
X15819143Y-11709714D01*
X15809619Y-11690667D01*
X15790571Y-11681143D01*
X15762000Y-11681143D01*
X15742952Y-11690667D01*
X15733428Y-11700190D01*
X15942952Y-11814476D02*
X15923905Y-11804952D01*
X15914381Y-11795428D01*
X15904857Y-11776381D01*
X15904857Y-11719238D01*
X15914381Y-11700190D01*
X15923905Y-11690667D01*
X15942952Y-11681143D01*
X15971524Y-11681143D01*
X15990571Y-11690667D01*
X16000095Y-11700190D01*
X16009619Y-11719238D01*
X16009619Y-11776381D01*
X16000095Y-11795428D01*
X15990571Y-11804952D01*
X15971524Y-11814476D01*
X15942952Y-11814476D01*
X16123905Y-11814476D02*
X16104857Y-11804952D01*
X16095333Y-11785905D01*
X16095333Y-11614476D01*
X16276286Y-11804952D02*
X16257238Y-11814476D01*
X16219143Y-11814476D01*
X16200095Y-11804952D01*
X16190571Y-11785905D01*
X16190571Y-11709714D01*
X16200095Y-11690667D01*
X16219143Y-11681143D01*
X16257238Y-11681143D01*
X16276286Y-11690667D01*
X16285809Y-11709714D01*
X16285809Y-11728762D01*
X16190571Y-11747809D01*
X16362000Y-11804952D02*
X16381048Y-11814476D01*
X16419143Y-11814476D01*
X16438190Y-11804952D01*
X16447714Y-11785905D01*
X16447714Y-11776381D01*
X16438190Y-11757333D01*
X16419143Y-11747809D01*
X16390571Y-11747809D01*
X16371524Y-11738286D01*
X16362000Y-11719238D01*
X16362000Y-11709714D01*
X16371524Y-11690667D01*
X16390571Y-11681143D01*
X16419143Y-11681143D01*
X16438190Y-11690667D01*
X16685809Y-11738286D02*
X16838190Y-11738286D01*
X16762000Y-11814476D02*
X16762000Y-11662095D01*
X17066762Y-11614476D02*
X17190571Y-11614476D01*
X17123905Y-11690667D01*
X17152476Y-11690667D01*
X17171524Y-11700190D01*
X17181048Y-11709714D01*
X17190571Y-11728762D01*
X17190571Y-11776381D01*
X17181048Y-11795428D01*
X17171524Y-11804952D01*
X17152476Y-11814476D01*
X17095333Y-11814476D01*
X17076286Y-11804952D01*
X17066762Y-11795428D01*
X17419143Y-11804952D02*
X17438190Y-11814476D01*
X17476286Y-11814476D01*
X17495333Y-11804952D01*
X17504857Y-11785905D01*
X17504857Y-11776381D01*
X17495333Y-11757333D01*
X17476286Y-11747809D01*
X17447714Y-11747809D01*
X17428667Y-11738286D01*
X17419143Y-11719238D01*
X17419143Y-11709714D01*
X17428667Y-11690667D01*
X17447714Y-11681143D01*
X17476286Y-11681143D01*
X17495333Y-11690667D01*
X17619143Y-11814476D02*
X17600095Y-11804952D01*
X17590571Y-11785905D01*
X17590571Y-11614476D01*
X17723905Y-11814476D02*
X17704857Y-11804952D01*
X17695333Y-11795428D01*
X17685810Y-11776381D01*
X17685810Y-11719238D01*
X17695333Y-11700190D01*
X17704857Y-11690667D01*
X17723905Y-11681143D01*
X17752476Y-11681143D01*
X17771524Y-11690667D01*
X17781048Y-11700190D01*
X17790571Y-11719238D01*
X17790571Y-11776381D01*
X17781048Y-11795428D01*
X17771524Y-11804952D01*
X17752476Y-11814476D01*
X17723905Y-11814476D01*
X17847714Y-11681143D02*
X17923905Y-11681143D01*
X17876286Y-11614476D02*
X17876286Y-11785905D01*
X17885810Y-11804952D01*
X17904857Y-11814476D01*
X17923905Y-11814476D01*
X17981048Y-11804952D02*
X18000095Y-11814476D01*
X18038190Y-11814476D01*
X18057238Y-11804952D01*
X18066762Y-11785905D01*
X18066762Y-11776381D01*
X18057238Y-11757333D01*
X18038190Y-11747809D01*
X18009619Y-11747809D01*
X17990571Y-11738286D01*
X17981048Y-11719238D01*
X17981048Y-11709714D01*
X17990571Y-11690667D01*
X18009619Y-11681143D01*
X18038190Y-11681143D01*
X18057238Y-11690667D01*
X18133429Y-11890667D02*
X18142952Y-11881143D01*
X18162000Y-11852571D01*
X18171524Y-11833524D01*
X18181048Y-11804952D01*
X18190571Y-11757333D01*
X18190571Y-11719238D01*
X18181048Y-11671619D01*
X18171524Y-11643048D01*
X18162000Y-11624000D01*
X18142952Y-11595428D01*
X18133429Y-11585905D01*
D16*
X11497000Y-12043000D02*
X11552000Y-11988000D01*
X11497000Y-11933000D01*
X11442000Y-11988000D01*
X11497000Y-12043000D01*
D11*
X11914381Y-12078476D02*
X11800095Y-12078476D01*
X11857238Y-12078476D02*
X11857238Y-11878476D01*
X11838190Y-11907048D01*
X11819143Y-11926095D01*
X11800095Y-11935619D01*
X12000095Y-12059428D02*
X12009619Y-12068952D01*
X12000095Y-12078476D01*
X11990571Y-12068952D01*
X12000095Y-12059428D01*
X12000095Y-12078476D01*
X12200095Y-12078476D02*
X12085809Y-12078476D01*
X12142952Y-12078476D02*
X12142952Y-11878476D01*
X12123905Y-11907048D01*
X12104857Y-11926095D01*
X12085809Y-11935619D01*
X12323905Y-11878476D02*
X12342952Y-11878476D01*
X12362000Y-11888000D01*
X12371524Y-11897524D01*
X12381048Y-11916571D01*
X12390571Y-11954667D01*
X12390571Y-12002286D01*
X12381048Y-12040381D01*
X12371524Y-12059428D01*
X12362000Y-12068952D01*
X12342952Y-12078476D01*
X12323905Y-12078476D01*
X12304857Y-12068952D01*
X12295333Y-12059428D01*
X12285809Y-12040381D01*
X12276286Y-12002286D01*
X12276286Y-11954667D01*
X12285809Y-11916571D01*
X12295333Y-11897524D01*
X12304857Y-11888000D01*
X12323905Y-11878476D01*
X12514381Y-11878476D02*
X12533428Y-11878476D01*
X12552476Y-11888000D01*
X12562000Y-11897524D01*
X12571524Y-11916571D01*
X12581048Y-11954667D01*
X12581048Y-12002286D01*
X12571524Y-12040381D01*
X12562000Y-12059428D01*
X12552476Y-12068952D01*
X12533428Y-12078476D01*
X12514381Y-12078476D01*
X12495333Y-12068952D01*
X12485809Y-12059428D01*
X12476286Y-12040381D01*
X12466762Y-12002286D01*
X12466762Y-11954667D01*
X12476286Y-11916571D01*
X12485809Y-11897524D01*
X12495333Y-11888000D01*
X12514381Y-11878476D01*
X12666762Y-12078476D02*
X12666762Y-11945143D01*
X12666762Y-11964190D02*
X12676286Y-11954667D01*
X12695333Y-11945143D01*
X12723905Y-11945143D01*
X12742952Y-11954667D01*
X12752476Y-11973714D01*
X12752476Y-12078476D01*
X12752476Y-11973714D02*
X12762000Y-11954667D01*
X12781048Y-11945143D01*
X12809619Y-11945143D01*
X12828667Y-11954667D01*
X12838190Y-11973714D01*
X12838190Y-12078476D01*
X12933428Y-12078476D02*
X12933428Y-11945143D01*
X12933428Y-11964190D02*
X12942952Y-11954667D01*
X12962000Y-11945143D01*
X12990571Y-11945143D01*
X13009619Y-11954667D01*
X13019143Y-11973714D01*
X13019143Y-12078476D01*
X13019143Y-11973714D02*
X13028667Y-11954667D01*
X13047714Y-11945143D01*
X13076286Y-11945143D01*
X13095333Y-11954667D01*
X13104857Y-11973714D01*
X13104857Y-12078476D01*
X13495333Y-11868952D02*
X13323905Y-12126095D01*
X13752476Y-11878476D02*
X13771524Y-11878476D01*
X13790571Y-11888000D01*
X13800095Y-11897524D01*
X13809619Y-11916571D01*
X13819143Y-11954667D01*
X13819143Y-12002286D01*
X13809619Y-12040381D01*
X13800095Y-12059428D01*
X13790571Y-12068952D01*
X13771524Y-12078476D01*
X13752476Y-12078476D01*
X13733428Y-12068952D01*
X13723905Y-12059428D01*
X13714381Y-12040381D01*
X13704857Y-12002286D01*
X13704857Y-11954667D01*
X13714381Y-11916571D01*
X13723905Y-11897524D01*
X13733428Y-11888000D01*
X13752476Y-11878476D01*
X13904857Y-12059428D02*
X13914381Y-12068952D01*
X13904857Y-12078476D01*
X13895333Y-12068952D01*
X13904857Y-12059428D01*
X13904857Y-12078476D01*
X14038190Y-11878476D02*
X14057238Y-11878476D01*
X14076286Y-11888000D01*
X14085809Y-11897524D01*
X14095333Y-11916571D01*
X14104857Y-11954667D01*
X14104857Y-12002286D01*
X14095333Y-12040381D01*
X14085809Y-12059428D01*
X14076286Y-12068952D01*
X14057238Y-12078476D01*
X14038190Y-12078476D01*
X14019143Y-12068952D01*
X14009619Y-12059428D01*
X14000095Y-12040381D01*
X13990571Y-12002286D01*
X13990571Y-11954667D01*
X14000095Y-11916571D01*
X14009619Y-11897524D01*
X14019143Y-11888000D01*
X14038190Y-11878476D01*
X14276286Y-11945143D02*
X14276286Y-12078476D01*
X14228667Y-11868952D02*
X14181048Y-12011809D01*
X14304857Y-12011809D01*
X14362000Y-11878476D02*
X14485809Y-11878476D01*
X14419143Y-11954667D01*
X14447714Y-11954667D01*
X14466762Y-11964190D01*
X14476286Y-11973714D01*
X14485809Y-11992762D01*
X14485809Y-12040381D01*
X14476286Y-12059428D01*
X14466762Y-12068952D01*
X14447714Y-12078476D01*
X14390571Y-12078476D01*
X14371524Y-12068952D01*
X14362000Y-12059428D01*
X14552476Y-11878476D02*
X14676286Y-11878476D01*
X14609619Y-11954667D01*
X14638190Y-11954667D01*
X14657238Y-11964190D01*
X14666762Y-11973714D01*
X14676286Y-11992762D01*
X14676286Y-12040381D01*
X14666762Y-12059428D01*
X14657238Y-12068952D01*
X14638190Y-12078476D01*
X14581048Y-12078476D01*
X14562000Y-12068952D01*
X14552476Y-12059428D01*
X14752476Y-11878476D02*
X14752476Y-11916571D01*
X14828667Y-11878476D02*
X14828667Y-11916571D01*
X15123905Y-12154667D02*
X15114381Y-12145143D01*
X15095333Y-12116571D01*
X15085809Y-12097524D01*
X15076286Y-12068952D01*
X15066762Y-12021333D01*
X15066762Y-11983238D01*
X15076286Y-11935619D01*
X15085809Y-11907048D01*
X15095333Y-11888000D01*
X15114381Y-11859428D01*
X15123905Y-11849905D01*
X15285809Y-11945143D02*
X15285809Y-12078476D01*
X15238190Y-11868952D02*
X15190571Y-12011809D01*
X15314381Y-12011809D01*
X15542952Y-12078476D02*
X15542952Y-11878476D01*
X15628667Y-12078476D02*
X15628667Y-11973714D01*
X15619143Y-11954667D01*
X15600095Y-11945143D01*
X15571524Y-11945143D01*
X15552476Y-11954667D01*
X15542952Y-11964190D01*
X15752476Y-12078476D02*
X15733428Y-12068952D01*
X15723905Y-12059428D01*
X15714381Y-12040381D01*
X15714381Y-11983238D01*
X15723905Y-11964190D01*
X15733428Y-11954667D01*
X15752476Y-11945143D01*
X15781048Y-11945143D01*
X15800095Y-11954667D01*
X15809619Y-11964190D01*
X15819143Y-11983238D01*
X15819143Y-12040381D01*
X15809619Y-12059428D01*
X15800095Y-12068952D01*
X15781048Y-12078476D01*
X15752476Y-12078476D01*
X15933428Y-12078476D02*
X15914381Y-12068952D01*
X15904857Y-12049905D01*
X15904857Y-11878476D01*
X16085809Y-12068952D02*
X16066762Y-12078476D01*
X16028667Y-12078476D01*
X16009619Y-12068952D01*
X16000095Y-12049905D01*
X16000095Y-11973714D01*
X16009619Y-11954667D01*
X16028667Y-11945143D01*
X16066762Y-11945143D01*
X16085809Y-11954667D01*
X16095333Y-11973714D01*
X16095333Y-11992762D01*
X16000095Y-12011809D01*
X16171524Y-12068952D02*
X16190571Y-12078476D01*
X16228667Y-12078476D01*
X16247714Y-12068952D01*
X16257238Y-12049905D01*
X16257238Y-12040381D01*
X16247714Y-12021333D01*
X16228667Y-12011809D01*
X16200095Y-12011809D01*
X16181048Y-12002286D01*
X16171524Y-11983238D01*
X16171524Y-11973714D01*
X16181048Y-11954667D01*
X16200095Y-11945143D01*
X16228667Y-11945143D01*
X16247714Y-11954667D01*
X16323905Y-12154667D02*
X16333428Y-12145143D01*
X16352476Y-12116571D01*
X16362000Y-12097524D01*
X16371524Y-12068952D01*
X16381048Y-12021333D01*
X16381048Y-11983238D01*
X16371524Y-11935619D01*
X16362000Y-11907048D01*
X16352476Y-11888000D01*
X16333428Y-11859428D01*
X16323905Y-11849905D01*
D17*
X11422000Y-12187000D02*
X11552000Y-12317000D01*
X11552000Y-12187000D02*
X11422000Y-12317000D01*
X11552000Y-12252000D02*
G75*
G03*
X11552000Y-12252000I-65000J0D01*
G01*
D11*
X11914381Y-12342476D02*
X11800095Y-12342476D01*
X11857238Y-12342476D02*
X11857238Y-12142476D01*
X11838190Y-12171048D01*
X11819143Y-12190095D01*
X11800095Y-12199619D01*
X12000095Y-12323428D02*
X12009619Y-12332952D01*
X12000095Y-12342476D01*
X11990571Y-12332952D01*
X12000095Y-12323428D01*
X12000095Y-12342476D01*
X12076286Y-12142476D02*
X12200095Y-12142476D01*
X12133428Y-12218667D01*
X12162000Y-12218667D01*
X12181048Y-12228190D01*
X12190571Y-12237714D01*
X12200095Y-12256762D01*
X12200095Y-12304381D01*
X12190571Y-12323428D01*
X12181048Y-12332952D01*
X12162000Y-12342476D01*
X12104857Y-12342476D01*
X12085809Y-12332952D01*
X12076286Y-12323428D01*
X12323905Y-12142476D02*
X12342952Y-12142476D01*
X12362000Y-12152000D01*
X12371524Y-12161524D01*
X12381048Y-12180571D01*
X12390571Y-12218667D01*
X12390571Y-12266286D01*
X12381048Y-12304381D01*
X12371524Y-12323428D01*
X12362000Y-12332952D01*
X12342952Y-12342476D01*
X12323905Y-12342476D01*
X12304857Y-12332952D01*
X12295333Y-12323428D01*
X12285809Y-12304381D01*
X12276286Y-12266286D01*
X12276286Y-12218667D01*
X12285809Y-12180571D01*
X12295333Y-12161524D01*
X12304857Y-12152000D01*
X12323905Y-12142476D01*
X12514381Y-12142476D02*
X12533428Y-12142476D01*
X12552476Y-12152000D01*
X12562000Y-12161524D01*
X12571524Y-12180571D01*
X12581048Y-12218667D01*
X12581048Y-12266286D01*
X12571524Y-12304381D01*
X12562000Y-12323428D01*
X12552476Y-12332952D01*
X12533428Y-12342476D01*
X12514381Y-12342476D01*
X12495333Y-12332952D01*
X12485809Y-12323428D01*
X12476286Y-12304381D01*
X12466762Y-12266286D01*
X12466762Y-12218667D01*
X12476286Y-12180571D01*
X12485809Y-12161524D01*
X12495333Y-12152000D01*
X12514381Y-12142476D01*
X12666762Y-12342476D02*
X12666762Y-12209143D01*
X12666762Y-12228190D02*
X12676286Y-12218667D01*
X12695333Y-12209143D01*
X12723905Y-12209143D01*
X12742952Y-12218667D01*
X12752476Y-12237714D01*
X12752476Y-12342476D01*
X12752476Y-12237714D02*
X12762000Y-12218667D01*
X12781048Y-12209143D01*
X12809619Y-12209143D01*
X12828667Y-12218667D01*
X12838190Y-12237714D01*
X12838190Y-12342476D01*
X12933428Y-12342476D02*
X12933428Y-12209143D01*
X12933428Y-12228190D02*
X12942952Y-12218667D01*
X12962000Y-12209143D01*
X12990571Y-12209143D01*
X13009619Y-12218667D01*
X13019143Y-12237714D01*
X13019143Y-12342476D01*
X13019143Y-12237714D02*
X13028667Y-12218667D01*
X13047714Y-12209143D01*
X13076286Y-12209143D01*
X13095333Y-12218667D01*
X13104857Y-12237714D01*
X13104857Y-12342476D01*
X13495333Y-12132952D02*
X13323905Y-12390095D01*
X13752476Y-12142476D02*
X13771524Y-12142476D01*
X13790571Y-12152000D01*
X13800095Y-12161524D01*
X13809619Y-12180571D01*
X13819143Y-12218667D01*
X13819143Y-12266286D01*
X13809619Y-12304381D01*
X13800095Y-12323428D01*
X13790571Y-12332952D01*
X13771524Y-12342476D01*
X13752476Y-12342476D01*
X13733428Y-12332952D01*
X13723905Y-12323428D01*
X13714381Y-12304381D01*
X13704857Y-12266286D01*
X13704857Y-12218667D01*
X13714381Y-12180571D01*
X13723905Y-12161524D01*
X13733428Y-12152000D01*
X13752476Y-12142476D01*
X13904857Y-12323428D02*
X13914381Y-12332952D01*
X13904857Y-12342476D01*
X13895333Y-12332952D01*
X13904857Y-12323428D01*
X13904857Y-12342476D01*
X14038190Y-12142476D02*
X14057238Y-12142476D01*
X14076286Y-12152000D01*
X14085809Y-12161524D01*
X14095333Y-12180571D01*
X14104857Y-12218667D01*
X14104857Y-12266286D01*
X14095333Y-12304381D01*
X14085809Y-12323428D01*
X14076286Y-12332952D01*
X14057238Y-12342476D01*
X14038190Y-12342476D01*
X14019143Y-12332952D01*
X14009619Y-12323428D01*
X14000095Y-12304381D01*
X13990571Y-12266286D01*
X13990571Y-12218667D01*
X14000095Y-12180571D01*
X14009619Y-12161524D01*
X14019143Y-12152000D01*
X14038190Y-12142476D01*
X14285809Y-12142476D02*
X14190571Y-12142476D01*
X14181048Y-12237714D01*
X14190571Y-12228190D01*
X14209619Y-12218667D01*
X14257238Y-12218667D01*
X14276286Y-12228190D01*
X14285809Y-12237714D01*
X14295333Y-12256762D01*
X14295333Y-12304381D01*
X14285809Y-12323428D01*
X14276286Y-12332952D01*
X14257238Y-12342476D01*
X14209619Y-12342476D01*
X14190571Y-12332952D01*
X14181048Y-12323428D01*
X14485809Y-12342476D02*
X14371524Y-12342476D01*
X14428667Y-12342476D02*
X14428667Y-12142476D01*
X14409619Y-12171048D01*
X14390571Y-12190095D01*
X14371524Y-12199619D01*
X14562000Y-12161524D02*
X14571524Y-12152000D01*
X14590571Y-12142476D01*
X14638190Y-12142476D01*
X14657238Y-12152000D01*
X14666762Y-12161524D01*
X14676286Y-12180571D01*
X14676286Y-12199619D01*
X14666762Y-12228190D01*
X14552476Y-12342476D01*
X14676286Y-12342476D01*
X14752476Y-12142476D02*
X14752476Y-12180571D01*
X14828667Y-12142476D02*
X14828667Y-12180571D01*
X15123905Y-12418667D02*
X15114381Y-12409143D01*
X15095333Y-12380571D01*
X15085809Y-12361524D01*
X15076286Y-12332952D01*
X15066762Y-12285333D01*
X15066762Y-12247238D01*
X15076286Y-12199619D01*
X15085809Y-12171048D01*
X15095333Y-12152000D01*
X15114381Y-12123428D01*
X15123905Y-12113905D01*
X15285809Y-12209143D02*
X15285809Y-12342476D01*
X15238190Y-12132952D02*
X15190571Y-12275809D01*
X15314381Y-12275809D01*
X15542952Y-12342476D02*
X15542952Y-12142476D01*
X15628667Y-12342476D02*
X15628667Y-12237714D01*
X15619143Y-12218667D01*
X15600095Y-12209143D01*
X15571524Y-12209143D01*
X15552476Y-12218667D01*
X15542952Y-12228190D01*
X15752476Y-12342476D02*
X15733428Y-12332952D01*
X15723905Y-12323428D01*
X15714381Y-12304381D01*
X15714381Y-12247238D01*
X15723905Y-12228190D01*
X15733428Y-12218667D01*
X15752476Y-12209143D01*
X15781048Y-12209143D01*
X15800095Y-12218667D01*
X15809619Y-12228190D01*
X15819143Y-12247238D01*
X15819143Y-12304381D01*
X15809619Y-12323428D01*
X15800095Y-12332952D01*
X15781048Y-12342476D01*
X15752476Y-12342476D01*
X15933428Y-12342476D02*
X15914381Y-12332952D01*
X15904857Y-12313905D01*
X15904857Y-12142476D01*
X16085809Y-12332952D02*
X16066762Y-12342476D01*
X16028667Y-12342476D01*
X16009619Y-12332952D01*
X16000095Y-12313905D01*
X16000095Y-12237714D01*
X16009619Y-12218667D01*
X16028667Y-12209143D01*
X16066762Y-12209143D01*
X16085809Y-12218667D01*
X16095333Y-12237714D01*
X16095333Y-12256762D01*
X16000095Y-12275809D01*
X16171524Y-12332952D02*
X16190571Y-12342476D01*
X16228667Y-12342476D01*
X16247714Y-12332952D01*
X16257238Y-12313905D01*
X16257238Y-12304381D01*
X16247714Y-12285333D01*
X16228667Y-12275809D01*
X16200095Y-12275809D01*
X16181048Y-12266286D01*
X16171524Y-12247238D01*
X16171524Y-12237714D01*
X16181048Y-12218667D01*
X16200095Y-12209143D01*
X16228667Y-12209143D01*
X16247714Y-12218667D01*
X16323905Y-12418667D02*
X16333428Y-12409143D01*
X16352476Y-12380571D01*
X16362000Y-12361524D01*
X16371524Y-12332952D01*
X16381048Y-12285333D01*
X16381048Y-12247238D01*
X16371524Y-12199619D01*
X16362000Y-12171048D01*
X16352476Y-12152000D01*
X16333428Y-12123428D01*
X16323905Y-12113905D01*
D18*
X11412000Y-12446000D02*
X11552000Y-12586000D01*
X11552000Y-12446000D02*
X11412000Y-12586000D01*
X11482000Y-12446000D02*
X11482000Y-12586000D01*
X11412000Y-12516000D02*
X11552000Y-12516000D01*
D11*
X11914381Y-12606476D02*
X11800095Y-12606476D01*
X11857238Y-12606476D02*
X11857238Y-12406476D01*
X11838190Y-12435048D01*
X11819143Y-12454095D01*
X11800095Y-12463619D01*
X12000095Y-12587428D02*
X12009619Y-12596952D01*
X12000095Y-12606476D01*
X11990571Y-12596952D01*
X12000095Y-12587428D01*
X12000095Y-12606476D01*
X12181048Y-12473143D02*
X12181048Y-12606476D01*
X12133428Y-12396952D02*
X12085809Y-12539809D01*
X12209619Y-12539809D01*
X12323905Y-12406476D02*
X12342952Y-12406476D01*
X12362000Y-12416000D01*
X12371524Y-12425524D01*
X12381048Y-12444571D01*
X12390571Y-12482667D01*
X12390571Y-12530286D01*
X12381048Y-12568381D01*
X12371524Y-12587428D01*
X12362000Y-12596952D01*
X12342952Y-12606476D01*
X12323905Y-12606476D01*
X12304857Y-12596952D01*
X12295333Y-12587428D01*
X12285809Y-12568381D01*
X12276286Y-12530286D01*
X12276286Y-12482667D01*
X12285809Y-12444571D01*
X12295333Y-12425524D01*
X12304857Y-12416000D01*
X12323905Y-12406476D01*
X12514381Y-12406476D02*
X12533428Y-12406476D01*
X12552476Y-12416000D01*
X12562000Y-12425524D01*
X12571524Y-12444571D01*
X12581048Y-12482667D01*
X12581048Y-12530286D01*
X12571524Y-12568381D01*
X12562000Y-12587428D01*
X12552476Y-12596952D01*
X12533428Y-12606476D01*
X12514381Y-12606476D01*
X12495333Y-12596952D01*
X12485809Y-12587428D01*
X12476286Y-12568381D01*
X12466762Y-12530286D01*
X12466762Y-12482667D01*
X12476286Y-12444571D01*
X12485809Y-12425524D01*
X12495333Y-12416000D01*
X12514381Y-12406476D01*
X12666762Y-12606476D02*
X12666762Y-12473143D01*
X12666762Y-12492190D02*
X12676286Y-12482667D01*
X12695333Y-12473143D01*
X12723905Y-12473143D01*
X12742952Y-12482667D01*
X12752476Y-12501714D01*
X12752476Y-12606476D01*
X12752476Y-12501714D02*
X12762000Y-12482667D01*
X12781048Y-12473143D01*
X12809619Y-12473143D01*
X12828667Y-12482667D01*
X12838190Y-12501714D01*
X12838190Y-12606476D01*
X12933428Y-12606476D02*
X12933428Y-12473143D01*
X12933428Y-12492190D02*
X12942952Y-12482667D01*
X12962000Y-12473143D01*
X12990571Y-12473143D01*
X13009619Y-12482667D01*
X13019143Y-12501714D01*
X13019143Y-12606476D01*
X13019143Y-12501714D02*
X13028667Y-12482667D01*
X13047714Y-12473143D01*
X13076286Y-12473143D01*
X13095333Y-12482667D01*
X13104857Y-12501714D01*
X13104857Y-12606476D01*
X13495333Y-12396952D02*
X13323905Y-12654095D01*
X13752476Y-12406476D02*
X13771524Y-12406476D01*
X13790571Y-12416000D01*
X13800095Y-12425524D01*
X13809619Y-12444571D01*
X13819143Y-12482667D01*
X13819143Y-12530286D01*
X13809619Y-12568381D01*
X13800095Y-12587428D01*
X13790571Y-12596952D01*
X13771524Y-12606476D01*
X13752476Y-12606476D01*
X13733428Y-12596952D01*
X13723905Y-12587428D01*
X13714381Y-12568381D01*
X13704857Y-12530286D01*
X13704857Y-12482667D01*
X13714381Y-12444571D01*
X13723905Y-12425524D01*
X13733428Y-12416000D01*
X13752476Y-12406476D01*
X13904857Y-12587428D02*
X13914381Y-12596952D01*
X13904857Y-12606476D01*
X13895333Y-12596952D01*
X13904857Y-12587428D01*
X13904857Y-12606476D01*
X14038190Y-12406476D02*
X14057238Y-12406476D01*
X14076286Y-12416000D01*
X14085809Y-12425524D01*
X14095333Y-12444571D01*
X14104857Y-12482667D01*
X14104857Y-12530286D01*
X14095333Y-12568381D01*
X14085809Y-12587428D01*
X14076286Y-12596952D01*
X14057238Y-12606476D01*
X14038190Y-12606476D01*
X14019143Y-12596952D01*
X14009619Y-12587428D01*
X14000095Y-12568381D01*
X13990571Y-12530286D01*
X13990571Y-12482667D01*
X14000095Y-12444571D01*
X14009619Y-12425524D01*
X14019143Y-12416000D01*
X14038190Y-12406476D01*
X14285809Y-12406476D02*
X14190571Y-12406476D01*
X14181048Y-12501714D01*
X14190571Y-12492190D01*
X14209619Y-12482667D01*
X14257238Y-12482667D01*
X14276286Y-12492190D01*
X14285809Y-12501714D01*
X14295333Y-12520762D01*
X14295333Y-12568381D01*
X14285809Y-12587428D01*
X14276286Y-12596952D01*
X14257238Y-12606476D01*
X14209619Y-12606476D01*
X14190571Y-12596952D01*
X14181048Y-12587428D01*
X14476286Y-12406476D02*
X14381048Y-12406476D01*
X14371524Y-12501714D01*
X14381048Y-12492190D01*
X14400095Y-12482667D01*
X14447714Y-12482667D01*
X14466762Y-12492190D01*
X14476286Y-12501714D01*
X14485809Y-12520762D01*
X14485809Y-12568381D01*
X14476286Y-12587428D01*
X14466762Y-12596952D01*
X14447714Y-12606476D01*
X14400095Y-12606476D01*
X14381048Y-12596952D01*
X14371524Y-12587428D01*
X14676286Y-12606476D02*
X14562000Y-12606476D01*
X14619143Y-12606476D02*
X14619143Y-12406476D01*
X14600095Y-12435048D01*
X14581048Y-12454095D01*
X14562000Y-12463619D01*
X14752476Y-12406476D02*
X14752476Y-12444571D01*
X14828667Y-12406476D02*
X14828667Y-12444571D01*
X15123905Y-12682667D02*
X15114381Y-12673143D01*
X15095333Y-12644571D01*
X15085809Y-12625524D01*
X15076286Y-12596952D01*
X15066762Y-12549333D01*
X15066762Y-12511238D01*
X15076286Y-12463619D01*
X15085809Y-12435048D01*
X15095333Y-12416000D01*
X15114381Y-12387428D01*
X15123905Y-12377905D01*
X15285809Y-12406476D02*
X15247714Y-12406476D01*
X15228667Y-12416000D01*
X15219143Y-12425524D01*
X15200095Y-12454095D01*
X15190571Y-12492190D01*
X15190571Y-12568381D01*
X15200095Y-12587428D01*
X15209619Y-12596952D01*
X15228667Y-12606476D01*
X15266762Y-12606476D01*
X15285809Y-12596952D01*
X15295333Y-12587428D01*
X15304857Y-12568381D01*
X15304857Y-12520762D01*
X15295333Y-12501714D01*
X15285809Y-12492190D01*
X15266762Y-12482667D01*
X15228667Y-12482667D01*
X15209619Y-12492190D01*
X15200095Y-12501714D01*
X15190571Y-12520762D01*
X15542952Y-12606476D02*
X15542952Y-12406476D01*
X15628667Y-12606476D02*
X15628667Y-12501714D01*
X15619143Y-12482667D01*
X15600095Y-12473143D01*
X15571524Y-12473143D01*
X15552476Y-12482667D01*
X15542952Y-12492190D01*
X15752476Y-12606476D02*
X15733428Y-12596952D01*
X15723905Y-12587428D01*
X15714381Y-12568381D01*
X15714381Y-12511238D01*
X15723905Y-12492190D01*
X15733428Y-12482667D01*
X15752476Y-12473143D01*
X15781048Y-12473143D01*
X15800095Y-12482667D01*
X15809619Y-12492190D01*
X15819143Y-12511238D01*
X15819143Y-12568381D01*
X15809619Y-12587428D01*
X15800095Y-12596952D01*
X15781048Y-12606476D01*
X15752476Y-12606476D01*
X15933428Y-12606476D02*
X15914381Y-12596952D01*
X15904857Y-12577905D01*
X15904857Y-12406476D01*
X16085809Y-12596952D02*
X16066762Y-12606476D01*
X16028667Y-12606476D01*
X16009619Y-12596952D01*
X16000095Y-12577905D01*
X16000095Y-12501714D01*
X16009619Y-12482667D01*
X16028667Y-12473143D01*
X16066762Y-12473143D01*
X16085809Y-12482667D01*
X16095333Y-12501714D01*
X16095333Y-12520762D01*
X16000095Y-12539809D01*
X16171524Y-12596952D02*
X16190571Y-12606476D01*
X16228667Y-12606476D01*
X16247714Y-12596952D01*
X16257238Y-12577905D01*
X16257238Y-12568381D01*
X16247714Y-12549333D01*
X16228667Y-12539809D01*
X16200095Y-12539809D01*
X16181048Y-12530286D01*
X16171524Y-12511238D01*
X16171524Y-12501714D01*
X16181048Y-12482667D01*
X16200095Y-12473143D01*
X16228667Y-12473143D01*
X16247714Y-12482667D01*
X16323905Y-12682667D02*
X16333428Y-12673143D01*
X16352476Y-12644571D01*
X16362000Y-12625524D01*
X16371524Y-12596952D01*
X16381048Y-12549333D01*
X16381048Y-12511238D01*
X16371524Y-12463619D01*
X16362000Y-12435048D01*
X16352476Y-12416000D01*
X16333428Y-12387428D01*
X16323905Y-12377905D01*
M02*
