%TF.GenerationSoftware,KiCad,Pcbnew,6.0.2+dfsg-1*%
%TF.CreationDate,2022-05-24T21:44:59+03:00*%
%TF.ProjectId,iot_geiger,696f745f-6765-4696-9765-722e6b696361,rev?*%
%TF.SameCoordinates,Original*%
%TF.FileFunction,Soldermask,Top*%
%TF.FilePolarity,Negative*%
%FSLAX46Y46*%
G04 Gerber Fmt 4.6, Leading zero omitted, Abs format (unit mm)*
G04 Created by KiCad (PCBNEW 6.0.2+dfsg-1) date 2022-05-24 21:44:59*
%MOMM*%
%LPD*%
G01*
G04 APERTURE LIST*
G04 Aperture macros list*
%AMRoundRect*
0 Rectangle with rounded corners*
0 $1 Rounding radius*
0 $2 $3 $4 $5 $6 $7 $8 $9 X,Y pos of 4 corners*
0 Add a 4 corners polygon primitive as box body*
4,1,4,$2,$3,$4,$5,$6,$7,$8,$9,$2,$3,0*
0 Add four circle primitives for the rounded corners*
1,1,$1+$1,$2,$3*
1,1,$1+$1,$4,$5*
1,1,$1+$1,$6,$7*
1,1,$1+$1,$8,$9*
0 Add four rect primitives between the rounded corners*
20,1,$1+$1,$2,$3,$4,$5,0*
20,1,$1+$1,$4,$5,$6,$7,0*
20,1,$1+$1,$6,$7,$8,$9,0*
20,1,$1+$1,$8,$9,$2,$3,0*%
G04 Aperture macros list end*
%ADD10C,2.600000*%
%ADD11C,2.000000*%
%ADD12RoundRect,0.237500X0.237500X-0.250000X0.237500X0.250000X-0.237500X0.250000X-0.237500X-0.250000X0*%
%ADD13RoundRect,0.237500X-0.237500X0.250000X-0.237500X-0.250000X0.237500X-0.250000X0.237500X0.250000X0*%
%ADD14C,1.600000*%
%ADD15R,1.700000X1.700000*%
%ADD16O,1.700000X1.700000*%
%ADD17R,1.500000X2.000000*%
%ADD18R,3.800000X2.000000*%
%ADD19C,2.500000*%
%ADD20RoundRect,0.225000X0.250000X-0.225000X0.250000X0.225000X-0.250000X0.225000X-0.250000X-0.225000X0*%
%ADD21RoundRect,0.237500X0.237500X-0.287500X0.237500X0.287500X-0.237500X0.287500X-0.237500X-0.287500X0*%
%ADD22RoundRect,0.237500X-0.250000X-0.237500X0.250000X-0.237500X0.250000X0.237500X-0.250000X0.237500X0*%
%ADD23R,0.700000X1.150000*%
%ADD24R,1.150000X0.700000*%
%ADD25R,0.700000X0.700000*%
%ADD26R,2.000000X2.000000*%
%ADD27RoundRect,0.225000X-0.250000X0.225000X-0.250000X-0.225000X0.250000X-0.225000X0.250000X0.225000X0*%
%ADD28RoundRect,0.237500X0.237500X-0.300000X0.237500X0.300000X-0.237500X0.300000X-0.237500X-0.300000X0*%
%ADD29O,1.600000X1.600000*%
%ADD30RoundRect,0.225000X-0.225000X-0.250000X0.225000X-0.250000X0.225000X0.250000X-0.225000X0.250000X0*%
%ADD31R,5.400000X2.900000*%
%ADD32R,2.000000X1.500000*%
%ADD33R,2.000000X3.800000*%
%ADD34R,4.600000X2.000000*%
%ADD35O,4.200000X2.000000*%
%ADD36O,2.000000X4.200000*%
%ADD37RoundRect,0.250000X-0.475000X0.337500X-0.475000X-0.337500X0.475000X-0.337500X0.475000X0.337500X0*%
%ADD38RoundRect,0.237500X0.250000X0.237500X-0.250000X0.237500X-0.250000X-0.237500X0.250000X-0.237500X0*%
%ADD39RoundRect,0.225000X0.225000X0.250000X-0.225000X0.250000X-0.225000X-0.250000X0.225000X-0.250000X0*%
%ADD40RoundRect,0.237500X-0.237500X0.300000X-0.237500X-0.300000X0.237500X-0.300000X0.237500X0.300000X0*%
%ADD41RoundRect,0.150000X-0.587500X-0.150000X0.587500X-0.150000X0.587500X0.150000X-0.587500X0.150000X0*%
%ADD42R,2.200000X2.200000*%
%ADD43O,2.200000X2.200000*%
%ADD44R,1.350000X1.350000*%
%ADD45C,1.350000*%
%ADD46O,3.250000X6.000000*%
%ADD47R,1.000000X1.000000*%
%ADD48O,1.000000X1.000000*%
G04 APERTURE END LIST*
D10*
X125944000Y-80518000D03*
X120944000Y-80518000D03*
D11*
X132675000Y-55372000D03*
X127675000Y-55372000D03*
D12*
X178562000Y-73810500D03*
X178562000Y-71985500D03*
D13*
X197358000Y-67413500D03*
X197358000Y-69238500D03*
D14*
X211415000Y-52070000D03*
X206415000Y-52070000D03*
D15*
X155585000Y-55880000D03*
D16*
X158125000Y-55880000D03*
X160665000Y-55880000D03*
X163205000Y-55880000D03*
D17*
X138190000Y-74828000D03*
X135890000Y-74828000D03*
X133590000Y-74828000D03*
D18*
X135890000Y-81128000D03*
D19*
X163830000Y-44450000D03*
D11*
X118785000Y-54864000D03*
X123785000Y-54864000D03*
X123785000Y-72136000D03*
X118785000Y-72136000D03*
X189940000Y-93000000D03*
X183440000Y-93000000D03*
X189940000Y-97500000D03*
X183440000Y-97500000D03*
D20*
X204368400Y-56248600D03*
X204368400Y-54698600D03*
D21*
X180340000Y-71741000D03*
X180340000Y-69991000D03*
D19*
X210820000Y-99060000D03*
D22*
X198071100Y-54914800D03*
X199896100Y-54914800D03*
D13*
X185420000Y-69699500D03*
X185420000Y-71524500D03*
D19*
X176530000Y-44450000D03*
D23*
X200810000Y-69530000D03*
X201810000Y-69530000D03*
X202810000Y-69530000D03*
X203810000Y-69530000D03*
X204810000Y-69530000D03*
X205810000Y-69530000D03*
X206810000Y-69530000D03*
X207810000Y-69530000D03*
X208810000Y-69530000D03*
X209810000Y-69530000D03*
D24*
X209735000Y-67405000D03*
X209735000Y-66405000D03*
X209735000Y-65405000D03*
X209735000Y-64405000D03*
X209735000Y-63405000D03*
D23*
X209810000Y-61280000D03*
X208810000Y-61280000D03*
X207810000Y-61280000D03*
X206810000Y-61280000D03*
X205810000Y-61280000D03*
X204810000Y-61280000D03*
X203810000Y-61280000D03*
X202810000Y-61280000D03*
X201810000Y-61280000D03*
X200810000Y-61280000D03*
D24*
X200885000Y-63405000D03*
X200885000Y-64405000D03*
X200885000Y-65405000D03*
X200885000Y-66405000D03*
X200885000Y-67405000D03*
D25*
X202260000Y-68155000D03*
X202260000Y-67055000D03*
X202260000Y-65955000D03*
X202260000Y-64855000D03*
X202260000Y-63755000D03*
X202260000Y-62655000D03*
X203590000Y-65980000D03*
X203590000Y-64830000D03*
X204740000Y-67130000D03*
X204740000Y-65980000D03*
X204740000Y-64830000D03*
X204740000Y-63680000D03*
X205890000Y-65980000D03*
X205890000Y-64830000D03*
X207040000Y-67130000D03*
X207040000Y-65980000D03*
X207040000Y-64830000D03*
X207040000Y-63680000D03*
D26*
X185420000Y-82540000D03*
D11*
X185420000Y-74940000D03*
D27*
X175895000Y-94475000D03*
X175895000Y-96025000D03*
D28*
X138430000Y-56742500D03*
X138430000Y-55017500D03*
D20*
X140462000Y-64516000D03*
X140462000Y-62966000D03*
D14*
X127362000Y-51562000D03*
D29*
X122282000Y-51562000D03*
D30*
X194805000Y-56515000D03*
X196355000Y-56515000D03*
D22*
X201017500Y-52070000D03*
X202842500Y-52070000D03*
D31*
X123444000Y-85468000D03*
X123444000Y-75568000D03*
D19*
X189230000Y-44450000D03*
D32*
X181635000Y-62470000D03*
X181635000Y-64770000D03*
D33*
X187935000Y-64770000D03*
D32*
X181635000Y-67070000D03*
D12*
X135890000Y-56792500D03*
X135890000Y-54967500D03*
X192786000Y-82700500D03*
X192786000Y-80875500D03*
D22*
X209145500Y-73660000D03*
X210970500Y-73660000D03*
D19*
X138430000Y-44450000D03*
D14*
X136125000Y-52070000D03*
D29*
X131045000Y-52070000D03*
D13*
X138176000Y-70715500D03*
X138176000Y-72540500D03*
D34*
X124445000Y-88900000D03*
D35*
X124445000Y-95200000D03*
D36*
X129245000Y-91800000D03*
D13*
X140462000Y-75033500D03*
X140462000Y-76858500D03*
D19*
X151130000Y-44450000D03*
D37*
X185420000Y-56366500D03*
X185420000Y-58441500D03*
D38*
X189647500Y-52705000D03*
X187822500Y-52705000D03*
X160678500Y-53086000D03*
X158853500Y-53086000D03*
D39*
X133617000Y-88392000D03*
X132067000Y-88392000D03*
D40*
X189142500Y-55017500D03*
X189142500Y-56742500D03*
D27*
X155575000Y-94335000D03*
X155575000Y-95885000D03*
D38*
X192822500Y-56515000D03*
X190997500Y-56515000D03*
D41*
X192242500Y-52390000D03*
X192242500Y-54290000D03*
X194117500Y-53340000D03*
D12*
X200660000Y-58697500D03*
X200660000Y-56872500D03*
D15*
X175895000Y-99060000D03*
D16*
X173355000Y-99060000D03*
X170815000Y-99060000D03*
X168275000Y-99060000D03*
X165735000Y-99060000D03*
D22*
X163171500Y-53086000D03*
X164996500Y-53086000D03*
D19*
X138430000Y-99060000D03*
D42*
X128524000Y-58674000D03*
D43*
X128524000Y-68834000D03*
D28*
X178435000Y-68807500D03*
X178435000Y-67082500D03*
D42*
X118872000Y-68834000D03*
D43*
X118872000Y-58674000D03*
D44*
X205740000Y-73195000D03*
D45*
X203200000Y-73195000D03*
X200660000Y-73195000D03*
X198120000Y-73195000D03*
D46*
X120650000Y-44450000D03*
X125730000Y-44450000D03*
X204470000Y-44450000D03*
X209550000Y-44450000D03*
D42*
X123698000Y-58674000D03*
D43*
X123698000Y-68834000D03*
D27*
X178435000Y-62090000D03*
X178435000Y-63640000D03*
D39*
X211074000Y-71882000D03*
X209524000Y-71882000D03*
D15*
X155575000Y-99060000D03*
D16*
X153035000Y-99060000D03*
X150495000Y-99060000D03*
X147955000Y-99060000D03*
X145415000Y-99060000D03*
D12*
X196355000Y-54887500D03*
X196355000Y-53062500D03*
D13*
X133604000Y-70715500D03*
X133604000Y-72540500D03*
D22*
X184507500Y-89916000D03*
X186332500Y-89916000D03*
D47*
X136515000Y-63007000D03*
D48*
X137785000Y-63007000D03*
X136515000Y-64277000D03*
X137785000Y-64277000D03*
X136515000Y-65547000D03*
X137785000Y-65547000D03*
X136515000Y-66817000D03*
X137785000Y-66817000D03*
X136515000Y-68087000D03*
X137785000Y-68087000D03*
G36*
X191712121Y-57932002D02*
G01*
X191758614Y-57985658D01*
X191770000Y-58038000D01*
X191770000Y-72264000D01*
X191749998Y-72332121D01*
X191696342Y-72378614D01*
X191644000Y-72390000D01*
X187324000Y-72390000D01*
X187255879Y-72369998D01*
X187209386Y-72316342D01*
X187198000Y-72264000D01*
X187198000Y-67436000D01*
X187218002Y-67367879D01*
X187271658Y-67321386D01*
X187324000Y-67310000D01*
X189465885Y-67310000D01*
X189481124Y-67305525D01*
X189482329Y-67304135D01*
X189484000Y-67296452D01*
X189484000Y-62248115D01*
X189479525Y-62232876D01*
X189478135Y-62231671D01*
X189470452Y-62230000D01*
X187324000Y-62230000D01*
X187255879Y-62209998D01*
X187209386Y-62156342D01*
X187198000Y-62104000D01*
X187198000Y-58038000D01*
X187218002Y-57969879D01*
X187271658Y-57923386D01*
X187324000Y-57912000D01*
X191644000Y-57912000D01*
X191712121Y-57932002D01*
G37*
M02*
